/* XPM */
static char *app_xpm[] = {
/* columns rows colors chars-per-pixel */
"48 48 12 1",
"  c black",
". c gray4",
"X c #6A5B4E",
"o c #BB6051",
"O c #D60026",
"+ c #D1975C",
"@ c #A19994",
"# c #E8B0A3",
"$ c #E8D6CF",
"% c #F0EBE9",
"& c gray100",
"* c None",
/* pixels */
"************************************************",
"************************************************",
"************************************************",
"**********************@OO***********************",
"*********************@OOO#**********************",
"********************@@OOOO#*********************",
"********************@OOOOOO*********************",
"*******************$OOOOOOO$********************",
"*******************@OOOOOOOo********************",
"******************@oOOOOOOOO$*******************",
"******************@OOOOOOOOOO*******************",
"*****************@OOOOO&oOOOO#******************",
"****************$@OOOOO&$OOOOO$*****************",
"****************@OOOOO$&&OOOOOO*****************",
"****************oOOOOO&&&#OOOOO$****************",
"**************$@OOOOO#&&&&#OOOOO****************",
"**************@OOOOO#&&&&&&OOOOO$***************",
"**************@OOOOO&&&&&&&#OOOOO***************",
"*************@OOOOOo&&&&&&&&#OOOO$**************",
"************@@OOOOO$&&&$.%&&&OOOOO#*************",
"************@OOOOO%&&&&X..@&&oOOOOO*************",
"***********$OOOOOO&&&&&...X&&$OOOOO$************",
"**********#@OOOOO#X.....X&&&&&&OOOOO$***********",
"**********@oOOOOo&......X&&&&&&OOOOOo***********",
"*********$oOOOOO&&.XX....&&&&&&$OOOOO$**********",
"*********@OOOOOO&&.$.....&&&&&&&+OOOO+**********",
"********@@OOOOO&&..X.....&&&&&&&&OOOOO$*********",
"********@OOOOO#&&X.....X.&&&&&&&&OOOOOO*********",
"*******@OOOOOO&&&&.....$.&&&&&&&&&oOOOO#********",
"*******@OOOOOo&&&&.....%.$&&&&&&&&$OOOOO********",
"******@oOOOO+&&&&&..X....@&&&&&&&&&OOOOO$*******",
"******@OOOOO&&&&&$..$..@.X&&&&&&&&&#OOOOO*******",
"*****@OOOOOO&&&&%..@&#.$%.X&&&&&&&&&#OOOO$******",
"****@oOOOOo&&&&&..$&&$.&&&#X&&&X..@&&OOOOOO*****",
"****@OOOOO$&&&&&..&&&@.&&&&.X&&....&&oOOOO$*****",
"***@OOOOOO&&&&&@.@&&&.X&&&&&X.......X&#OOOOo****",
"**$@OOOOO#&&&&&X.&&&&.@&&&&X.........&&OOOOO#***",
"**@OOOOO#&&&&&$...&&@X.&&@XX..........$OOOOO$***",
"**@OOOOO&&&&&&&&&&&&&&&&&&&&&&&&&&&&&&&$OOOOO***",
"*@OOOOOOOOOOOOOOOOOOOOOOOOOOOOOOOOOOOOOOOOOOOO$*",
"@@OOOOOOOOOOOOOOOOOOOOOOOOOOOOOOOOOOOOOOOOOOOOo*",
"@OOOOOOOOOOOOOOOOOOOOOOOOOOOOOOOOOOOOOOOOOOOOOO*",
"oOOOOOOOOOOOOOOOOOOOOOOOOOOOOOOOOOOOOOOOOOOOOOO$",
"XoOOOOOOOOOOOOOOOOOOOOOOOOOOOOOOOOOOOOOOOOOOOOO&",
"@Xoooooooooooooooooooooooooooooooooooooooooooo@@",
"************************************************",
"************************************************",
"************************************************"
};
