/* XPM */
static char * checkMark_xpm[] = {
"15 15 36 1",
" 	c None",
".	c #505959",
"+	c #4C5454",
"@	c #545B5B",
"#	c #4D5757",
"$	c #545E5E",
"%	c #727A7C",
"&	c #5B6264",
"*	c #5B6464",
"=	c #778183",
"-	c #4C5353",
";	c #646C6C",
">	c #596060",
",	c #505759",
"'	c #60686B",
")	c #545E60",
"!	c #495353",
"~	c #505757",
"{	c #626B6B",
"]	c #767E81",
"^	c #62686B",
"/	c #646C6F",
"(	c #4D5454",
"_	c #646B6C",
":	c #6C7676",
"<	c #495050",
"[	c #6C7677",
"}	c #8A9295",
"|	c #535B5B",
"1	c #666F72",
"2	c #576060",
"3	c #5E6668",
"4	c #6B7373",
"5	c #576062",
"6	c #485050",
"7	c #64686B",
"               ",
"            .+@",
"           ...#",
"          +.$%&",
"         +.*=.-",
" ..     -.;=>#.",
".#.#   ,.'%)!. ",
".#+.. ~-{]^!-  ",
"+./..(#_:*!<   ",
"<.[}|.1%&+!    ",
" !-2]^=;+#     ",
"  -+3%4+#      ",
"   !.5.+       ",
"    !.6        ",
"     7         "};
