/* XPM */
static char * colSortAscend_xpm[] = {
"11 11 51 1",
" 	c None",
".	c #191F1F",
"+	c #1C2222",
"@	c #1E2323",
"#	c #1B2121",
"$	c #1D2222",
"%	c #1E2424",
"&	c #1F2525",
"*	c #454848",
"=	c #444848",
"-	c #454949",
";	c #404343",
">	c #3D4141",
",	c #3D4040",
"'	c #434646",
")	c #303535",
"!	c #474C4C",
"~	c #242A2A",
"{	c #404242",
"]	c #4E5050",
"^	c #515454",
"/	c #4A4C4C",
"(	c #474848",
"_	c #3B3F3F",
":	c #282E2E",
"<	c #232929",
"[	c #373B3B",
"}	c #494B4B",
"|	c #555656",
"1	c #545656",
"2	c #515151",
"3	c #464848",
"4	c #393D3D",
"5	c #555757",
"6	c #515252",
"7	c #474949",
"8	c #222828",
"9	c #272C2C",
"0	c #4F5252",
"a	c #585858",
"b	c #4B4D4D",
"c	c #313434",
"d	c #515353",
"e	c #575858",
"f	c #272D2D",
"g	c #424545",
"h	c #616262",
"i	c #474A4A",
"j	c #2E3333",
"k	c #424747",
"l	c #3E4242",
"..+@##$%$..",
".&*=-;>,').",
"!~{]^]/(_:!",
" <[}|123[< ",
" 4&,156784 ",
"  940abc9  ",
"  4<debf4  ",
"   &ghi&   ",
"   4<]j4   ",
"    k.k    ",
"    4l4    "};
