/* XPM */
static char * colSortDescend_xpm[] = {
"11 11 51 1",
" 	c None",
".	c #393D3D",
"+	c #3E4242",
"@	c #424747",
"#	c #191F1F",
"$	c #232929",
"%	c #4E5050",
"&	c #2E3333",
"*	c #1F2525",
"=	c #424545",
"-	c #616262",
";	c #474A4A",
">	c #515353",
",	c #575858",
"'	c #4B4D4D",
")	c #272D2D",
"!	c #272C2C",
"~	c #4F5252",
"{	c #585858",
"]	c #313434",
"^	c #3D4040",
"/	c #545656",
"(	c #555757",
"_	c #515252",
":	c #474949",
"<	c #222828",
"[	c #373B3B",
"}	c #494B4B",
"|	c #555656",
"1	c #515151",
"2	c #464848",
"3	c #474C4C",
"4	c #242A2A",
"5	c #404242",
"6	c #515454",
"7	c #4A4C4C",
"8	c #474848",
"9	c #3B3F3F",
"0	c #282E2E",
"a	c #454848",
"b	c #444848",
"c	c #454949",
"d	c #404343",
"e	c #3D4141",
"f	c #434646",
"g	c #303535",
"h	c #1C2222",
"i	c #1E2323",
"j	c #1B2121",
"k	c #1D2222",
"l	c #1E2424",
"    .+.    ",
"    @#@    ",
"   .$%&.   ",
"   *=-;*   ",
"  .$>,').  ",
"  !.~{']!  ",
" .*^/(_:<. ",
" $[}|/12[$ ",
"345%6%78903",
"#*abcde^fg#",
"##hijjklk##"};
