/* XPM */
static const char *tool3_xpm[] = {
/* columns rows colors chars-per-pixel */
"22 22 3 1",
". c Black",
"X c #FFFFFF",
"  c None",
/* pixels */
"                      ",
"                      ",
"                      ",
"                      ",
"       .......        ",
"    ...XXXXXXX...     ",
"   .XXXXXXXXXXXXX.    ",
"  .XXXXXXXXXXXXXXX.   ",
" .XXXXXXXXXXXXXXXXX.  ",
" .XXXXXXXXXXXXXXXXX.  ",
" .XXXXXXXXXXXXXXXXX.  ",
" .XXXXXXXXXXXXXXXXX.  ",
"  .XXXXXXXXXXXXXXX.   ",
"   .XXXXXXXXXXXXX.    ",
"    ...XXXXXXX...     ",
"      ........        ",
"                      ",
"                      ",
"                      ",
"                      ",
"                      ",
"                      "
};
