/* XPM */
static const char *aboutLogo[] = {
/* columns rows colors chars-per-pixel */
"220 37 117 2",
"   c #010101",
".  c #070807",
"X  c #070808",
"o  c #0B0B0B",
"O  c #0F1010",
"+  c #131313",
"@  c #1C1C1C",
"#  c #1F2020",
"$  c #242424",
"%  c #272827",
"&  c #272828",
"*  c #2B2B2B",
"=  c #2F302F",
"-  c #343434",
";  c #373837",
":  c #373838",
">  c #3B3B3B",
",  c #3F403F",
"<  c #434343",
"1  c #4B4B4B",
"2  c #4F504F",
"3  c #4F5050",
"4  c #535353",
"5  c #575758",
"6  c #575858",
"7  c #5B5B5B",
"8  c #5F6060",
"9  c #646464",
"0  c #676867",
"q  c #686867",
"w  c #666768",
"e  c #676868",
"r  c #6B6C6C",
"t  c #6F706F",
"y  c #6F7070",
"u  c #747474",
"i  c #747578",
"p  c #77787A",
"a  c #7B7B7B",
"s  c #7F807F",
"d  c #FEC600",
"f  c #FECA00",
"g  c #FECC0C",
"h  c #FECE13",
"j  c #FECF18",
"k  c #FED01B",
"l  c #FED325",
"z  c #FCD328",
"x  c #FCD63E",
"c  c #FED845",
"v  c #FEDB52",
"b  c #FEDD5C",
"n  c #FEDF63",
"m  c #FBE074",
"M  c #7D7F81",
"N  c #7F8080",
"B  c #838484",
"V  c #878887",
"C  c #8A8B8B",
"Z  c #8B8E90",
"A  c #8E9091",
"S  c #939495",
"D  c #959799",
"F  c #96999A",
"G  c #9A9C9D",
"H  c #9D9FA0",
"J  c #9EA1A4",
"K  c #A2A3A5",
"L  c #A3A5A9",
"P  c #A6A9AB",
"I  c #A9ABAD",
"U  c #A7ACB1",
"Y  c #ABAEB1",
"T  c #AEB1B5",
"R  c #AEB3B8",
"E  c #B0B3B6",
"W  c #B3B6BA",
"Q  c #B6B9BD",
"!  c #B8BCBF",
"~  c #FBE486",
"^  c #F1E29C",
"/  c #EFE4A9",
"(  c #FFEBA3",
")  c #FFEDA8",
"_  c #EFE7BB",
"`  c #FBECB0",
"'  c #F3E8B8",
"]  c #FEF0B5",
"[  c #B6BBC1",
"{  c #B9BDC2",
"}  c #BDC2C6",
"|  c #BEC3C9",
" . c #C1C6CC",
".. c #C3C8CE",
"X. c #C6CBD2",
"o. c #C9CED5",
"O. c #C8CFD8",
"+. c #CAD0D7",
"@. c #CDD4DB",
"#. c #D0D7DF",
"$. c #D1D8DF",
"%. c #F0EAC5",
"&. c #FFF4C7",
"*. c #E8E7D1",
"=. c #E6E7D8",
"-. c #E6E8DC",
";. c #CFD7E0",
":. c #D0D7E0",
">. c #D3DBE4",
",. c #D5DEE9",
"<. c #DFE5E5",
"1. c #D7E1EC",
"2. c #D8E2EE",
"3. c #D4E1F1",
"4. c #D8E3F0",
"5. c #E3E9EC",
"6. c #EAEEED",
/* pixels */
"3.3.3.3.3.3.3.3.3.3.3.3.3.3.3.3.3.3.3.3.3.3.3.3.3.3.3.3.3.3.3.3.3.3.3.3.3.3.3.3.3.3.3.3.3.3.3.3.3.3.3.3.3.3.3.3.3.3.3.3.3.3.3.3.3.3.3.3.3.3.3.3.3.3.3.3.3.3.3.3.3.3.3.3.3.3.3.3.3.3.3.3.3.3.3.3.3.3.3.3.3.3.3.3.3.3.3.3.3.3.3.3.3.3.3.3.3.3.3.3.3.3.3.3.3.3.3.3.3.3.3.3.3.3.3.3.3.3.3.3.3.3.3.3.3.3.3.3.3.3.3.3.3.3.3.3.3.3.3.3.3.3.3.3.3.3.3.3.3.3.3.3.3.3.3.3.3.3.3.3.3.3.3.3.3.3.3.3.3.3.3.3.3.3.3.3.3.3.3.3.3.3.3.3.3.3.3.3.3.3.3.3.3.3.3.3.3.3.3.3.",
"3.x l l l l z l k k l c / 3.3.3.3.3.3.3.3.3.3.3.3.3.3.3.3.3.3.3.3.3.3.3.3.3.3.3.3.3.3.3.3.3.3.3.3.3.3.3.3.3.3.3.3.3.3.3.3.3.3.3.3.3.3.3.3.3.3.3.3.3.3.3.3.3.3.3.3.3.3.3.3.3.3.3.3.3.3.3.3.3.3.3.3.3.3.3.3.3.3.3.3.3.3.3.3.3.3.3.3.3.3.3.3.3.3.3.3.3.3.3.3.3.3.3.3.3.3.3.3.3.3.3.3.3.3.3.3.3.3.3.3.3.3.3.3.3.3.3.3.3.3.3.3.3.3.3.3.3.3.3.3.3.3.3.3.3.3.3.3.3.3.3.3.3.3.3.3.3.3.3.3.3.3.3.3.3.3.3.3.3.3.3.3.3.3.3.3.3.3.3.3.3.3.3.3.3.3.3.3.3.3.3.3.3.3.3.",
"3.h f f f d d d k b ` 4.3.4.3.4.3.3.3.3.3.3.3.3.3.3.3.3.3.3.3.3.3.3.3.3.3.3.3.3.3.3.3.3.3.3.3.3.3.3.3.3.3.3.3.3.3.3.3.3.3.3.3.3.3.3.3.3.3.3.3.3.3.3.3.3.3.3.3.3.3.3.3.3.3.3.3.3.3.3.3.3.3.3.3.3.3.3.3.3.3.3.3.3.3.3.3.3.3.3.3.3.3.3.3.3.3.3.3.3.3.3.3.3.3.3.3.3.3.3.3.3.3.3.3.3.3.3.3.3.3.3.3.3.3.3.3.3.3.3.3.3.3.3.3.3.3.3.3.3.3.3.3.3.3.3.3.3.3.3.3.3.3.3.3.3.3.3.3.3.3.3.3.3.3.3.3.3.3.3.3.3.3.3.3.3.3.3.3.3.3.3.3.3.3.3.3.3.3.3.3.3.3.3.3.3.3.3.3.3.",
"3.k f d d j b ) 4.3.3.3.4._ c x 3.3.3.3.3.3.3.3.3.3.3.3.3.3.3.3.3.3.3.3.3.3.3.3.3.3.3.3.3.3.3.3.3.3.3.3.3.3.3.3.3.3.3.3.3.3.3.3.3.3.3.3.3.3.3.3.3.3.3.3.3.3.3.3.3.3.3.3.3.3.3.3.3.3.3.3.3.3.3.3.3.3.3.3.3.3.3.3.3.3.3.3.3.3.3.3.3.3.3.3.3.3.3.3.3.3.3.3.3.3.3.3.3.3.3.3.3.3.3.3.3.3.3.3.3.3.3.3.3.3.3.3.3.3.3.3.3.3.3.3.3.3.3.3.3.3.3.3.3.3.3.3.3.3.3.3.3.3.3.3.3.3.3.3.3.3.3.3.3.3.3.3.3.3.3.3.3.3.3.3.3.3.3.3.3.3.3.3.3.3.3.3.3.3.3.3.3.3.3.3.3.3.3.3.",
"3.h g n ) 6.3.3.4.5.( v h f f l 3.3.3.3.3.3.3.[ 6 3.3.3.3.N N 3.3.3.3.3.3.3.3.3.3.3.3.3.3.3.3.3.3.3.3.3.3.3.3.3.3.3.3.3.3.3.3.3.3.3.3.3.3.3.3.3.3.3.3.3.3.3.3.3.3.3.3.3.3.3.3.3.J 1 1 3 3 1 < | 3.3.3.3.3.3.3.3.3.3.3.3.3.3.3.3.3.3.3.3.3.3.3.3.3.3.3.3.3.3.3.3.3.3.3.3.3.3.3.3.3.3.3.3.3.3.3.e 1 1 1 y ;.3.3.3.3.3.3.3.3.3.3.3.3.3.3.3.3.3.3.3.3.3.3.3.3.3.3.3.3.3.3.3.3.3.3.3.3.3.3.3.,.1 1 1 1 3 1 +.3.1 X.3.3.3.3.3.3.3.3.3.3.3.3.3.3.3.3.3.3.3.3.3.",
"3.%.5.3.3.3.4.] n k f f f f f l 3.3.3.3.3.3.3.y   3.3.3.3.* = 3.3.3.3.3.3.3.3.3.;.1 >.3.3.3.3.3.3.3.3.3.3.3.3.3.3.3.3.3.3.3.3.3.3.3.3.3.3.3.F w 3.3.p M 3.3.3.3.3.3.3.3.3.3.3.3.p @ @     @ @ P 3.3.3.3.3.3.3.3.3.3.3.3.3.3.3.3.3.3.3.3.3.3.3.3.y M 3.3.3.H y 3.4 O.3.3.3.3.3.3.3.3.3.3.3.3.4.o . @ @   X O.3.3.3.3.3.3.3.3.3. .< 3.3.>.1 >.3.3.3.3.3.3.3.3.3.3.3.3.3.3.3.3.3.3.3.3.3.3.;.@ @ @ @   . 3.,.  J 3.3.[ 5 ,.3.3.3.3.3.3.3.3.3.M U 3.w 3.3.3.",
"3.~ 5.4.&.n l f f f f f f f f l 3.3.3.3.3.3.3.s   1.3.3.3.: : 3.3.3.3.3.3.3.3.3.X.@ ;.3.3.3.3.3.3.3.3.3.3.3.3.3.3.3.3.3.3.3.3.3.3.3.3.3.3.3.w - 3.3.* > 3.3.3.3.3.3.3.3.3.3.3.3.3.3.3.@ - 3.3.3.3.3.3.3.3.3.3.3.3.3.3.3.3.3.3.3.3.3.3.3.3.3.3.V X ;.3.3.3.;.  O = 4.3.3.3.3.3.3.3.3.3.3.3.3.3.X y 3.3.:.X 3 3.3.3.3.3.3.3.3.3.Z   4.3.@.@ @.3.3.3.3.3.3.3.3.3.3.3.3.3.3.3.3.3.3.3.3.3.3.3.3.3.3.,.. w 3.,.  L 3.>.  A 3.3.3.3.3.3.3.3.3.3.[   o e 3.3.3.",
"3.h g k f d f f f f f f f f f l 3.3.3.3.3.3.3.s   1.3.3.3.: : 3.3.3.3.3.3.3.3.3.3.3.3.3.3.3.3.3.3.3.3.3.3.3.3.3.3.3.3.3.3.3.3.3.3.3.3.3.3.3.3.3.3.3.: < 3.3.3.3.3.3.3.3.3.3.3.3.3.3.3.# - 3.3.3.3.3.3.3.3.3.3.3.3.3.3.3.3.3.3.3.3.3.3.3.3.3.3.L >.3.3.3.3.3.;.D 3.3.3.3.3.3.3.,.3.3.3.3.3.3.3.X u 3.3.3.# : 3.3.3.3.3.3.3.3.3.F   4.3.3.3.3.3.3.3.3.3.3.3.3.3.3.3.3.3.3.3.3.3.3.3.3.3.3.3.3.3.3.q   ,.3.>.  J 3.+.{ 3.3.3.3.3.3.3.3.3.3.3.3.{ U 3.3.3.3.",
"3.k f f f f f f f f f f f f f l 3.3.3.3.3.3.3.p   1.3.3.3.- - 3.;.< p - ; { 3.3.>.< ,.B < 4.3.3.[ > 3.3.T - * S 3.3.2.< C > L B - - > < 9 3.C 7 3.8 o O 3 3.,.8 * * B 1.3.3.3.3.3.3.3.# = 3.3.3.3.3.D = * B 4.3.3.i 7 9 & r 2.C % 1 ,.3.3.1.9 ; - M 3.3.3.[ 1 - < { 3.3.,.4 % 7 ,.3.3.3.3.3.4.X p 3.3.:.  8 3.3.V - % 5 ,.3.L @   - @.1.< ,.3.3.3.3., G 3.3.3.7 w 3.3.a & >  .3.3.3.3.3.3.3.3.2.o 7 3.3.>.  H 3.X.1 4.3.w 7 7 $ u 3.3.3.3.L : < [ 3.3.3.",
"3.k f f f f f f f f f f f f f l 3.3.3.3.3.3.3.p   1.3.3.3.- - 3.|   X 7 -   o.3...  >.G   +.3.3.* @ 3.S   1 4   7 3.2.    : Y Y 9 9 -   D 3.3 @ 3.V + @ p 3.{ * 7 1   u 3.3.3.3.3.3.3.# - 3.3.3.3.3   3 4   > 3.3.<   < 7   + * 8 + # 3.3.+.* 7 1   r 3.|   - 9 < q 3.>.O $ 8 @ # 4.3.3.3.3.4.+ + ; * . , 4.3.4.; 3 7 o * 3. .-   7 ,.@.  @.3.3.3.3., + 3.3.,.  e 3.>   7 >   | 3.3.3.3.3.3.3.V   ,.3.3.>.  G 3.H   2.3.*   < 7   7 3.3.9   4 1   L 3.3.",
"3.j f f f f f f f f f f f f f l 3.3.3.3.3.3.3.i   1.3.3.3.: > 3. .  J 3.4.  V 3.X.  :.4.+ 9 3.:.  S 3.O 4 4.3.a   1.4.  r 3.3.3.3.3.> @ 3.3.4 $ 3.3.: 1 3.3.3.3.3.3.- - 3.3.3.3.3.3.4.# - 3.3.3.:.  i 3.3.C   } 1.< @ 3.3.r   :.3...  | 3.3.3.3.3.1 # 3.C   ;.3.3.4.3.7   4.3.1.  H 3.3.3.3.4.+ @ , :   > 4.3.3.3.3.3.Y   +.3.F   3.3.o.  @.3.3.3.3.T   } 3.D   ,.X.  [ 3.3.- * 3.3.3.3.3.3.4.+ 1 3.3.3.,.  G 3.K   2.3.* $ 3.3.7 + 3.>.  B 3.3.8 O 3.3.",
"3.j f f f f f f f f f f f f f l 3.3.3.3.3.3.3.M   1.3.3.3.- - 3. .  | 3.4.  B 3.X.  @.3.5 X 3.S   1.,.  > p p 4   ..2.  I 3.3.3.3.G   } 3.3.7 @ 3.3.- < 3.3.,.4 $ < $ > 3.3.3.3.3.3.3.@ - 3.3.3.C   ,.3.3.4.  r 3.> > 3.3.S   1.3.>.  Q 3.>.4 $ < * * 3. .  @ 9 X.3.3.> O p i u   5 3.3.3.3.4.X i 3.3.o.  5 3.4.t & - <   X.3.V   2.3.o.  @.3.3.3.3.3.o r 3.# > ,.u   9 p p $   2.3.3.3.3.3.C   o.3.3.3.>.  G 3.K   2.3.* - 3.3.u + 3.W   4 M M <   >.3.",
"3.k f f f f f f f f f f f f f l 3.3.3.3.3.3.3.p   ,.3.3.3.* - 3. .  { 3.2.  B 3.X.  @.3.{   +.> > 3.:.  + * $ * - +.1.  K 3.3.3.4.+ > ,.3.3.5 $ 3.3.- < 3.4.= X p w   < 3.3.3.3.3.3.3.# - 3.3.3.B   1.3.3.3.. w 3.> - 3.3.C   1.3.:.  { 3.-   a 9   * 3.3.W 1     C 3.- . * $ & - B 3.3.3.3.4.X u 3.3.3.= * 3.a   7 s @   X.3.C . 4.3.o.  @.3.3.3.3.3.4 + :.  D 3.r   $ & $ = < 4.3.3.3.3.3.@ - 3.3.3.3.,.  G 3.K   2.3.* - 3.3.r + 3.T   # & $ = - >.3.",
"3.k f f f f f f f f f f f f f l 3.3.3.3.3.3.3.H   O.3.3.4.X 9 3. .  { 3.4.  B 3.X.  @.3.3.@ -   Z 3.4.  9 3.3.3.3.3.1.  K 3.3.3.p   >.3.3.3.5 $ 3.3.- 1 3.,.  V 3.3.> - 3.3.3.3.3.3.4.@ - 3.3.3.}   L 1.3.X.  S 3.> - 3.3.C   4.3.:.  { 3.  9 3.3.4 $ 3.3.3.3.4.* @ 3.1 X 3.3.3.3.3.3.3.3.3.4.X p 3.4.4.@ ; 3.> + 3.3.W   X.3.V   3.3.o.  @.3.3.3.3.3.{   1 o 4.3.V   o.3.3.3.3.3.3.3.3.3.T   X.3.3.3.3.>.  G 3.K   1.3.* - 3.3.u + 3.X.  J 3.3.3.3.3.3.",
"3.k f f f f f f f f f f f f f z 3.3.3.3.3.3.3.1.+ + L R *   @.3. .  { 3.2.  M 3.X.  @.3.3.9   + 3.3.3.2   a X.A w 3.2.  J 3.3.,.X & .. .:.3.4 @ 3.3.- $ X.,.+ & | H . > 3.3.3.3.3.3.3.@ = 3.3.3.3.$ o J R + + 1.3.> - 3.3.C   1.3.:.  ! 3.+ @ ..K o * 3. .7 } { + * 3.U   1 ..W 6 ,.3.3.3.3.3.o ; A s =   D 3.7   H ..-   X.3.D   W 1.@.  @.3.3.3.3.3.3.*   1 3.3.2.O @ W ..r | 3.3.3.3.3.* o C C Z C 3.,.  G 3.L   1.3.$ * 3.3.r + 3.3.* o U O.Z R 3.3.",
"3.k f f f f f f f f f f f f f z 3.3.3.3.3.3.3.3.O.$     @ F 3.3.X.+  .3.4.+ S 3.O.+ :.3.3.,.+ w 3.3.3.2.< .   . 1 3.2.+ Y 3.3.a O + o X 1 3.9 - 3.3.D o   O.W +   @ $ 1 3.3.3.3.3.3.3.= < 3.3.3.3.@.*     $  .3.3.1 < 3.3.G + ,.3.>.+ } 3.L +   + $ > 3.Q +     @ W 3.3.a +     @ >.3.3.3.3.4.& o     @ B 3.3.:.*   X $ + o.3.,.#   i :.+ :.3.3.3.3.3.3.a O | 3.3.3.X.$     o H 3.3.3.3.X.+ + .     . >.1.+ U 3.T + 1.3.> , 3.3.N $ 3.3.,.-     X Z 3.3.",
"3.k f f f f f f f f f f f f d l 3.3.3.3.3.3.3.3.3.3.3.,.3.3.3.3.3.4.3.3.3.4.3.3.3.4.3.3.3.3.4.3.3.3.3.3.3.3.,.3.3.3.3.4.3.3.3.4.3.4.4.4.3.3.4.4.3.3.3.3.,.3.3.4.,.4.3.4.3.3.3.3.3.3.3.3.4.3.3.3.3.3.3.,.,.3.3.3.3.4.4.3.3.3.2.3.3.3.4.3.3.3.3.,.4.3.4.3.3.3.1.,.3.3.3.3.3.3.,.1.3.3.3.3.3.3.3.3.4.4.4.3.3.3.3.3.3.,.4.3.3.3.3.3.4.,.3.3.2.3.3.3.3.3.3.3.3.4.3.3.3.3.3.3.1.,.4.3.3.3.3.3.3.3.3.2.1.3.3.3.3.3.3.3.3.3.3.3.3.3.3.3.3.4.3.3.3.3.1.,.3.3.3.3.",
"3.k f f f f f f f f f f f f d l 3.3.3.3.3.3.3.3.3.3.3.3.3.3.3.3.3.3.3.3.3.3.3.3.3.3.3.3.3.3.3.3.3.3.3.3.3.3.1.3.3.3.3.3.3.3.3.3.3.3.3.3.3.3.3.3.3.3.3.3.3.3.3.3.3.3.3.3.3.3.3.3.3.3.3.3.3.3.3.3.3.3.3.3.3.3.3.3.3.3.3.3.3.3.3.3.3.3.3.3.3.3.3.3.3.3.3.3.3.3.3.3.3.3.3.3.3.3.3.3.3.3.3.3.3.3.3.3.3.3.3.3.3.3.3.3.3.3.3.3.3.3.3.3.3.3.3.3.3.3.3.3.3.3.3.3.3.3.3.3.3.3.3.3.3.3.3.3.3.3.3.3.3.3.3.3.3.3.3.3.3.3.3.3.3.3.3.3.3.3.3.3.3.3.3.3.3.3.3.3.3.3.3.3.",
"3.k f f f f f f f f f f f f d z 3.3.3.3.3.3.3.3.3.3.3.3.3.3.3.3.3.3.3.3.3.3.3.3.3.3.3.3.3.3.3.3.3.3.3.3.3.3.3.3.3.3.3.3.3.3.3.3.3.3.3.3.3.3.3.3.3.3.3.3.3.3.3.3.3.3.3.3.3.3.3.3.3.3.3.3.3.3.3.3.3.3.3.3.3.3.3.3.3.3.3.3.3.3.3.3.3.3.3.3.3.3.3.3.3.3.3.3.3.3.3.3.3.3.3.3.3.3.3.3.3.3.3.3.3.3.3.3.3.3.3.3.3.3.3.3.3.3.3.3.3.3.3.3.3.3.3.3.3.3.3.3.3.3.3.3.3.3.3.3.3.3.3.3.3.3.3.3.3.3.3.3.3.3.3.3.3.3.3.3.3.3.3.3.3.3.3.3.3.3.3.3.3.3.3.3.3.3.3.3.3.3.3.3.",
"3.k f f f f f f f f f f d l ^ <.3.3.3.3.3.3.3.3.3.3.3.3.3.3.3.3.3.3.3.3.3.3.3.3.3.3.3.3.3.3.3.3.3.3.3.3.3.3.3.3.3.3.3.3.3.3.3.3.3.3.3.3.3.3.3.3.3.3.3.3.3.3.3.3.3.3.3.3.3.3.3.3.3.3.3.3.3.3.3.3.3.3.3.3.3.3.3.3.3.3.3.3.3.3.3.3.3.3.3.3.3.3.3.3.3.3.3.3.3.3.3.3.3.3.3.3.3.3.3.3.3.3.3.3.3.3.3.3.3.3.3.3.3.3.3.3.3.3.3.3.3.3.3.3.3.3.3.3.3.3.3.3.3.3.3.3.3.3.3.3.3.3.3.3.3.3.3.3.3.3.3.3.3.3.3.3.3.3.3.3.3.3.3.3.3.3.3.3.3.3.3.3.3.3.3.3.3.3.3.3.3.3.3.3.",
"3.k f f f f f f f f j m *.3.3.3.3.3.3.3.3.3.3.3.3.3.3.3.3.3.3.3.3.3.3.3.3.3.3.3.3.3.3.3.3.3.3.3.3.3.3.3.3.3.3.3.3.3.3.3.3.3.3.3.3.3.3.3.3.3.3.3.3.3.3.3.3.3.3.3.3.3.3.3.3.3.3.3.3.3.3.3.3.3.3.3.3.3.3.3.3.3.3.3.3.3.3.3.3.3.3.3.3.3.3.3.3.3.3.3.3.3.3.3.3.3.3.3.3.3.3.3.3.3.3.3.3.3.3.3.3.3.3.3.3.3.3.3.3.3.3.3.3.3.3.3.3.3.3.3.3.3.3.3.3.3.3.3.3.3.3.3.3.3.3.3.3.3.3.3.3.3.3.3.3.3.3.3.3.3.3.3.3.3.3.3.3.3.3.3.3.3.3.3.3.3.3.3.3.3.3.3.3.3.3.3.3.3.3.3.",
"3.h f f f f f g v =.1.3.3.3.3.3.3.3.3.3.3.3.3.3.3.3.3.3.3.3.3.3.3.3.3.3.3.3.3.3.3.3.3.3.3.3.3.3.3.3.3.3.3.3.3.3.3.3.3.3.3.3.3.3.3.3.3.3.3.3.3.3.3.3.3.3.3.3.3.3.3.3.3.3.3.3.3.3.3.3.3.3.3.3.3.3.3.3.3.3.3.3.3.3.3.3.3.3.3.3.3.3.3.3.3.3.3.3.3.3.3.3.3.3.3.3.3.3.3.3.3.3.3.3.3.3.3.3.3.3.3.3.3.3.3.3.3.3.3.3.3.3.3.3.3.3.3.3.3.3.3.3.3.3.3.3.3.3.3.3.3.3.3.3.3.3.3.3.3.3.3.3.3.3.3.3.3.3.3.3.3.3.3.3.3.3.3.3.3.3.3.3.3.3.3.3.3.3.3.3.3.3.3.3.3.3.3.3.3.3.",
"2.^ f f h c ' 2.3.3.3.3.3.3.3.3.3.3.3.3.3.3.3.3.3.3.3.3.3.3.3.3.3.3.3.3.3.3.3.3.3.3.3.3.3.3.3.3.3.3.3.3.3.3.3.3.3.3.3.3.3.3.3.3.3.3.3.3.3.3.3.3.3.3.3.3.3.3.3.3.3.3.3.3.3.3.3.3.3.3.3.3.3.3.3.3.3.3.3.3.3.3.3.3.3.3.3.3.3.3.3.3.3.3.3.3.3.3.3.3.3.3.3.3.3.3.3.3.3.3.3.3.3.3.3.3.3.3.3.3.3.3.3.3.3.3.3.3.3.3.3.3.3.3.3.3.3.3.3.3.3.3.3.3.3.3.3.3.3.3.3.3.3.3.3.3.3.3.3.3.3.3.3.3.3.3.3.3.3.3.3.3.3.3.3.3.3.3.3.3.3.3.3.3.3.3.3.3.3.3.3.3.3.3.3.3.3.3.3.3.",
"3.4.4.-.4.3.3.3.3.3.3.3.3.3.3.3.3.3.3.3.3.3.3.R 1 , < < 3 3.3.3.3.3.3.3.4.4 X.3.3.3.3.3.3.3.3.3.3.1.s i 3.3.4.3.3.3.3.3.3.3.3.3.3.3.3.3.3.3.3.3.3.3.3.3.3.3.3.3.3.9 I 3.3.3.3.W q 3.3.3.3.3.3.3.3.3.3.3.3.3.3.3.3.3.3.3.3.3.3.3.3.3.3.3.3.3.3.3.3.3.3.3.3.3.3.3.3.3.3.3.3.3.3.3.3.3.3.3.3. .> 7 3.3.3.3.3.3.3.3.3.3.3.3.3.3.3.3.3.3.3.3.3.3.3.3.3.3.3.3.3.3.4.3.3.3.3.3.C N 3.3.3.3.3.3.3.3.3.3.3.3.3.3.3.3.3.3.3.3.3.3.3.3.3.3.3.3.3.3.3.3.3.3.3.3.3.3.",
"3.3.3.3.3.3.3.3.3.3.3.3.3.3.3.3.3.3.3.3.3.3.3.q   4 4 4 9 3.3.3.3.3.3.3.4.  K 3.3.3.3.3.3.3.3.3.3.3.> * 3.X.@ 2.3.3.3.3.3.3.3.3.3.3.3.3.3.3.3.3.3.3.3.3.3.3.3.3.3.+ u 3.8 9 1.a @ 3.3.3.3.3.3.3.3.3.3.3.3.3.3.3.3.3.3.3.3.3.3.3.3.3.3.3.3.3.3.3.3.3.1.2 p 3.3.3.3.3.F * 2.3.3.3.3.3.3.3.4.+ 1 p 3.3.3.3.3.3.3.3.3.3.3.3.3.3.3.3.3.3.3.3.3.3.3.3.3.3.3.3.3.a > 3.3.< F 3.1 , 3.3.3.3.3.3.3.3.3.3.3.3.3.3.3.3.3.3.3.3.3.3.3.3.3.3.3.3.3.3.3.3.3.3.3.3.3.3.",
"3.3.3.3.3.3.3.3.3.3.3.3.3.3.3.3.3.3.3.3.3.3.3.e @ 3.3.3.3.3.3.3.3.3.3.3.2.. P 3.3.3.3.3.3.3.3.3.3.3.< - 3.|   2.3.3.3.3.3.3.3.3.3.3.3.3.3.3.3.3.3.3.3.3.3.3.3.3.3.# i 3.G F 3.B & 3.3.3.3.3.3.3.3.3.3.3.3.3.3.3.3.3.3.3.3.3.3.3.3.3.3.4.3.3.3.3.3.3.K - 2.3.3.3.3.3...u 4.3.3.,.3.3.3.3.4.  >.3.3.3.3.3.3.3.3.3.3.3.3.3.3.3.3.,.3.3.3.3.3.3.3.3.3.3.3.3.3.9 $ 4.3.B ..3.4 1 3.3.3.3.3.3.3.3.3.3.3.3.3.3.3.3.3.3.3.3.3.3.3.3.3.3.3.3.3.3.3.3.3.3.3.3.3.3.",
"3.3.3.3.3.3.3.3.3.3.3.3.3.3.3.3.3.3.3.3.3.3.3.e @ 3.3.3.3.3.3.>.W +.3.3.4.. K 3.1.X.3.1.>.3.3.>.1.3.< > 4.V   W 2.3.>.Q +.3.3.3.3.3.3.3.#.W :.1.3.2.#.,.Q @.3.3.4.@ i 3.1.1.3.B $ 3.3.+.,.1.1.1.W :.3.3.:.,.3.3.4.@.4.3.+.W >.4.3.4.>.,.Q ,.3.3.3.3.P I 4.3.3.3.3.3.2.,.3.4.$.1.! ,.3.3.{ X D 2.3.3.X.! 4.3.3.2.#.>.X.3.#.,.} #.1.2.Q 2.1.3.1.1.Q } 3.3.2.1 @ :.3.2.4.3.4 1 3.4.+.>.+.4.3.3.3.+.3.3.3.3.3.3.3.3.3.3.3.3.3.3.3.3.3.3.3.3.3.3.3.3.3.3.3.3.",
"3.3.3.3.3.3.3.3.3.3.3.3.3.3.3.3.3.3.3.3.3.3.3.r o p a a #.3.X.X .   7 3.4.. W 2.O 7 3.7 = 3.3.$ 9 3.< , >.o   O 1.| X X   7 3.3.3.3.3.D X X   s 3.@.  + .   u ,.3.@ p 3.1 3 3.B * 3.u . @.3.C o X   r 3.4 $ 3.3.G   4.M . . . S 3.:.  + . o E 3.3.9 X X $ $.3.3.3.3.V   3.>.. @ . . I 1.*   o  .2.>   . @  .3.G   X ; 4.O + X   7 $ . +  .3.1.@ .   > 3.C .   < 3.- N 3.3 2 3.> % @.o V 3.1.7 $ 4.3.3.3.3.3.3.3.3.3.3.3.3.3.3.3.3.3.3.3.3.3.3.3.3.3.3.3.",
"3.3.3.3.3.3.3.3.3.3.3.3.3.3.3.3.3.3.3.3.3.3.3.y         G 3.4.1.4.Y   ,.4.o S - , 3.3.7 - 1.3.$ w 3.< - 4.I   :.4.2.1.4.{   1.3.3.3.3.4.2.4.p O 3.@.  p 2.L    .3.$ p 1.1 4 3.V - K   } 3.X.  B 2.Q   L ..  >.3.< 1 ,.4.2.4.9 o 3.>.  D 4.< # 3.A   :.2.< > 3.3.3.3.C   4.>.  V 2.1 # 3.>.X  .4.7 + >.3.< @ 3.K   W ,.4.. r 4.C   I 4.- - 3.3.,.4.,.  P 2.7 $ 4.3.- B 3.4 4 u . ,.3.a + 4.4.  F 3.3.3.3.3.3.3.3.3.3.3.3.3.3.3.3.3.3.3.3.3.3.3.3.3.3.3.3.",
"3.3.3.3.3.3.3.3.3.3.3.3.3.3.3.3.3.3.3.3.3.3.3.q @ 4.4.2.3.3.1.9 - q X >.4.+ . o 3.3.3.7 - 3.3.$ w 3.< - 3.}   2.3.1.0 - u O :.3.3.3.3.>.4 > 5 @ 3.#.  X.3.1.+ B 3.@ i 3.1 4 3.C X   B 3.3.C X 4.3.3.$ 4 3.O V 4.  E 3.@.1 < 1 X 4.>.  ,.3.C @ 3.4 @  . .q   4.3.3.3.C   4.>.  ,.,.C @ 3.2.X #.,.X q 3.3.@.  ,.I   4.4.4.. T 3.@.. 1.3.q $ 3.3.B - 9 O F 3.q % 3.1.- B 3.8 X   X.3.3.1.  @.H @ 4.3.3.3.3.3.3.3.3.3.3.3.3.3.3.3.3.3.3.3.3.3.3.3.3.3.3.3.3.",
"3.3.3.3.3.3.3.3.3.3.3.3.3.3.3.3.3.3.3.3.3.3.3.e @ ,.3.3.3.3.; O u -   ,.4.+ < . { 3.3.7 - 3.3.* 0 3.< > 1.}   2.3.- + r -   ,.3.3.3.1.o * y # @ 3.#.  X.3.3.$ p 3.$ i 3.1 4 1.V $ - > 3.3.V + 3.3.3.- 1 3.5 - G O ,.4.o ; t @ O 4.>.. >.3.V @ 3.2 o - * - < 4.3.3.3.C   4.>.X >.3.B @ 3.2.X #.4.  i 3.3.>.  :.T   4.3.4.  P 3.X.. 2.3.0 $ 3.q   q 1   K 3.q $ 3.3.- N 3.6 * + r 3.3.3.4 - # p 3.3.3.3.3.3.3.3.3.3.3.3.3.3.3.3.3.3.3.3.3.3.3.3.3.3.3.3.3.",
"3.3.3.3.3.3.3.3.3.3.3.3.3.3.3.3.3.3.3.3.3.3.3.9 @ 3.3.3.3.2.. B 3.@.  >.4.. { p X 2.3.7 $ 3.3.+ w 3.< - 3.{   4.4.  p 1.1.. >.3.3.3.#.  X.3.K O 3.:.  P 3.2.  F 3.@ p 1.1 2 3.B - >.. r 3.T   ..3.2.  r 3.:.@ & 7 3.@.  ,.3.a   4.>.  >.,.V @ 3.9 o 3.3.3.4.3.3.3.3.C   3.>.  >.3.B @ 3.2.X @.3.* ; 3.1.B . 2.P   2.3.4.. I 3.X.  1.3.9 % 3.> 1 3.3.. K 3.9 * 3.3.= N 3.4 7 |   P 3.3.@.  O 3.3.3.3.3.3.3.3.3.3.3.3.3.3.3.3.3.3.3.3.3.3.3.3.3.3.3.3.3.3.",
"3.3.3.3.3.3.3.3.3.3.3.3.3.3.3.3.3.3.3.3.3.3.3.7 o 3.3.3.3.3.= o y &   >.4.  Y 3.@ % 4.R   r 3   w 3.> & 3.@.  9 | > + u $   >.3.3.3.3.O $ u + o 3.;.  o w & @ 1.3.+ r 3., 1 3.a @ 3.H   T 4.- o r # + ,.4.3.&    .3.2.o - u o   3.:.  :.3.M o 3.>.+ * u , C 1.3.3.3.B   3.:.  :.3.s o 3.2.  o.3.Q   , 8   y 3.G   1.3.4.  L 3.X.  1.3.7 @ 3.9   r 1   L 3.a   q ,.= a 3.1 , 3.7   >.3.3.$ 1 3.3.3.3.3.3.3.3.3.3.3.3.3.3.3.3.3.3.3.3.3.3.3.3.3.3.3.3.3.3.",
"3.3.3.3.3.3.3.3.3.3.3.3.3.3.3.3.3.3.3.3.3.3.3.} Z 3.3.3.3.3.3.i 6 G i 4.3.u #.3.:.0 >.3.W 4 a a { 3.J F 3.3.L 4 X.4.i 4 G p 1.3.3.3.3.;.w 8 S V 3.;.  y 7 y >.3.3.B | 3.P U 3.X.C 3.3.B B 3.3.V 4 u ,.3.3.3.{ a 3.3.3.o.8 8 Z p 4.2.i 4.3.X.B 3.3.,.i 1 r @.3.3.3.3.X.u 3.2.i 2.3.X.B 3.3.i 2.3.,.X.9 5 U 3.3.@.u 3.3.3.i :.3.,.u 4.3.[ C 3.4.S 4 B i @.3.4.p 7 3.H X.3.Y P 3.3.u W 3.3.* 4 3.3.3.3.3.3.3.3.3.3.3.3.3.3.3.3.3.3.3.3.3.3.3.3.3.3.3.3.3.3.",
"3.3.3.3.3.3.3.3.3.3.3.3.3.3.3.3.3.3.3.3.3.3.3.3.3.3.3.3.3.3.3.3.3.3.3.3.3.3.3.3.3.3.3.3.3.3.4.3.3.3.3.3.3.3.3.3.3.3.3.3.3.3.3.3.3.3.3.3.3.3.3.3.3.;.  @.3.3.3.3.3.3.3.3.3.3.3.3.3.3.3.3.3.3.3.3.3.3.3.3.3.3.3.3.3.3.3.3.3.3.3.3.3.3.1.3.3.3.3.3.3.3.3.3.3.3.3.3.3.3.3.3.3.3.3.3.3.3.3.3.3.3.3.3.3.3.3.3.3.3.3.3.3.3.3.3.1.3.3.3.3.3.3.3.3.3.3.3.3.3.3.3.3.3.3.3.3.3.3.3.3.3.3.3.3.3.3.3.= 4 3.3.3.3.3.3.3.3.3.3.3.3.3.3.3.3.3.3.3.3.3.3.3.3.3.3.3.3.3.3.",
"3.3.3.3.3.3.3.3.3.3.3.3.3.3.3.3.3.3.3.3.3.3.3.3.3.3.3.3.3.3.3.3.3.3.3.3.3.3.3.3.3.3.3.3.3.3.3.3.3.3.3.3.3.3.3.3.3.3.3.3.3.3.3.3.3.3.3.3.3.3.3.3.3.@.  X.3.3.3.3.3.3.3.3.3.3.3.3.3.3.3.3.3.3.3.3.3.3.3.3.3.3.3.3.3.3.3.3.3.3.3.3.3.3.3.3.3.3.3.3.3.3.3.3.3.3.3.3.3.3.3.3.3.3.3.3.3.3.3.3.3.3.3.3.3.3.3.3.3.3.3.3.3.3.3.3.3.3.3.3.3.3.3.3.3.3.3.3.3.3.3.3.3.3.3.3.3.3.3.3.3.3.3.3.3.3.3.3.$ 3 3.3.3.3.3.3.3.3.3.3.3.3.3.3.3.3.3.3.3.3.3.3.3.3.3.3.3.3.3.3.",
"3.3.3.3.3.3.3.3.3.3.3.3.3.3.3.3.3.3.3.3.3.3.3.3.3.3.3.3.3.3.3.3.3.3.3.3.3.3.3.3.3.3.3.3.3.3.3.3.3.3.3.3.3.3.3.3.3.3.3.3.3.3.3.3.3.3.3.3.3.3.3.3.3.3.3.3.3.3.3.3.3.3.3.3.3.3.3.3.3.3.3.3.3.3.3.3.3.3.3.3.3.3.3.3.3.3.3.3.3.3.3.3.3.3.3.3.3.3.3.3.3.3.3.3.3.3.3.3.3.3.3.3.3.3.3.3.3.3.3.3.3.3.3.3.3.3.3.3.3.3.3.3.3.3.3.3.3.3.3.3.3.3.3.3.3.3.3.3.3.3.3.3.3.3.3.3.3.3.3.3.3.3.3.3.3.3.3.3.3.3.3.3.3.3.3.3.3.3.3.3.3.3.3.3.3.3.3.3.3.3.3.3.3.3.3.3.3.3.3.3."
};
