/* XPM */
static const char *arrow_xpm[] = {
/* columns rows colors chars-per-pixel */
"22 22 2 1",
". c Black",
"  c None",
/* pixels */
"                      ",
"                      ",
"                      ",
"                      ",
"                      ",
"       .              ",
"       ..             ",
"       ...            ",
"       ....           ",
"       .....          ",
"       ......         ",
"       .......        ",
"       ........       ",
"       .....          ",
"       .. ..          ",
"       .   ..         ",
"           ..         ",
"            ..        ",
"            ..        ",
"                      ",
"                      ",
"                      "
};
