/* XPM */
static char * connect_xpm[] = {
"32 32 59 1",
" 	c None",
".	c #0A0A0A",
"+	c #000000",
"@	c #BFBDBF",
"#	c #FFFFFF",
"$	c #DBDADB",
"%	c #D5D3D5",
"&	c #6A676A",
"*	c #CECBCE",
"=	c #0C0B0C",
"-	c #DEDEDE",
";	c #141314",
">	c #D9D7D9",
",	c #C4C1C4",
"'	c #070607",
")	c #00000D",
"!	c #A9A6A9",
"~	c #000001",
"{	c #838183",
"]	c #DCDCDC",
"^	c #DDDDDD",
"/	c #BDBBC0",
"(	c #DFDFDF",
"_	c #DEDFDE",
":	c #E4E2E4",
"<	c #111100",
"[	c #5A595A",
"}	c #E1E1E1",
"|	c #E0E0E0",
"1	c #E6E3E6",
"2	c #E0DDE0",
"3	c #DCDCDD",
"4	c #B1AFB1",
"5	c #626162",
"6	c #5B5A5B",
"7	c #8B898B",
"8	c #E0E1E0",
"9	c #DDDCDD",
"0	c #010101",
"a	c #807D80",
"b	c #DDDBDD",
"c	c #696969",
"d	c #DFDEDF",
"e	c #817F81",
"f	c #C8C6C8",
"g	c #A5A2A5",
"h	c #CAC8CA",
"i	c #636263",
"j	c #9B989B",
"k	c #868486",
"l	c #080808",
"m	c #444444",
"n	c #686768",
"o	c #5D5C5D",
"p	c #040404",
"q	c #050505",
"r	c #0E0E0E",
"s	c #0B0A0B",
"t	c #060606",
"                                ",
"                              . ",
"                             +@ ",
"                            +@# ",
"                           .@#$ ",
"                 ++       +@#%& ",
"                +##+     .@#*&= ",
"               +#--#+   +@#$&;  ",
"              +#----#+ +@#*&=   ",
"             +#------#+@#$&;    ",
"            +#--------#+>&+     ",
"           +++,--------#+'      ",
"          +#,)+,--------#+      ",
"         +#--,++,--------#+     ",
"        +#----,++,--------!+    ",
"       +#------,~+,------!{+    ",
"      +#-]]^----,~+,----!{{+    ",
"      +{/((--_:--,<+,--!{{[+    ",
"      +[{/^}-^|:1-,++,!{{[+     ",
"      +[[{/-(---2--,++{{[+      ",
"      +[[[{/|(----3-4+{[+       ",
"       +[567/-}-89-4{+[+        ",
"        0abc{/d}9-!e{++         ",
"        +@#f[{/--g{{[+          ",
"       +@#h!i6{/jk{[l           ",
"      .@#b&mno[[{{[+            ",
"     +@#%&pq0[[[{[+             ",
"    +@#*&=   r[[[s              ",
"   p@#$&;     +++               ",
"  t@#>&+                        ",
" +@#@&'                         ",
"                                "};
