/* XPM */
static char * connect1_xpm[] = {
"35 32 65 1",
" 	c None",
".	c #1E1E1C",
"+	c #797962",
"@	c #A6A680",
"#	c #C9C99A",
"$	c #EFEFBA",
"%	c #444441",
"&	c #D9D9A9",
"*	c #696961",
"=	c #999975",
"-	c #B2B288",
";	c #D8D8D4",
">	c #F0F0EE",
",	c #53534E",
"'	c #919175",
")	c #D0D0A2",
"!	c #E7E7B2",
"~	c #B2B2AD",
"{	c #2B2B27",
"]	c #E9E9B6",
"^	c #828268",
"/	c #A2A29A",
"(	c #C6C6C0",
"_	c #5A5A56",
":	c #BFBF95",
"<	c #F6F6F5",
"[	c #DEDEDA",
"}	c #32322F",
"|	c #B9B9B3",
"1	c #81817C",
"2	c #9D9D7E",
"3	c #FEFECF",
"4	c #D0D0A6",
"5	c #F8F8D4",
"6	c #EAEAC6",
"7	c #E0E0AB",
"8	c #AAAA8E",
"9	c #878772",
"0	c #CCCCC6",
"a	c #90908D",
"b	c #9B9B8B",
"c	c #FAFAC8",
"d	c #71715A",
"e	c #BEBEAA",
"f	c #3B3B39",
"g	c #E4E4E2",
"h	c #A9A999",
"i	c #888885",
"j	c #60604A",
"k	c #E8E8AE",
"l	c #D2D2CB",
"m	c #F6F6C4",
"n	c #D2D29E",
"o	c #787873",
"p	c #EFEFCA",
"q	c #EAEAE7",
"r	c #707069",
"s	c #C0C0BB",
"t	c #4A4A45",
"u	c #FDFDFC",
"v	c #B9B98D",
"w	c #9C9C99",
"x	c #AEAE82",
"y	c #61615B",
"z	c #ABABA8",
"                       i;[w        ",
"                       w00i        ",
"          ii1i        /u(1}        ",
"         i(;;;|i    i|ls1t{        ",
"        w~guu<;z    ~001t{         ",
"       1w>>qgg>qw  wg0if{          ",
"      ,%%rz[qggg>zz>s1%{           ",
"     yz/1%r/0ggg>;sh1,}            ",
"    oig>0y,*/0[gg>01,%             ",
"   _bu>>g;*%yh0[[[q<i,             ",
"   _a>qqg[~o%rws;;;[;/*            ",
"   _oz;ggg;|*_rwslll60w+8          ",
"   ___~;qgg[s*,rw(;;l6gd@          ",
"   _,fy/[g[;ls1,owe0(0sd87         ",
"   %%f%*w0l;0l~1j^w|#e/dvk         ",
"    }ff_1/s(0l0~dr9he@^^#$         ",
"     }f1~ya||000|^db'i^9&$#   n    ",
"     .}wgw1izes|~w'^/2=@!mn77!     ",
"     ti~(a*raz|-z/'+2-##$c7$]]     ",
"     o[(iy,,*bh8/'9^'#cp5cp3c]     ",
"   ,a>|off%,joi'1+^9@)6uuuup$!     ",
"  ,z(sot{}ft_r9=xv:#765uuuu3m$$$]  ",
"  is(o%{   %,j+=vn7!$m3uuuu5m]!k7  ",
",1u(r}.    ft,_j*^'@:&puuuup&#:    ",
"  |rf.      t,,j*+'@v!3p356m7--    ",
"  at.          jd^'8#7!7mpn&)v@    ",
"                   vnn#:$]-@-v@    ",
"                   #  #v]72==@8    ",
"                       v7&''=      ",
"                        7n''       ",
"                        &)         ",
"                                   "};
