/* XPM */
static char * disconnect1_xpm[] = {
"32 32 65 1",
" 	c None",
".	c #0B0B0B",
"+	c #C1C1C1",
"@	c #7C0A06",
"#	c #60443E",
"$	c #F04020",
"%	c #767676",
"&	c #FBB4A5",
"*	c #DADADA",
"=	c #F38A79",
"-	c #A4A4A5",
";	c #171717",
">	c #D43128",
",	c #D3453A",
"'	c #E6E6E6",
")	c #353535",
"!	c #F96C51",
"~	c #8E0202",
"{	c #878686",
"]	c #FECBB4",
"^	c #C4100C",
"/	c #CE6A52",
"(	c #EFEDED",
"_	c #F3593F",
":	c #474949",
"<	c #964232",
"[	c #9A0202",
"}	c #E42002",
"|	c #FAC5BB",
"1	c #929292",
"2	c #555453",
"3	c #CF0604",
"4	c #FED6BD",
"5	c #D3261C",
"6	c #F3F2F2",
"7	c #5D5A59",
"8	c #414243",
"9	c #D4220F",
"0	c #FAE1DB",
"a	c #AAAAAA",
"b	c #EC3414",
"c	c #AA6E62",
"d	c #CDCDCD",
"e	c #FDFDFD",
"f	c #2C0202",
"g	c #202121",
"h	c #3F3E3E",
"i	c #F04D32",
"j	c #E90302",
"k	c #616161",
"l	c #F89A86",
"m	c #C9190F",
"n	c #AA8E8E",
"o	c #DE665E",
"p	c #824A40",
"q	c #C10404",
"r	c #9A665E",
"s	c #9A9B9B",
"t	c #B4B4B4",
"u	c #F6E2DE",
"v	c #F56248",
"w	c #FB775A",
"x	c #E2E2E2",
"y	c #696A6B",
"z	c #282A2A",
"                        {+(a    ",
"                        1+e1    ",
"               :%:     ye6sz    ",
"              *x**d   t*'s2g    ",
"             1*eee*1 ste-7;.    ",
"            {ee6'(eey(et:g.     ",
"            1{tx(x(6*+1hz;      ",
"            %2{t'***ed%;.       ",
"            )a%:+'(*de6).       ",
"            ):%{ksd'd*x6%:      ",
"            )hk%y%sdd+de%2      ",
"      %{    )k8:+7ysdta*yk      ",
"     %(6e    :::8{{21++yhh      ",
"    t+e66    )2:hk%%%1{))z      ",
"   aae6('*    )8yzks2:hggg      ",
"   tae6(x(**   z:2:8l&&&&&||    ",
"   {%-x'xxd*+   z87rii__v___w   ",
"   kh8+*x**d+    8r=qqqqq3^3iw  ",
"   8)z81**d++t   &w^q^^^m95}}$l ",
"   )zz1{{+t+a-sn&v>q^^mm99}}bb!m",
"    zhx12stta1{{|93^,,,m9$_ibbi^",
"     %e(s:1as1y7|5^>ee0qq=eelb_^",
"    t6*1kzk{sy:#49^moue&&6e=i$v^",
"   t+e1k:z:k{2)h45^5q=eeee]b$ivm",
"  keeszg)h)8khgh45^5mq>ee=j$_vw^",
"{-e*-h;;;g)h:g;#45m93=6eee|ivvwm",
"tte-7.  .;)));.#]>59o0e&|6el!vwm",
"eeth.          p4$9$ee0jjlee&vw^",
"  hg             wi}$i$}biwwwi3@",
"                 !vi}}bb$ivvi5~f",
"                  o=$bbi_v!wm[  ",
"                   <v>^q^^^^@f  "};
