/* XPM */
static char * filesaveas_xpm[] = {
"32 32 579 2",
"  	c None",
". 	c #EB9800",
"+ 	c #EAAE6E",
"@ 	c #D78853",
"# 	c #C15414",
"$ 	c #F9D30E",
"% 	c #FFEFB3",
"& 	c #FFF0DC",
"* 	c #FBE5CE",
"= 	c #DD9A6E",
"- 	c #BB4400",
"; 	c #EE9D00",
"> 	c #FFEB01",
", 	c #FFDD0F",
"' 	c #FFDD8A",
") 	c #ADAEC3",
"! 	c #A8A9BF",
"~ 	c #A3A3BC",
"{ 	c #A4A4BC",
"] 	c #A0A0B9",
"^ 	c #9C9CB5",
"/ 	c #9797B2",
"( 	c #9393AE",
"_ 	c #8E8EAB",
": 	c #8989A8",
"< 	c #8585A4",
"[ 	c #8080A1",
"} 	c #7B7B9D",
"| 	c #77779A",
"1 	c #727296",
"2 	c #8F786E",
"3 	c #F7C701",
"4 	c #FFC901",
"5 	c #FFBD01",
"6 	c #FFB719",
"7 	c #FFB058",
"8 	c #E67F27",
"9 	c #AEAEC4",
"0 	c #EAEDF2",
"a 	c #E6E9F0",
"b 	c #E3E7EE",
"c 	c #FFFFFF",
"d 	c #D2D8E3",
"e 	c #F6C660",
"f 	c #FFE002",
"g 	c #FFA321",
"h 	c #FF9A2C",
"i 	c #C16C39",
"j 	c #414273",
"k 	c #A9AAC0",
"l 	c #E2E6ED",
"m 	c #D7DCE6",
"n 	c #D3D9E4",
"o 	c #072764",
"p 	c #203C74",
"q 	c #284479",
"r 	c #304B7E",
"s 	c #FDF2DF",
"t 	c #F5BD01",
"u 	c #FFCB07",
"v 	c #FFBF06",
"w 	c #FFB908",
"x 	c #E67A1C",
"y 	c #9A878B",
"z 	c #8387A7",
"A 	c #181854",
"B 	c #A4A5BD",
"C 	c #DFE3EB",
"D 	c #CFD5E1",
"E 	c #12316B",
"F 	c #526893",
"G 	c #63769D",
"H 	c #7385A7",
"I 	c #F6C261",
"J 	c #FEE502",
"K 	c #FFE604",
"L 	c #FFC211",
"M 	c #FFC10D",
"N 	c #FFA81F",
"O 	c #C1703A",
"P 	c #8B9AB7",
"Q 	c #7D81A1",
"R 	c #1C1C56",
"S 	c #A0A1BA",
"T 	c #DBE0E9",
"U 	c #CED5E1",
"V 	c #CAD1DE",
"W 	c #18366F",
"X 	c #6B7EA3",
"Y 	c #7B8CAD",
"Z 	c #FEF9EF",
"` 	c #F8C617",
" .	c #FFEC0B",
"..	c #FFD314",
"+.	c #FFC418",
"@.	c #FFBE18",
"#.	c #FF9C2E",
"$.	c #EE8521",
"%.	c #9C7971",
"&.	c #8696B4",
"*.	c #6D7193",
"=.	c #1A1A54",
"-.	c #9B9CB6",
";.	c #D8DEE7",
">.	c #C9D0DE",
",.	c #C6CEDC",
"'.	c #8494B2",
").	c #94A2BC",
"!.	c #A4B0C7",
"~.	c #F7CA7F",
"{.	c #FCE117",
"].	c #FFE818",
"^.	c #FFC723",
"/.	c #FFC61F",
"(.	c #FFB12C",
"_.	c #FF9F34",
":.	c #D4722C",
"<.	c #8595B3",
"[.	c #7786A6",
"}.	c #64678B",
"|.	c #181853",
"1.	c #9798B3",
"2.	c #D5DAE5",
"3.	c #C5CDDB",
"4.	c #C2CAD9",
"5.	c #8191B1",
"6.	c #B3BDD0",
"7.	c #BFC7D7",
"8.	c #CBD2DF",
"9.	c #F6BD1F",
"0.	c #FFEE24",
"a.	c #FFD927",
"b.	c #FFC92A",
"c.	c #FFC629",
"d.	c #FFA73D",
"e.	c #F79834",
"f.	c #E5B99F",
"g.	c #7585A5",
"h.	c #6B789A",
"i.	c #5D6186",
"j.	c #171752",
"k.	c #9294AF",
"l.	c #D1D7E2",
"m.	c #C1C9D8",
"n.	c #BDC6D6",
"o.	c #FAD89F",
"p.	c #FDE32C",
"q.	c #FFED2F",
"r.	c #FFCE34",
"s.	c #FFCB32",
"t.	c #FFBB3C",
"u.	c #FFA945",
"v.	c #D87529",
"w.	c #E7E7ED",
"x.	c #697799",
"y.	c #647395",
"z.	c #585B81",
"A.	c #151550",
"B.	c #8E8FAC",
"C.	c #CED4E1",
"D.	c #BCC5D6",
"E.	c #B9C2D4",
"F.	c #DADFE8",
"G.	c #D8DDE7",
"H.	c #D6DCE6",
"I.	c #D0D6E2",
"J.	c #CCD3DF",
"K.	c #F1BA30",
"L.	c #FFF03D",
"M.	c #FFDF3C",
"N.	c #FFCE3C",
"O.	c #FFCD39",
"P.	c #FFB14E",
"Q.	c #F7A043",
"R.	c #B27A62",
"S.	c #9EA5BC",
"T.	c #637195",
"U.	c #5F6D91",
"V.	c #52557C",
"W.	c #14144F",
"X.	c #898AA9",
"Y.	c #B8C1D3",
"Z.	c #B5BFD1",
"`.	c #B1BBCF",
" +	c #AEB9CD",
".+	c #AAB5CA",
"++	c #A7B3C8",
"@+	c #A4B0C6",
"#+	c #A0ADC4",
"$+	c #9DAAC2",
"%+	c #99A7C0",
"&+	c #B9A176",
"*+	c #FBDA39",
"=+	c #FFF147",
"-+	c #FFD347",
";+	c #FFD044",
">+	c #FFC64A",
",+	c #FFB356",
"'+	c #D4772E",
")+	c #6C728E",
"!+	c #627094",
"~+	c #5E6B90",
"{+	c #59678C",
"]+	c #4C5077",
"^+	c #12124E",
"/+	c #8486A5",
"(+	c #C7CEDC",
"_+	c #B4BED0",
":+	c #B0BACE",
"<+	c #ADB8CC",
"[+	c #A9B5CA",
"}+	c #A6B2C8",
"|+	c #A3AFC6",
"1+	c #9FACC3",
"2+	c #9CA9C2",
"3+	c #98A6BF",
"4+	c #95A3BD",
"5+	c #DDB145",
"6+	c #FFF255",
"7+	c #FFE651",
"8+	c #FFD34F",
"9+	c #FFD24B",
"0+	c #FFBC5E",
"a+	c #FBB058",
"b+	c #9A6047",
"c+	c #616E93",
"d+	c #5C6A8F",
"e+	c #58668B",
"f+	c #546287",
"g+	c #474B72",
"h+	c #11114D",
"i+	c #8081A2",
"j+	c #C4CCDA",
"k+	c #AFBACE",
"l+	c #ACB7CB",
"m+	c #A9B4C9",
"n+	c #A5B1C7",
"o+	c #A2AEC5",
"p+	c #9EABC3",
"q+	c #9BA8C1",
"r+	c #97A5BF",
"s+	c #94A2BD",
"t+	c #AA9F8B",
"u+	c #FAD644",
"v+	c #FFF25F",
"w+	c #FFDA5A",
"x+	c #FFD556",
"y+	c #FFCC5C",
"z+	c #FFBD68",
"A+	c #DD8032",
"B+	c #6B6880",
"C+	c #5B698E",
"D+	c #57658A",
"E+	c #526186",
"F+	c #4E5D83",
"G+	c #42456E",
"H+	c #10104C",
"I+	c #7B7D9F",
"J+	c #C0C9D8",
"K+	c #ABB6CB",
"L+	c #A8B3C9",
"M+	c #BBC4D5",
"N+	c #B9C2D3",
"O+	c #B6C0D2",
"P+	c #B1BCCF",
"Q+	c #ABB5CA",
"R+	c #A3ADC4",
"S+	c #DFA93D",
"T+	c #FFF46E",
"U+	c #FFEB68",
"V+	c #FFD961",
"W+	c #FFD85E",
"X+	c #FFC86C",
"Y+	c #FFC16F",
"Z+	c #A76444",
"`+	c #76809F",
" @	c #727C9C",
".@	c #6D7898",
"+@	c #4D5C82",
"@@	c #49577E",
"#@	c #3C4069",
"$@	c #0F0F4B",
"%@	c #76789B",
"&@	c #FCFCFD",
"*@	c #F2F2F6",
"=@	c #EBEBF0",
"-@	c #E9DECF",
";@	c #FBD34E",
">@	c #FFF478",
",@	c #FFE26D",
"'@	c #FFDB68",
")@	c #FFD66B",
"!@	c #FFC779",
"~@	c #E69549",
"{@	c #C6B7BB",
"]@	c #C4C4D3",
"^@	c #C0C0D1",
"/@	c #BCBCCE",
"(@	c #48567D",
"_@	c #44527A",
":@	c #363A63",
"<@	c #0C0C47",
"[@	c #727498",
"}@	c #BAC3D4",
"|@	c #F8F8FA",
"1@	c #EEEEF2",
"2@	c #EAEAEF",
"3@	c #E6E6ED",
"4@	c #F0C36A",
"5@	c #FFF686",
"6@	c #FFF07F",
"7@	c #FFDE73",
"8@	c #FFDD70",
"9@	c #FFD27C",
"0@	c #FFCB80",
"a@	c #C67545",
"b@	c #C3C3D3",
"c@	c #BFBFD0",
"d@	c #BBBBCD",
"e@	c #B7B7CA",
"f@	c #414E76",
"g@	c #3A4771",
"h@	c #2E315B",
"i@	c #0B0B46",
"j@	c #6D6F95",
"k@	c #FEFEFE",
"l@	c #F3F3F6",
"m@	c #EDEDF1",
"n@	c #E9E9EF",
"o@	c #E5E5EC",
"p@	c #E1E1E9",
"q@	c #F9C441",
"r@	c #FFF690",
"s@	c #FFE782",
"t@	c #FFE07B",
"u@	c #FFDE7A",
"v@	c #FFD18A",
"w@	c #E69B54",
"x@	c #C0A29D",
"y@	c #BEBECF",
"z@	c #B8B8CA",
"A@	c #ADADC1",
"B@	c #A2A2B8",
"C@	c #38456E",
"D@	c #34426B",
"E@	c #2A2D58",
"F@	c #0A0A45",
"G@	c #686A91",
"H@	c #9AA7C0",
"I@	c #96A3BD",
"J@	c #F2F2F5",
"K@	c #BDBDD8",
"L@	c #B9B9D6",
"M@	c #B6B6D3",
"N@	c #B3B3D0",
"O@	c #B0B0CE",
"P@	c #F5C066",
"Q@	c #FFF49B",
"R@	c #FFE385",
"S@	c #FFE282",
"T@	c #FFDB8C",
"U@	c #FFD591",
"V@	c #C47E52",
"W@	c #9393B6",
"X@	c #8A8AAE",
"Y@	c #8383A7",
"Z@	c #8080A4",
"`@	c #33416A",
" #	c #313D67",
".#	c #262954",
"+#	c #090944",
"@#	c #63668E",
"##	c #8B98B5",
"$#	c #EAEAF0",
"%#	c #DBDBE7",
"&#	c #D7D7E4",
"*#	c #D4D4E1",
"=#	c #D0D0DE",
"-#	c #CCCCDC",
";#	c #F0B86E",
">#	c #FFEFD7",
",#	c #FFEAB4",
"'#	c #FFE491",
")#	c #FFDB9B",
"!#	c #EEB472",
"~#	c #AB7E74",
"{#	c #9D9DB6",
"]#	c #9A9AB5",
"^#	c #9393AF",
"/#	c #9898B1",
"(#	c #303C67",
"_#	c #2D3A63",
":#	c #222650",
"<#	c #080843",
"[#	c #5F618A",
"}#	c #ACB7CC",
"|#	c #8C9AB6",
"1#	c #818FAD",
"2#	c #E6E6EC",
"3#	c #CBCBDD",
"4#	c #C8C8DB",
"5#	c #C4C4D8",
"6#	c #C1C1D5",
"7#	c #C6AD9E",
"8#	c #F1C28A",
"9#	c #F2D0B3",
"0#	c #B46946",
"a#	c #9595B1",
"b#	c #9191AF",
"c#	c #8E8EAC",
"d#	c #8B8BAA",
"e#	c #8888A7",
"f#	c #9494AD",
"g#	c #2C3963",
"h#	c #293560",
"i#	c #1F224D",
"j#	c #070742",
"k#	c #5A5D87",
"l#	c #808EAC",
"m#	c #7B89A8",
"n#	c #BBBBD4",
"o#	c #B8B8D1",
"p#	c #B5B5CF",
"q#	c #B2B2CC",
"r#	c #B89E97",
"s#	c #EDC8A1",
"t#	c #AF6A4F",
"u#	c #8B8BAC",
"v#	c #8888AA",
"w#	c #8585A7",
"x#	c #8282A4",
"y#	c #7F7FA3",
"z#	c #7C7CA0",
"A#	c #8F8FAA",
"B#	c #28345F",
"C#	c #25335C",
"D#	c #1B1F49",
"E#	c #060641",
"F#	c #555884",
"G#	c #9EA9C0",
"H#	c #7988A6",
"I#	c #7583A3",
"J#	c #DBDBE5",
"K#	c #D8D8E2",
"L#	c #D4D4DF",
"M#	c #D0D0DC",
"N#	c #CCCCD9",
"O#	c #CAAEA1",
"P#	c #AB8876",
"Q#	c #D9CCC2",
"R#	c #E3B493",
"S#	c #B67A60",
"T#	c #A3A3B9",
"U#	c #A0A0B6",
"V#	c #9C9CB4",
"W#	c #9595AE",
"X#	c #9292AC",
"Y#	c #8B8BA7",
"Z#	c #24325B",
"`#	c #233059",
" $	c #1A1D47",
".$	c #060642",
"+$	c #50527F",
"@$	c #96A1B9",
"#$	c #7381A2",
"$$	c #6E7C9E",
"%$	c #D7D7E1",
"&$	c #A8A8C8",
"*$	c #A5A5C5",
"=$	c #A3A3C3",
"-$	c #9F9FC0",
";$	c #A68A8E",
">$	c #A37F71",
",$	c #A6745E",
"'$	c #996C6A",
")$	c #8282A6",
"!$	c #7E7EA4",
"~$	c #7C7CA2",
"{$	c #79799F",
"]$	c #77779D",
"^$	c #74749A",
"/$	c #717199",
"($	c #6E6E96",
"_$	c #8A8AA6",
":$	c #24315C",
"<$	c #223059",
"[$	c #181B44",
"}$	c #494C7A",
"|$	c #919CB6",
"1$	c #6D7B9D",
"2$	c #697699",
"3$	c #D2D2DD",
"4$	c #C3C3D5",
"5$	c #C0C0D2",
"6$	c #BCBCCF",
"7$	c #B8B8CD",
"8$	c #B69897",
"9$	c #AE6139",
"0$	c #A87B72",
"a$	c #9898B3",
"b$	c #9696B1",
"c$	c #9292AE",
"d$	c #8F8FAC",
"e$	c #8C8CA9",
"f$	c #8888A6",
"g$	c #8787A5",
"h$	c #8787A6",
"i$	c #9090AC",
"j$	c #212F58",
"k$	c #1E2C56",
"l$	c #141841",
"m$	c #050540",
"n$	c #444776",
"o$	c #8D97B2",
"p$	c #677598",
"q$	c #637194",
"r$	c #CDCDDA",
"s$	c #C9C9D7",
"t$	c #C5C5D4",
"u$	c #C1C1D1",
"v$	c #BDBDCE",
"w$	c #B9AAB2",
"x$	c #B29493",
"y$	c #A8A8BE",
"z$	c #A1A1B9",
"A$	c #9E9EB6",
"B$	c #9A9AB3",
"C$	c #9393AD",
"D$	c #9494AE",
"E$	c #8B8BA9",
"F$	c #1D2C55",
"G$	c #1B2852",
"H$	c #11143D",
"I$	c #040440",
"J$	c #3E3E70",
"K$	c #8184A1",
"L$	c #595C82",
"M$	c #54587E",
"N$	c #AAAAB6",
"O$	c #A7A7B4",
"P$	c #A3A3B1",
"Q$	c #A0A0AF",
"R$	c #9D9DAC",
"S$	c #9999AA",
"T$	c #9696A8",
"U$	c #9393A5",
"V$	c #8F8FA2",
"W$	c #8C8CA0",
"X$	c #89899E",
"Y$	c #86869B",
"Z$	c #838399",
"`$	c #7F7F96",
" %	c #7C7C94",
".%	c #797991",
"+%	c #75758F",
"@%	c #72728C",
"#%	c #12163D",
"$%	c #10143C",
"%%	c #0C0D35",
"&%	c #03033F",
"*%	c #2F2F64",
"=%	c #202058",
"-%	c #2A2A5E",
";%	c #27275C",
">%	c #26265B",
",%	c #25255A",
"'%	c #24245A",
")%	c #232359",
"!%	c #222258",
"~%	c #212158",
"{%	c #202057",
"]%	c #202056",
"^%	c #1F1F56",
"/%	c #1E1E55",
"(%	c #1D1D55",
"_%	c #1C1C54",
":%	c #1C1C53",
"<%	c #1B1B53",
"[%	c #04043F",
"                                    . + @ #                     ",
"                                    $ % & * = -                 ",
"                                  ; > , ' & & =                 ",
"  ) ! ~ { ] ^ / ( _ : < [ } | 1 2 3 > 4 5 6 7 8                 ",
"9 0 a b c c d d d d c c c c c c e > f 5 5 g h i j               ",
"k l m n c c o p q r c c c c c s t > u v w h x y z A             ",
"B C d D c c E F G H c c c c c I J K L M N h O P Q R             ",
"S T U V c c W X Y P c c c c Z `  ...+.@.#.$.%.&.*.=.            ",
"-.;.>.,.c c r '.).!.c c c c ~.{.].^./.(._.:.<.[.}.|.            ",
"1.2.3.4.c c 5.6.7.8.c c c Z 9.0.a.b.c.d.e.f.g.h.i.j.            ",
"k.l.m.n.c c c c c c c c c o.p.q.r.s.t.u.v.w.x.y.z.A.            ",
"B.C.D.E.F.G.H.2.n l.I.C.J.K.L.M.N.O.P.Q.R.S.T.U.V.W.            ",
"X.8.Y.Z.`. +.+++@+#+$+%+&+*+=+-+;+>+,+'+)+!+~+{+]+^+            ",
"/+(+_+:+<+[+}+|+1+2+3+4+5+6+7+8+9+0+a+b+c+d+e+f+g+h+            ",
"i+j+k+l+m+n+o+p+q+r+s+t+u+v+w+x+y+z+A+B+C+D+E+F+G+H+            ",
"I+J+K+L+M+N+O+_+P+Q+R+S+T+U+V+W+X+Y+Z+`+ @.@+@@@#@$@            ",
"%@n.++|+c c c &@*@=@-@;@>@,@'@)@!@~@{@]@^@/@(@_@:@<@            ",
"[@}@o+1+c c |@1@2@3@4@5@6@7@8@9@0@a@b@c@d@e@f@g@h@i@            ",
"j@O+p+q+k@l@m@n@o@p@q@r@s@t@u@v@w@x@y@z@A@B@C@D@E@F@            ",
"G@6.H@I@J@K@L@M@N@O@P@Q@R@S@T@U@V@W@X@Y@Z@^ `@ #.#+#            ",
"@#:+4+##$#%#&#*#=#-#;#>#,#'#)#!#~#{#]#/ ^#/#(#_#:#<#            ",
"[#}#|#1#2#3#4#5#6#7#8#& & & 9#0#a#b#c#d#e#f#g#h#i#j#            ",
"k#++l#m#p@n#o#p#q#r#s#& & 9#t#u#v#w#x#y#z#A#B#C#D#E#            ",
"F#G#H#I#J#K#L#M#N#O#P#Q#R#S#T#U#V#/#W#X#A#Y#Z#`# $.$            ",
"+$@$#$$$%$&$*$=$-$;$>$,$'$)$!$~${$]$^$/$($_$:$<$[$E#            ",
"}$|$1$2$3$4$5$6$7$8$9$0$a$b$c$d$e$f$g$h$d#i$j$k$l$m$            ",
"n$o$p$q$r$s$t$u$v$w$x$y${ z$A$B$C$D$b$^#d$E$F$G$H$I$            ",
"J$K$L$M$N$O$P$Q$R$S$T$U$V$W$X$Y$Z$`$ %.%+%@%#%$%%%&%            ",
"  *%=%=.-%;%;%>%,%'%)%)%!%~%{%]%^%/%(%_%:%<%[%[%&%              ",
"                                                                ",
"                                                                ",
"                                                                "};
