/* XPM */
static char * fileopen_dis_xpm[] = {
"32 32 194 2",
"  	g None",
". 	g #888888",
"+ 	g #818181",
"@ 	g #8B8B8B",
"# 	g #919191",
"$ 	g #D0D0D0",
"% 	g #8D8D8D",
"& 	g #8C8C8C",
"* 	g #AAAAAA",
"= 	g #F1F1F1",
"- 	g #F7F7F7",
"; 	g #D6D6D6",
"> 	g #797979",
", 	g #8F8F8F",
"' 	g #969696",
") 	g #E0E0E0",
"! 	g #FBFBFB",
"~ 	g #EEEEEE",
"{ 	g #EBEBEB",
"] 	g #FFFFFF",
"^ 	g #A1A1A1",
"/ 	g #636363",
"( 	g #4B4B4B",
"_ 	g #484848",
": 	g #474747",
"< 	g #464646",
"[ 	g #454545",
"} 	g #444444",
"| 	g #434343",
"1 	g #424242",
"2 	g #909090",
"3 	g #B5B5B5",
"4 	g #FCFCFC",
"5 	g #F5F5F5",
"6 	g #EDEDED",
"7 	g #F4F4F4",
"8 	g #FDFDFD",
"9 	g #F9F9F9",
"0 	g #F6F6F6",
"a 	g #E9E9E9",
"b 	g #E5E5E5",
"c 	g #AEAEAE",
"d 	g #8E8E8E",
"e 	g #E2E2E2",
"f 	g #F3F3F3",
"g 	g #BFBFBF",
"h 	g #6D6D6D",
"i 	g #EAEAEA",
"j 	g #E8E8E8",
"k 	g #DFDFDF",
"l 	g #DCDCDC",
"m 	g #D9D9D9",
"n 	g #A7A7A7",
"o 	g #8A8A8A",
"p 	g #C7C7C7",
"q 	g #E6E6E6",
"r 	g #4A4A4A",
"s 	g #787878",
"t 	g #D8D8D8",
"u 	g #ACACAC",
"v 	g #A4A4A4",
"w 	g #FEFEFE",
"x 	g #ECECEC",
"y 	g #313131",
"z 	g #777777",
"A 	g #F8F8F8",
"B 	g #CBCBCB",
"C 	g #9D9D9D",
"D 	g #CFCFCF",
"E 	g #B3B3B3",
"F 	g #5D5D5D",
"G 	g #757575",
"H 	g #E1E1E1",
"I 	g #AFAFAF",
"J 	g #C8C8C8",
"K 	g #545454",
"L 	g #333333",
"M 	g #323232",
"N 	g #737373",
"O 	g #CACACA",
"P 	g #878787",
"Q 	g #7C7C7C",
"R 	g #7B7B7B",
"S 	g #7A7A7A",
"T 	g #414141",
"U 	g #2D2D2D",
"V 	g #727272",
"W 	g #F2F2F2",
"X 	g #B0B0B0",
"Y 	g #5C5C5C",
"Z 	g #D1D1D1",
"` 	g #B8B8B8",
" .	g #B4B4B4",
"..	g #B9B9B9",
"+.	g #929292",
"@.	g #373737",
"#.	g #707070",
"$.	g #747474",
"%.	g #717171",
"&.	g #6F6F6F",
"*.	g #6E6E6E",
"=.	g #6C6C6C",
"-.	g #6B6B6B",
";.	g #696969",
">.	g #515151",
",.	g #D4D4D4",
"'.	g #9E9E9E",
").	g #939393",
"!.	g #2A2A2A",
"~.	g #303030",
"{.	g #D2D2D2",
"].	g #494949",
"^.	g #C5C5C5",
"/.	g #D7D7D7",
"(.	g #D5D5D5",
"_.	g #D3D3D3",
":.	g #CDCDCD",
"<.	g #C6C6C6",
"[.	g #C4C4C4",
"}.	g #C1C1C1",
"|.	g #BDBDBD",
"1.	g #A2A2A2",
"2.	g #959595",
"3.	g #979797",
"4.	g #676767",
"5.	g #2E2E2E",
"6.	g #2C2C2C",
"7.	g #DEDEDE",
"8.	g #EFEFEF",
"9.	g #F0F0F0",
"0.	g #DDDDDD",
"a.	g #C9C9C9",
"b.	g #C0C0C0",
"c.	g #B6B6B6",
"d.	g #ADADAD",
"e.	g #A3A3A3",
"f.	g #9A9A9A",
"g.	g #404040",
"h.	g #242424",
"i.	g #202020",
"j.	g #BCBCBC",
"k.	g #BBBBBB",
"l.	g #686868",
"m.	g #616161",
"n.	g #565656",
"o.	g #3F3F3F",
"p.	g #2F2F2F",
"q.	g #282828",
"r.	g #232323",
"s.	g #858585",
"t.	g #5E5E5E",
"u.	g #575757",
"v.	g #4E4E4E",
"w.	g #343434",
"x.	g #252525",
"y.	g #E7E7E7",
"z.	g #C3C3C3",
"A.	g #9B9B9B",
"B.	g #808080",
"C.	g #666666",
"D.	g #393939",
"E.	g #3B3B3B",
"F.	g #3C3C3C",
"G.	g #5B5B5B",
"H.	g #FAFAFA",
"I.	g #C2C2C2",
"J.	g #BABABA",
"K.	g #7D7D7D",
"L.	g #3E3E3E",
"M.	g #646464",
"N.	g #CCCCCC",
"O.	g #505050",
"P.	g #DBDBDB",
"Q.	g #ABABAB",
"R.	g #A0A0A0",
"S.	g #272727",
"T.	g #838383",
"U.	g #6A6A6A",
"V.	g #606060",
"W.	g #3A3A3A",
"X.	g #DADADA",
"Y.	g #1D1D1D",
"Z.	g #5F5F5F",
"`.	g #A9A9A9",
" +	g #4F4F4F",
".+	g #E4E4E4",
"++	g #292929",
"@+	g #989898",
"#+	g #262626",
"$+	g #E3E3E3",
"%+	g #595959",
"&+	g #626262",
"*+	g #5A5A5A",
"=+	g #2B2B2B",
"                                                                ",
"                                                                ",
"                                        . +                     ",
"                                    @ # $ %                     ",
"                                  & * = - ; >                   ",
"                              , ' ) ! ~ { ] ^ /                 ",
"  ( _ : < [ } | | 1         2 3 4 5 = ~ { 6 7 +                 ",
"  > 8 9 0 = 6 a b c ( 1 d ^ e 8 5 f = ~ { a 0 g h               ",
"  > 9 i j b e k l m n o p 8 4 9 5 f = ~ { a q ] , r             ",
"  s 9 i j b e k t u v i ] w ! 9 5 f = ~ { a q x e h y           ",
"  z A i j b e B C D ] ] ] w ! 9 5 f = ~ { a q q 9 E F           ",
"  G 0 i j H c I f ] ] ] ] w ! 9 5 f = ~ { J 2 , # ' K L y M y   ",
"  N 7 i j t ^ ] ] ] ] ] ] w ! 9 5 f = ~ O [ h o P P . Q R S T U ",
"  V W i j b X D ] ] ] ] ] w ! 9 5 f = e Y s Z `  . ...v +.P @.  ",
"  #.= i j b . Y s s G $.N %.&.*.=.-.;.>.> ,.'.+.# # ).' F !.~.  ",
"  *.~ i j {.].^.B /.(._.Z :.O <.[.}.|.^.; 1.2.# # +.3.4.5.6.!.  ",
"  h x i j ^ =.8 7.8.! - 9.q 0._.a.b.c.d.e.f.+.# @ $.g.6.h.U i.  ",
"  -.i i j Y j.! 8.{.A 7 { H D k.c ' . Q #.l.m.n.o.p.q.r.h.5.    ",
"  ;.j i B : 0 - W l ; i D ..u '.+.s.z ;.t.u.v.@.w.~.x.r.q.!.    ",
"  4.y.i d + 4 5 9.H |.z.g  .n A.d B.N C.F ].D.E.F.~.x.r.!.x.    ",
"  C.b i G.k.H.~ l $ I.c J.I v 3.o K.%.F } 1 | L.F.~.x.r.6.      ",
"  M.e N.O.5 { P.,.N.z.c Q.d.R.).P S G.: r ].| L.F.~.x.S.!.      ",
"  / H T.& { e 7.t Z a.|.e.u ^ 2.P U.V.G.n.>.( < } W.5.!.h.      ",
"  V.k v.O ] ] ] ] 4 - f 8.i q e k X.; {.:.a.^.}.|...3 @.Y.      ",
"  Z.`. +] ] ] ] ] w H.5 = x j .+H 0.t ,.D B p z.b.k.A.++        ",
"  t.G @+] ] ] ] ] ] 4 - f 8.i q e k X.; {.:.a.[.}.|.*.#+        ",
"  Y ].$+] ] ] ] ] ] 8 H.5 = x j .+) 0.t ,.D B p z.g o.Y.        ",
"  E.%+] ] ] ] ] ] ] ] ! W { $+l ,.N.[.j.3 d.n v 1.3.S.          ",
"  F.( &.&.h =.-.-.;.l.C.&+Z.F *+u.K L.U 6.=+!.++q.S.x.          ",
"                                                                ",
"                                                                ",
"                                                                "};
