/* XPM */
static char * filesave_dis_xpm[] = {
"32 32 216 2",
"  	g None",
". 	g #B0B0B0",
"+ 	g #ABABAB",
"@ 	g #A5A5A5",
"# 	g #A6A6A6",
"$ 	g #A2A2A2",
"% 	g #9E9E9E",
"& 	g #999999",
"* 	g #959595",
"= 	g #919191",
"- 	g #8C8C8C",
"; 	g #888888",
"> 	g #838383",
", 	g #7E7E7E",
"' 	g #7A7A7A",
") 	g #757575",
"! 	g #727272",
"~ 	g #6D6D6D",
"{ 	g #686868",
"] 	g #646464",
"^ 	g #5F5F5F",
"/ 	g #5A5A5A",
"( 	g #464646",
"_ 	g #353535",
": 	g #ECECEC",
"< 	g #E8E8E8",
"[ 	g #E6E6E6",
"} 	g #FFFFFF",
"| 	g #D7D7D7",
"1 	g #BEBEBE",
"2 	g #B9B9B9",
"3 	g #474747",
"4 	g #ACACAC",
"5 	g #E5E5E5",
"6 	g #DBDBDB",
"7 	g #D8D8D8",
"8 	g #242424",
"9 	g #393939",
"0 	g #414141",
"a 	g #484848",
"b 	g #9F9F9F",
"c 	g #9C9C9C",
"d 	g #898989",
"e 	g #1E1E1E",
"f 	g #A7A7A7",
"g 	g #E2E2E2",
"h 	g #D4D4D4",
"i 	g #2E2E2E",
"j 	g #666666",
"k 	g #747474",
"l 	g #9B9B9B",
"m 	g #989898",
"n 	g #222222",
"o 	g #A3A3A3",
"p 	g #DFDFDF",
"q 	g #D0D0D0",
"r 	g #333333",
"s 	g #7C7C7C",
"t 	g #8A8A8A",
"u 	g #979797",
"v 	g #949494",
"w 	g #737373",
"x 	g #202020",
"y 	g #DDDDDD",
"z 	g #CFCFCF",
"A 	g #CDCDCD",
"B 	g #929292",
"C 	g #A0A0A0",
"D 	g #AEAEAE",
"E 	g #939393",
"F 	g #858585",
"G 	g #6A6A6A",
"H 	g #9A9A9A",
"I 	g #D9D9D9",
"J 	g #CCCCCC",
"K 	g #C9C9C9",
"L 	g #8F8F8F",
"M 	g #BCBCBC",
"N 	g #C6C6C6",
"O 	g #D1D1D1",
"P 	g #777777",
"Q 	g #636363",
"R 	g #1D1D1D",
"S 	g #969696",
"T 	g #D6D6D6",
"U 	g #C8C8C8",
"V 	g #C5C5C5",
"W 	g #FDFDFD",
"X 	g #E7E7E7",
"Y 	g #767676",
"Z 	g #5E5E5E",
"` 	g #1B1B1B",
" .	g #D3D3D3",
"..	g #C4C4C4",
"+.	g #C1C1C1",
"@.	g #DEDEDE",
"#.	g #DCDCDC",
"$.	g #D5D5D5",
"%.	g #D2D2D2",
"&.	g #CECECE",
"*.	g #CBCBCB",
"=.	g #707070",
"-.	g #6C6C6C",
";.	g #585858",
">.	g #1A1A1A",
",.	g #8D8D8D",
"'.	g #C0C0C0",
").	g #BDBDBD",
"!.	g #BABABA",
"~.	g #B7B7B7",
"{.	g #B4B4B4",
"].	g #B1B1B1",
"^.	g #A8A8A8",
"/.	g #848484",
"(.	g #787878",
"_.	g #6F6F6F",
":.	g #6B6B6B",
"<.	g #535353",
"[.	g #181818",
"}.	g #B6B6B6",
"|.	g #B3B3B3",
"1.	g #ADADAD",
"2.	g #AAAAAA",
"3.	g #A4A4A4",
"4.	g #A1A1A1",
"5.	g #878787",
"6.	g #6E6E6E",
"7.	g #696969",
"8.	g #656565",
"9.	g #616161",
"0.	g #4E4E4E",
"a.	g #171717",
"b.	g #B8B8B8",
"c.	g #B5B5B5",
"d.	g #AFAFAF",
"e.	g #A9A9A9",
"f.	g #9D9D9D",
"g.	g #868686",
"h.	g #7F7F7F",
"i.	g #717171",
"j.	g #606060",
"k.	g #5C5C5C",
"l.	g #161616",
"m.	g #808080",
"n.	g #C7C7C7",
"o.	g #B2B2B2",
"p.	g #C3C3C3",
"q.	g #5B5B5B",
"r.	g #575757",
"s.	g #434343",
"t.	g #151515",
"u.	g #7B7B7B",
"v.	g #FCFCFC",
"w.	g #F2F2F2",
"x.	g #EBEBEB",
"y.	g #E3E3E3",
"z.	g #565656",
"A.	g #525252",
"B.	g #3E3E3E",
"C.	g #131313",
"D.	g #C2C2C2",
"E.	g #F8F8F8",
"F.	g #EEEEEE",
"G.	g #EAEAEA",
"H.	g #515151",
"I.	g #4D4D4D",
"J.	g #121212",
"K.	g #FEFEFE",
"L.	g #F3F3F3",
"M.	g #EDEDED",
"N.	g #E9E9E9",
"O.	g #E1E1E1",
"P.	g #DADADA",
"Q.	g #BFBFBF",
"R.	g #BBBBBB",
"S.	g #4C4C4C",
"T.	g #111111",
"U.	g #444444",
"V.	g #313131",
"W.	g #101010",
"X.	g #CACACA",
"Y.	g #404040",
"Z.	g #2D2D2D",
"`.	g #0F0F0F",
" +	g #8E8E8E",
".+	g #3F3F3F",
"++	g #3B3B3B",
"@+	g #292929",
"#+	g #0E0E0E",
"$+	g #909090",
"%+	g #3A3A3A",
"&+	g #383838",
"*+	g #252525",
"=+	g #0D0D0D",
"-+	g #828282",
";+	g #373737",
">+	g #343434",
",+	g #212121",
"'+	g #0C0C0C",
")+	g #818181",
"!+	g #303030",
"~+	g #505050",
"{+	g #2F2F2F",
"]+	g #2C2C2C",
"^+	g #0B0B0B",
"/+	g #4B4B4B",
"(+	g #282828",
"_+	g #0A0A0A",
":+	g #8B8B8B",
"<+	g #191919",
"[+	g #090909",
"}+	g #262626",
"|+	g #2B2B2B",
"1+	g #2A2A2A",
"2+	g #272727",
"3+	g #232323",
"                                                                ",
"                                                                ",
"                                                                ",
"        . + @ # $ % & * = - ; > , ' ) ! ~ { ] ^ / ( _           ",
"      . : < [ } } | | | | } } } } } } } } } } } } 1 2 3         ",
"      4 5 6 7 } } 8 9 0 a } } } } } } } } } } } } b c d e       ",
"      f g | h } } i j k > } } } } } } } } } } } } l m > n       ",
"      o p h q } } r s t m } } } } } } } } } } } } u v w x       ",
"      % y z A } } a B C D } } } } } } } } } } } } E F G e       ",
"      H I J K } } L M N O } } } } } } } } } } } } > P Q R       ",
"      S T U V } } } } } } } } } } } } } } } } W X Y ! Z `       ",
"      =  ...+.@.#.6 I 7 T $. .%.O z &.J *.K ... @ =.-.;.>.      ",
"      ,.O '.).!.~.{.].D + ^.@ $ b c & S = /.(.k _.:.j <.[.      ",
"      ; A M 2 }.|.. 1.2.f 3.4.% l m B 5.s P w 6.7.8.9.0.a.      ",
"      /.*.b.c.|.d.4 e.# o C f.S L g.h.' Y i.~ { ] j.k.a l.      ",
"      m.n.c.o.p.+.1 M !.{.4 o b H * = ,.d /.m.s (.q.r.s.t.      ",
"      u.V ].1.} } } v.w.x.X y.p #.I $.O A K V +.).z.A.B.C.      ",
"      P D.4 2.} } E.F.G.[ g @.6 7  .q J U ..'.M 2 H.I.9 J.      ",
"      ! 1 e.# K.L.M.N.5 O.y P.T %.&.*.n.p.Q.R.b.{.S.a _ T.      ",
"      ~ M @ 4.w.Q.M 2 }.|.. 1.2.f 3.C f.H u v = d.3 U.V.W.      ",
"      7.2 4.u G.#.7 $.O A X.N D.Q.M b.{.. 1.e.@ 2.s.Y.Z.`.      ",
"      ] }.m  +[ J X.N p.Q.M b.c.].D 2.f 3.C f.H # .+++@+#+      ",
"      j.].,.; O.).!.~.{.. D + f 3.4.f.H u E $+,.4.%+&+*+=+      ",
"      q.^.g.-+#.I $.O A K V +.).!.~.|.d.+ f 3.C c ;+>+,+'+      ",
"      z.C m.u.7 + ^.# $ b c & S E $+,.t ; F )+, u r !+e '+      ",
"      ~+l ' )  ...+.1 !.}.|.d.+ ^.3.C f.H u E $+E {+]+` ^+      ",
"      /+S k =.&.X.N D.1 !.~.|.d.4 ^.3.4.f.& S B  +]+(+a._+      ",
"      s.g.^ / + ^.3.4.% H u v =  +:+; F )+, u.P k <+a.T.[+      ",
"        >+}+x {+]+]+|+1+@+(+(+2+2+}+*+*+8 3+n n ,+_+_+[+        ",
"                                                                ",
"                                                                ",
"                                                                "};
