/* XPM */
static char * fileopen_xpm[] = {
"32 32 473 2",
"  	c None",
". 	c #7F85B8",
"+ 	c #767FB1",
"@ 	c #8189B9",
"# 	c #878FBE",
"$ 	c #CBCFE6",
"% 	c #828BBC",
"& 	c #818AB9",
"* 	c #A2A9CD",
"= 	c #F0F1FA",
"- 	c #F7F7FE",
"; 	c #D2D5E9",
"> 	c #6D77AC",
", 	c #858DBB",
"' 	c #8C94C0",
") 	c #DDDFEF",
"! 	c #FBFBFF",
"~ 	c #EDEDF9",
"{ 	c #EAEAF6",
"] 	c #FFFFFF",
"^ 	c #979FC9",
"/ 	c #596190",
"( 	c #0A56C2",
"_ 	c #0953BF",
": 	c #0851BE",
"< 	c #0850BD",
"[ 	c #074FBC",
"} 	c #074EBC",
"| 	c #064DBB",
"1 	c #054BBA",
"2 	c #868EBC",
"3 	c #AEB4D4",
"4 	c #FBFCFF",
"5 	c #F5F5FD",
"6 	c #F0F0FA",
"7 	c #ECECF7",
"8 	c #F3F4FC",
"9 	c #757EB5",
"0 	c #4982D4",
"a 	c #FBFFFF",
"b 	c #EBFFFF",
"c 	c #E7FCFF",
"d 	c #DFF9FF",
"e 	c #D8F5FF",
"f 	c #D2F2FF",
"g 	c #CAEFFF",
"h 	c #83B8F1",
"i 	c #0F54C1",
"j 	c #1349A4",
"k 	c #868BB7",
"l 	c #989FC7",
"m 	c #DFE1F0",
"n 	c #FDFDFF",
"o 	c #F3F3FC",
"p 	c #E8E8F5",
"q 	c #F6F6FE",
"r 	c #B9BEDD",
"s 	c #606AA4",
"t 	c #4881D4",
"u 	c #EDFFFF",
"v 	c #CFF5FF",
"w 	c #CBF3FF",
"x 	c #C7F1FF",
"y 	c #C2EDFF",
"z 	c #BEEBFF",
"A 	c #B8E8FF",
"B 	c #B4E6FF",
"C 	c #84AEE2",
"D 	c #7A8ABE",
"E 	c #C1C6DE",
"F 	c #FCFCFF",
"G 	c #F9F9FF",
"H 	c #E5E5F3",
"I 	c #838CC0",
"J 	c #2C4C98",
"K 	c #4880D3",
"L 	c #B6E3FF",
"M 	c #9AAFD6",
"N 	c #9CA2C8",
"O 	c #E8EAF5",
"P 	c #FEFEFF",
"Q 	c #EBEBF7",
"R 	c #DFE1F2",
"S 	c #5C6BAE",
"T 	c #053596",
"U 	c #467FD3",
"V 	c #EAFEFF",
"W 	c #B0D2F2",
"X 	c #929CC4",
"Y 	c #CBCEE3",
"Z 	c #ABB2D5",
"` 	c #4D5B98",
" .	c #457DD2",
"..	c #E7FDFF",
"+.	c #C3EBFF",
"@.	c #9FAFD3",
"#.	c #A8ADCD",
"$.	c #F2F3FB",
"%.	c #BDC9E9",
"&.	c #7194D5",
"*.	c #7192D4",
"=.	c #7295D5",
"-.	c #7899D8",
";.	c #2F56B0",
">.	c #05389B",
",.	c #0036A4",
"'.	c #0036A8",
").	c #0034A7",
"!.	c #437BD2",
"~.	c #E3FBFF",
"{.	c #BDE0FB",
"].	c #99A0C4",
"^.	c #BECBEB",
"/.	c #0D4DBA",
"(.	c #3D75CE",
"_.	c #6190DD",
":.	c #5D8EDD",
"<.	c #5D8EDC",
"[.	c #5E8EDC",
"}.	c #5282D5",
"|.	c #4F81D5",
"1.	c #4E80D4",
"2.	c #0B47B6",
"3.	c #002F9D",
"4.	c #407AD1",
"5.	c #E0FAFF",
"6.	c #9FB2D6",
"7.	c #CACEE3",
"8.	c #DEE2F4",
"9.	c #2B62C3",
"0.	c #4A7FD4",
"a.	c #B4D8FF",
"b.	c #8DC1FF",
"c.	c #87BEFF",
"d.	c #8DC3FF",
"e.	c #76ADF9",
"f.	c #5F9CEF",
"g.	c #568FE7",
"h.	c #003DB1",
"i.	c #3E79D1",
"j.	c #DDF9FF",
"k.	c #5892DD",
"l.	c #2964C1",
"m.	c #4881D3",
"n.	c #4780D3",
"o.	c #467DD2",
"p.	c #457CD1",
"q.	c #447ACF",
"r.	c #4378CE",
"s.	c #4077CD",
"t.	c #3F75CC",
"u.	c #3E72CB",
"v.	c #3D71CA",
"w.	c #3B6FC9",
"x.	c #1D58BF",
"y.	c #4C80D4",
"z.	c #B7DBFF",
"A.	c #64AAFF",
"B.	c #529FFF",
"C.	c #509EFF",
"D.	c #52A0FF",
"E.	c #56A3FF",
"F.	c #1C66DF",
"G.	c #0027B1",
"H.	c #0032AC",
"I.	c #3C77CF",
"J.	c #D9F6FF",
"K.	c #AEDDFF",
"L.	c #0954C2",
"M.	c #AEC9F0",
"N.	c #BACEEF",
"O.	c #C7DBF6",
"P.	c #C3D8F6",
"Q.	c #BFD8F5",
"R.	c #BAD6F5",
"S.	c #B6D3F4",
"T.	c #B2CFF4",
"U.	c #ADCCF3",
"V.	c #AACAF3",
"W.	c #A5C7F3",
"X.	c #A1C3F2",
"Y.	c #AACAF7",
"Z.	c #BADDFF",
"`.	c #6BAEFF",
" +	c #57A2FF",
".+	c #519FFF",
"++	c #58A5FF",
"@+	c #326DE0",
"#+	c #032CB7",
"$+	c #002BAF",
"%+	c #002C98",
"&+	c #3A75CF",
"*+	c #D6F5FF",
"=+	c #73ACE9",
"-+	c #3675CF",
";+	c #FAFFFF",
">+	c #D8DFF1",
",+	c #E8F1FB",
"'+	c #F3FFFF",
")+	c #E6FFFF",
"!+	c #D8FAFF",
"~+	c #CBF0FF",
"{+	c #BDE7FF",
"]+	c #AFDEFF",
"^+	c #A2D4FF",
"/+	c #95CBFF",
"(+	c #86C2FF",
"_+	c #79B9FF",
":+	c #6CAFFF",
"<+	c #5EA6FF",
"[+	c #4D96FA",
"}+	c #3D7BE9",
"|+	c #123FC3",
"1+	c #0029B5",
"2+	c #001DAF",
"3+	c #002DAB",
"4+	c #002177",
"5+	c #3873CE",
"6+	c #D3F3FF",
"7+	c #2067CB",
"8+	c #A1C1ED",
"9+	c #F2FFFF",
"0+	c #E1F4FF",
"a+	c #C6D5EA",
"b+	c #EAFFFF",
"c+	c #DFFEFF",
"d+	c #D2F5FF",
"e+	c #ADD9FF",
"f+	c #92C4FE",
"g+	c #81B7FC",
"h+	c #649EF5",
"i+	c #5490F3",
"j+	c #4583F0",
"k+	c #3877EC",
"l+	c #306DE6",
"m+	c #2B65DF",
"n+	c #2758D4",
"o+	c #153DC2",
"p+	c #032CB8",
"q+	c #0023B3",
"r+	c #001BAE",
"s+	c #001EAD",
"t+	c #002FAA",
"u+	c #3572CE",
"v+	c #CFF2FF",
"w+	c #A6D5FB",
"x+	c #0752C1",
"y+	c #EDF9FF",
"z+	c #EBFDFF",
"A+	c #DFFAFF",
"B+	c #C6E3F9",
"C+	c #BFDDF2",
"D+	c #D1F4FF",
"E+	c #90C2FD",
"F+	c #80B4FA",
"G+	c #70A6F7",
"H+	c #6199F4",
"I+	c #518CF1",
"J+	c #427DED",
"K+	c #306FEA",
"L+	c #2563E3",
"M+	c #215ADD",
"N+	c #1D4FD3",
"O+	c #0936C0",
"P+	c #0632BE",
"Q+	c #002EC0",
"R+	c #001EB2",
"S+	c #0025AD",
"T+	c #002BA0",
"U+	c #3370CD",
"V+	c #CCF1FF",
"W+	c #5D98E0",
"X+	c #5389D6",
"Y+	c #F7FFFF",
"Z+	c #E6FCFF",
"`+	c #C1EDFF",
" @	c #99C7F2",
".@	c #9CCCFE",
"+@	c #97C8FF",
"@@	c #89BDFC",
"#@	c #7AAFFA",
"$@	c #6CA3F6",
"%@	c #5C96F3",
"&@	c #4C87F1",
"*@	c #3C79EC",
"=@	c #2B6CE9",
"-@	c #2462E3",
";@	c #134CD4",
">@	c #053AC7",
",@	c #073CC9",
"'@	c #073DCA",
")@	c #002FC1",
"!@	c #0028AA",
"~@	c #00258D",
"{@	c #316FCD",
"]@	c #C8EFFF",
"^@	c #1F65C9",
"/@	c #A0C0EC",
"(@	c #F0FFFF",
"_@	c #BAE8FF",
":@	c #A6DDFF",
"<@	c #97CDFF",
"[@	c #85B7F3",
"}@	c #91C3FE",
"|@	c #84B8FC",
"1@	c #76ACFA",
"2@	c #669FF6",
"3@	c #5791F3",
"4@	c #4784F0",
"5@	c #3877ED",
"6@	c #2163E6",
"7@	c #0947D5",
"8@	c #0745D3",
"9@	c #0946D4",
"0@	c #0840CD",
"a@	c #002CA8",
"b@	c #2F6DCC",
"c@	c #C4EDFF",
"d@	c #AAD6FB",
"e@	c #155AC3",
"f@	c #EBF9FF",
"g@	c #D4F3FF",
"h@	c #B8E7FF",
"i@	c #ADE1FF",
"j@	c #A2D9FF",
"k@	c #96CFFF",
"l@	c #81B8F6",
"m@	c #7FB4F6",
"n@	c #80B6FC",
"o@	c #70A8F9",
"p@	c #629BF5",
"q@	c #528EF3",
"r@	c #4381F0",
"s@	c #1F62E2",
"t@	c #084DDB",
"u@	c #0950DF",
"v@	c #0A4EDC",
"w@	c #083FCC",
"x@	c #0022AD",
"y@	c #0029A3",
"z@	c #2C6CCC",
"A@	c #C1ECFF",
"B@	c #518DDB",
"C@	c #6592D9",
"D@	c #D6F2FF",
"E@	c #C8EBFF",
"F@	c #C1E8FF",
"G@	c #B9E2FF",
"H@	c #AFDBFF",
"I@	c #A5D2FF",
"J@	c #95C6FD",
"K@	c #7AAAF0",
"L@	c #83B4F9",
"M@	c #76A8F5",
"N@	c #689CF2",
"O@	c #588DED",
"P@	c #386FE0",
"Q@	c #2865E0",
"R@	c #2061E3",
"S@	c #1F5ADC",
"T@	c #1E53D4",
"U@	c #1D4CCB",
"V@	c #1B45C4",
"W@	c #1A43C3",
"X@	c #1038BC",
"Y@	c #082AB1",
"Z@	c #0028A9",
"`@	c #00238F",
" #	c #2A69CB",
".#	c #BEEAFF",
"+#	c #1158C2",
"@#	c #B7CDF1",
"##	c #F7F7FC",
"$#	c #F3F3F9",
"%#	c #EFEFF5",
"&#	c #EAEAF2",
"*#	c #E6E6EF",
"=#	c #E2E2EB",
"-#	c #DEDEE9",
";#	c #D9D9E6",
">#	c #D5D5E2",
",#	c #D1D1DF",
"'#	c #CCCCDC",
")#	c #C8C8D8",
"!#	c #C4C4D5",
"~#	c #C0C0D2",
"{#	c #BCBCCE",
"]#	c #B7B7CC",
"^#	c #B3B3C9",
"/#	c #083AAA",
"(#	c #001C74",
"_#	c #2868CB",
":#	c #7AB4F1",
"<#	c #1458C1",
"[#	c #FAFAFD",
"}#	c #F5F5FA",
"|#	c #F1F1F6",
"1#	c #ECECF4",
"2#	c #E8E8F1",
"3#	c #E3E3ED",
"4#	c #E0E0EA",
"5#	c #DCDCE7",
"6#	c #D7D7E3",
"7#	c #D3D3E0",
"8#	c #CECEDD",
"9#	c #CACADB",
"0#	c #C6C6D7",
"a#	c #C1C1D4",
"b#	c #BEBED1",
"c#	c #B9B9CD",
"d#	c #909AC3",
"e#	c #0027A5",
"f#	c #2667CA",
"g#	c #3D80D8",
"h#	c #769EDD",
"i#	c #FCFCFE",
"j#	c #E1E1EB",
"k#	c #DEDEE8",
"l#	c #C3C3D5",
"m#	c #BFBFD2",
"n#	c #536FB8",
"o#	c #00249A",
"p#	c #2465CA",
"q#	c #0C52C0",
"r#	c #D7E5FA",
"s#	c #ECECF3",
"t#	c #DFDFEA",
"u#	c #CACAD9",
"v#	c #C6C6D6",
"w#	c #BDBDD1",
"x#	c #1442AC",
"y#	c #001B78",
"z#	c #0043B7",
"A#	c #2361C4",
"B#	c #FBFBFD",
"C#	c #F2F3F5",
"D#	c #EAEBEF",
"E#	c #E2E3E8",
"F#	c #DBDCE0",
"G#	c #D3D4D9",
"H#	c #CBCCD3",
"I#	c #C2C4CB",
"J#	c #BABDC4",
"K#	c #B3B5BE",
"L#	c #ABADB6",
"M#	c #A4A8B0",
"N#	c #A2A4AE",
"O#	c #9FA2AC",
"P#	c #9198AA",
"Q#	c #0025A3",
"R#	c #0044B8",
"S#	c #1253BF",
"T#	c #4276CC",
"U#	c #4275CC",
"V#	c #4073CB",
"W#	c #4072CA",
"X#	c #3F71CA",
"Y#	c #3F70C9",
"Z#	c #3D6FC8",
"`#	c #3C6DC7",
" $	c #3A6BC4",
".$	c #3867C2",
"+$	c #3464BF",
"@$	c #3261BD",
"#$	c #305EBA",
"$$	c #2C5BB8",
"%$	c #2A58B5",
"&$	c #0D43AE",
"*$	c #002EA9",
"=$	c #002AA6",
"-$	c #0029A6",
";$	c #0026A4",
">$	c #00239C",
"                                                                ",
"                                                                ",
"                                        . +                     ",
"                                    @ # $ %                     ",
"                                  & * = - ; >                   ",
"                              , ' ) ! ~ { ] ^ /                 ",
"  ( _ : < [ } | | 1         2 3 4 5 6 ~ { 7 8 9                 ",
"  0 a b c d e f g h i j k l m n 5 o 6 ~ { p q r s               ",
"  t u v w x y z A B C D E n F G 5 o 6 ~ { p H ] I J             ",
"  K u v w x y z L M N O ] P ! G 5 o 6 ~ { p H Q R S T           ",
"  U V v w x y W X Y ] ] ] P ! G 5 o 6 ~ { p H H G Z `           ",
"   ...v w +.@.#.$.] ] ] ] P ! G 5 o 6 ~ { %.&.*.=.-.;.>.,.'.).  ",
"  !.~.v w {.].] ] ] ] ] ] P ! G 5 o 6 ~ ^./.(._.:.<.[.}.|.1.2.3.",
"  4.5.v w x 6.7.] ] ] ] ] P ! G 5 o 6 8.9.0.a.b.c.c.d.e.f.g.h.  ",
"  i.j.v w x k.l.m.n.o.p.q.r.s.t.u.v.w.x.y.z.A.B.C.C.D.E.F.G.H.  ",
"  I.J.v w K.L.M.N.O.P.Q.R.S.T.U.V.W.X.Y.Z.`. +C.C..+++@+#+$+%+  ",
"  &+*+v w =+-+;+>+,+'+)+!+~+{+]+^+/+(+_+:+<+B.C.[+}+|+1+2+3+4+  ",
"  5+6+v w 7+8+9+0+a+b+c+d++.e+f+g+h+i+j+k+l+m+n+o+p+q+r+s+t+    ",
"  u+v+v w+x+y+z+A+B+C+D+e+E+F+G+H+I+J+K+L+M+N+O+P+Q+R+r+S+T+    ",
"  U+V+v W+X+Y+Z+!+`+ @.@+@@@#@$@%@&@*@=@-@;@>@,@'@)@R+r+!@~@    ",
"  {@]@v ^@/@(@J._@:@<@[@}@|@1@2@3@4@5@6@7@8@9@0@'@)@R+r+a@      ",
"  b@c@d@e@f@g@h@i@j@k@l@m@n@o@p@q@r@s@t@u@v@9@w@'@)@R+x@y@      ",
"  z@A@B@C@D@E@F@G@H@I@J@K@L@M@N@O@P@Q@R@S@T@U@V@W@X@Y@Z@`@      ",
"   #.#+#@#] ] ] ] F ##$#%#&#*#=#-#;#>#,#'#)#!#~#{#]#^#/#(#      ",
"  _#:#<#] ] ] ] ] P [#}#|#1#2#3#4#5#6#7#8#9#0#a#b#c#d#e#        ",
"  f#g#h#] ] ] ] ] ] i###$#%#&#*#j#k#;#>#,#'#)#l#m#{#n#o#        ",
"  p#q#r#] ] ] ] ] ] n [#}#|#s#2#3#t#5#6#7#8#u#v#a#w#x#y#        ",
"  z#A#] ] ] ] ] ] ] ] B#C#D#E#F#G#H#I#J#K#L#M#N#O#P#Q#          ",
"  R#S#T#U#V#W#X#Y#Z#`# $.$+$@$#$$$%$&$*$a@=$-$e#;$Q#>$          ",
"                                                                ",
"                                                                ",
"                                                                "};
