/* XPM */
static char * quit_xpm[] = {
"32 32 75 1",
" 	c None",
".	c #BDBDBD",
"+	c #BFBFBF",
"@	c #C0C0C0",
"#	c #C1C1C1",
"$	c #C3C3C3",
"%	c #C4C4C4",
"&	c #C5C5C5",
"*	c #C7C7C7",
"=	c #BCBCBC",
"-	c #C8C8C8",
";	c #C9C9C9",
">	c #CBCBCB",
",	c #BBBBBB",
"'	c #CCCCCC",
")	c #CDCDCD",
"!	c #CFCFCF",
"~	c #D0D0D0",
"{	c #D1D1D1",
"]	c #9D9D9D",
"^	c #757575",
"/	c #595959",
"(	c #4A4A4A",
"_	c #5A5A5A",
":	c #777777",
"<	c #A3A3A3",
"[	c #D3D3D3",
"}	c #D4D4D4",
"|	c #A9A9A9",
"1	c #676767",
"2	c #494949",
"3	c #6A6A6A",
"4	c #B5B5B5",
"5	c #D5D5D5",
"6	c #D7D7D7",
"7	c #9C9C9C",
"8	c #575757",
"9	c #8C8C8C",
"0	c #B2B2B2",
"a	c #C6C6C6",
"b	c #8F8F8F",
"c	c #585858",
"d	c #4B4B4B",
"e	c #A8A8A8",
"f	c #D8D8D8",
"g	c #797979",
"h	c #7E7E7E",
"i	c #B9B9B9",
"j	c #D9D9D9",
"k	c #DBDBDB",
"l	c #7F7F7F",
"m	c #6C6C6C",
"n	c #DCDCDC",
"o	c #D2D2D2",
"p	c #ACACAC",
"q	c #DDDDDD",
"r	c #DFDFDF",
"s	c #959595",
"t	c #7D7D7D",
"u	c #E0E0E0",
"v	c #5C5C5C",
"w	c #E1E1E1",
"x	c #E3E3E3",
"y	c #E4E4E4",
"z	c #5D5D5D",
"A	c #E5E5E5",
"B	c #999999",
"C	c #E7E7E7",
"D	c #B3B3B3",
"E	c #E8E8E8",
"F	c #848484",
"G	c #6F6F6F",
"H	c #E9E9E9",
"I	c #B4B4B4",
"J	c #EBEBEB",
"                                ",
"                                ",
"                                ",
"            .+@#$%&*            ",
"          =.+@#$%&*-;>          ",
"        ,=.+@#$%&*-;>')!        ",
"       ,=.+@#$%&*-;>')!~{       ",
"      ,=.+@#]^/((_:<)!~{[}      ",
"     ,=.+@|12222222234{[}56     ",
"     =.+@7(2890a-4bc2de}56f     ",
"    =.+@|(2g%-;>')!)h2di6fjk    ",
"    .+@#12g*-;>22!~{[l2mfjkn    ",
"   .+@#]28%-;>'22~{[}o/2pknqr   ",
"   +@#$^29-;>')22{[}56s2tnqru   ",
"   @#$%/20;>')!22[}56f@2vqruw   ",
"   #$%&(2a>')!~22}56fjf2druwx   ",
"   $%&*(2-')!~{2256fjkj2duwxy   ",
"   %&*-_24)!~{[226fjkn$2zwxyA   ",
"   &*-;:2b!~{[}22fjknqB2lxyAC   ",
"   *-;><2c){[}522jknqn_2DyACE   ",
"    ;>')32h[}5622knqrF2GyACE    ",
"    >')!4d2lo6fjknqnF2d&ACEH    ",
"     )!~{ed2/s@fj$B_2dIACEH     ",
"     !~{[}im22222222G&ACEHJ     ",
"      {[}56fptvddzlDyACEHJ      ",
"       }56fjknqruwxyACEHJ       ",
"        6fjknqruwxyACEHJ        ",
"          knqruwxyACEH          ",
"            ruwxyACE            ",
"                                ",
"                                ",
"                                "};
