/* XPM */
static const char *newpoint_xpm[] = {
/* columns rows colors chars-per-pixel */
"16 15 3 1",
"X c Black",
". c #FFFF00",
"  c #C0C0C0",
/* pixels */
"       .        ",
"   .   .   .    ",
"    .  .  .     ",
"     . . .      ",
"                ",
"  ... XXXX ...  ",
"      XXXX      ",
"XXXXXXXXXXXXXXXX",
"      XXXX      ",
"      XXXX      ",
"                ",
"                ",
"                ",
"                ",
"                "
};
