/* XPM */
static const char *prev_btn_xpm[] = {
/* columns rows colors chars-per-pixel */
"8 12 3 1",
"  c black",
". c None",
"X c #e0e0e0",
/* pixels */
"........",
".....X..",
"....X ..",
"...X  ..",
"..X   ..",
".X    ..",
".     ..",
"..    ..",
"...   ..",
"....  ..",
"..... ..",
"........"
};
