/* XPM */
static char *yin_yang[] = {
/* width height num_colors chars_per_pixel */
"    48    48        3            1",
/* colors */
". c None",
"a c #000000",
"# c #ffffff",
/* pixels */
"....................#########...................",
"................####aaaa#########...............",
"..............##aaaaaaaaaaaa#######.............",
"............##aaaaaaaaaaaaaaaa#######...........",
"...........#aaaaaaaaaaaaaaaaaaaa######..........",
".........##aaaaaaaaaaaaaaaaaaaaaa#######........",
"........#aaaaaaaaaaaaaaaaaaaaaaaa########.......",
".......#aaaaaaaaaaaaaaaaaaaaaaaaaa########......",
"......#aaaaaaaaaaaaaaaaaaaaaaaaaaa#########.....",
"......#aaaaaaaaaaaaaaaaaaaaaaaaaaaa########.....",
".....#aaaaaaaaaaaaaaaaa###aaaaaaaaa#########....",
"....#aaaaaaaaaaaaaaaaa#####aaaaaaaa##########...",
"....#aaaaaaaaaaaaaaaaa#####aaaaaaaa##########...",
"...#aaaaaaaaaaaaaaaaaa#####aaaaaaaa###########..",
"...#aaaaaaaaaaaaaaaaaaa###aaaaaaaaa###########..",
"..#aaaaaaaaaaaaaaaaaaaaaaaaaaaaaaaa############.",
"..#aaaaaaaaaaaaaaaaaaaaaaaaaaaaaaa#############.",
"..#aaaaaaaaaaaaaaaaaaaaaaaaaaaaaaa#############.",
"..#aaaaaaaaaaaaaaaaaaaaaaaaaaaaaa##############.",
".#aaaaaaaaaaaaaaaaaaaaaaaaaaaaaaa###############",
".#aaaaaaaaaaaaaaaaaaaaaaaaaaaaaa################",
".#aaaaaaaaaaaaaaaaaaaaaaaaaaaa##################",
".#aaaaaaaaaaaaaaaaaaaaaaaaaa####################",
".#aaaaaaaaaaaaaaaaaaa###########################",
".#aaaaaaaaaaaaaaaaa#############################",
".#aaaaaaaaaaaaaaa###############################",
".#aaaaaaaaaaaaaa################################",
".#aaaaaaaaaaaaa#################################",
"..#aaaaaaaaaaaa################################.",
"..#aaaaaaaaaaa#################################.",
"..#aaaaaaaaaaa#################################.",
"..#aaaaaaaaaa##################################.",
"...#aaaaaaaaa##########aaa####################..",
"...#aaaaaaaaa#########aaaaa###################..",
"....#aaaaaaaa#########aaaaa##################...",
"....#aaaaaaaa#########aaaaa##################...",
".....#aaaaaaa##########aaa##################....",
"......#aaaaaa##############################.....",
"......#aaaaaaa#############################.....",
".......#aaaaaa############################......",
"........#aaaaaa##########################.......",
".........##aaaa#########################........",
"...........#aaaa######################..........",
"............##aaa####################...........",
"..............##aaa#################............",
"................####a############...............",
"....................#########...................",
"................................................"
};
