/* XPM */
static char * group_xpm[] = {
"48 48 65 1",
" 	c None",
".	c #2D0E02",
"+	c #4A4E9A",
"@	c #665E16",
"#	c #6E78BB",
"$	c #8D070D",
"%	c #8489B9",
"&	c #959DCF",
"*	c #17A419",
"=	c #AB090D",
"-	c #A79EAE",
";	c #A9B1DB",
">	c #7C5D40",
",	c #19C11E",
"'	c #BF1515",
")	c #7A7EBA",
"!	c #C0C4E1",
"~	c #985D43",
"{	c #39D43D",
"]	c #2B2C80",
"^	c #9E827F",
"/	c #BE3333",
"(	c #80180C",
"_	c #B36040",
":	c #89DB89",
"<	c #F32525",
"[	c #CACDE9",
"}	c #D1D4E9",
"|	c #AC1414",
"1	c #4B56A7",
"2	c #B17E66",
"3	c #48E44B",
"4	c #B3B9DD",
"5	c #5A8A22",
"6	c #D03D3A",
"7	c #D69F84",
"8	c #7D2804",
"9	c #4C54A2",
"0	c #D55754",
"a	c #59B759",
"b	c #FB3A3A",
"c	c #C2BBCB",
"d	c #454796",
"e	c #CF7155",
"f	c #16F51A",
"g	c #F7C9A2",
"h	c #D48272",
"i	c #7171AD",
"j	c #AA3D25",
"k	c #80D282",
"l	c #4F2410",
"m	c #0D8708",
"n	c #E6B896",
"o	c #FCD7B9",
"p	c #95350D",
"q	c #E64A4A",
"r	c #61D162",
"s	c #3EA63B",
"t	c #5961A9",
"u	c #EC0F0F",
"v	c #39FC3D",
"w	c #40C23D",
"x	c #7A3D23",
"y	c #76D477",
"z	c #CE635A",
"                                                ",
"                                                ",
"                                                ",
"                                                ",
"                                                ",
"             dtttt+]                            ",
"           t&!}}}}[4&9]       pp8               ",
"         +&[[!!!!c!ccc%]  j_e77n772~x           ",
"        9&44;;;;;;-;--;%xe7ooo}og}gc7~l         ",
"       ]%;&&;&&&&&%&%%%_hggnnnnnncnncc2l        ",
"      ]1%%%%%&%%)%)))ijhn7nn7n7777777-7^l       ",
"      ]1#########iittxz777h777777-h-2-^^>l      ",
"     ]]+ttt#%#1t1119xjhhhhhhhhhee2222_2~ill     ",
"     ]]]d1-ggc1++dddxjeeeeeeeeeee__~~>>>>l.     ",
"     ]]]d-gggg^]]]]]8j__00ehz____~~~x~xxxl.l    ",
"     ]]+ngggggg%d]]lppjje7gg7jjjjjpxxxlxl...    ",
"     ]innggggggon-^x88p_nggggepjxxp88llll...    ",
"      nngngggggggggj(8_ngggggn_p888llll...ll    ",
"      nnnggggoooooo2x2ggngggggg7_>xxxx>>27n     ",
"      nngnggogogooognngngggggggooggnnggoogg     ",
"       nngggogoooooonnnggggggoggooooooggogg     ",
"       nnngggooooooognnnggggogogogoogoooggn     ",
"        nnggooooooooonnngggoooooooooooooog^     ",
"         ngggoooooooogngggoggoooooooooooog      ",
"          nggooooooooonngggooooooooooooooi      ",
"            n}oooooon52nngggoooooooooooo-       ",
"             s{r3y{s    gggoooooooooooo-        ",
"            *,3::y{,*    ngoooooooooog^         ",
"          m*r:::::::w*    -cgoooooo};           ",
"          *rkyyy:yy::w*     |6eeeqp             ",
"         mskryyyryyrykwm  $=/qeheq'=            ",
"        m*karrrryrrrrrr,@$=0h7hhh7h0=$          ",
"        maaarrr33rrrrrr{l|zhhhhhhhhhz=          ",
"       m*aawr33333333335$zhhzheeeeeeh_=         ",
"       msaw{333vvvvv3va$jezzzzzzzezzze6$        ",
"      mmsww{3vvvvvvvvv@|_zzzzzzzzzzzzzz|        ",
"      mms,{fvvvvvvvvva$j_000q0qqq0q00006=       ",
"      m**,{fvvvvvvvvv@$~jjqqqqqqqqqqqqqq'       ",
"     mm**{fffvvvvvvv3(|j666qbqqbqbbbbbq6<=      ",
"     mm*,,ffvvvvvvvv5$j///6bbbbbbqbbbbbb<u      ",
"                    ($p//<<<bbbbbbbbbb<<<u$     ",
"                    $$|''<<<bbbbbqbbbbb<<u=     ",
"                    $(|''u<<<bbbbbbbbb<<<uu     ",
"                   $$$''uu<<bbbbbbbb<b<<<uu     ",
"                                                ",
"                                                ",
"                                                ",
"                                                "};
