/* XPM */
static char *awxtest_xpm[] = {
/* columns rows colors chars-per-pixel */
"32 32 213 2",
"   c black",
".  c #041433",
"X  c #071936",
"o  c #062A6F",
"O  c #092C70",
"+  c #0B3278",
"@  c #193E6B",
"#  c #103674",
"$  c #143E7D",
"%  c #1D4C6A",
"&  c #1B457A",
"*  c #0C3A90",
"=  c #0B3C9A",
"-  c #103B85",
";  c #0A3FA4",
":  c #0D46B3",
">  c #1549A0",
",  c #1249AC",
"<  c #154FB1",
"1  c #1450BD",
"2  c #215BAA",
"3  c #225EB1",
"4  c #215FB9",
"5  c #356D9B",
"6  c #2563B2",
"7  c #2A6ABB",
"8  c #2F7CB8",
"9  c #3476BC",
"0  c #0D4CC5",
"q  c #0D4CCA",
"w  c #1655C1",
"e  c #1253CD",
"r  c #1C5DC3",
"t  c #1057D3",
"y  c #105BD3",
"u  c #0E62D6",
"i  c #0B61DB",
"p  c #0D6BDF",
"a  c #0B74DB",
"s  c #1268DB",
"d  c #1A62D4",
"f  c #137BDD",
"g  c #187CDE",
"h  c #006FFF",
"j  c #097AE9",
"k  c #0573FE",
"l  c #0078FF",
"z  c #1676E0",
"x  c #107DE7",
"c  c #1278E9",
"v  c #2067D7",
"b  c #236CD9",
"n  c #2D73CA",
"m  c #2471DB",
"M  c #2B74D4",
"N  c #2971D9",
"B  c #2D78D1",
"V  c #2D7CD9",
"C  c #347DD3",
"Z  c #307BDC",
"A  c #2A7EE0",
"S  c #3183B5",
"D  c #3181BF",
"F  c #358CB7",
"G  c #3A9ABD",
"H  c #1480DF",
"J  c #078FE7",
"K  c #0D8CE3",
"L  c #0B8EEF",
"P  c #0083FF",
"I  c #048FFE",
"U  c #0D87FB",
"Y  c #0C8AF0",
"T  c #0597F7",
"R  c #0095FE",
"E  c #009BFF",
"W  c #0C9FFE",
"Q  c #1288E2",
"!  c #1B86E3",
"~  c #1B8AE3",
"^  c #1780FD",
"/  c #148BFB",
"(  c #1292E5",
")  c #1394EA",
"_  c #1B9DF1",
"`  c #07A3EA",
"'  c #05AAED",
"]  c #03A6F6",
"[  c #00A1FF",
"{  c #00AAFE",
"}  c #0BA5FB",
"|  c #05B6F7",
" . c #00B3FE",
".. c #00BBFE",
"X. c #0AB1F6",
"o. c #09B1F9",
"O. c #0EBFF5",
"+. c #09B9F9",
"@. c #14A9ED",
"#. c #10A6F2",
"$. c #14A4FF",
"%. c #14A9FF",
"&. c #18A5F0",
"*. c #1FA6FD",
"=. c #1CA8FC",
"-. c #13B3F4",
";. c #14B3FF",
":. c #10BEF6",
">. c #13BCFE",
",. c #1BB9F5",
"<. c #1AB9FE",
"1. c #2F80DE",
"2. c #3F85C6",
"3. c #3680D7",
"4. c #3481D9",
"5. c #3488D6",
"6. c #3E89D4",
"7. c #3F8CD9",
"8. c #3794CB",
"9. c #3793D7",
"0. c #3A98DE",
"q. c #2283E3",
"w. c #2885E2",
"e. c #2B8BE5",
"r. c #298DF8",
"t. c #2990E7",
"y. c #2E97E9",
"u. c #2394F5",
"i. c #2498F2",
"p. c #2991F8",
"a. c #3383E2",
"s. c #358DE6",
"d. c #3C8DE5",
"f. c #3592E9",
"g. c #3498EC",
"h. c #3F93E3",
"j. c #3C94E9",
"k. c #25A8EF",
"l. c #28A3ED",
"z. c #23A3F2",
"x. c #20A4FA",
"c. c #28ACFF",
"v. c #23BDF5",
"b. c #29B7FC",
"n. c #2EBDFB",
"m. c #32A6EF",
"M. c #3FA5EE",
"N. c #30A7F8",
"B. c #32AEFD",
"V. c #3CA5F4",
"C. c #34B0F7",
"Z. c #34B0FE",
"A. c #00C4FE",
"S. c #01CAFE",
"D. c #0BC3F6",
"F. c #0DC4F9",
"G. c #0EC8FC",
"H. c #00D2FE",
"J. c #00DAFE",
"K. c #0BD5FC",
"L. c #10C6FC",
"P. c #1CC8F8",
"I. c #14D4FC",
"U. c #00E1FF",
"Y. c #2FC3F8",
"T. c #2DCAFA",
"R. c #31C6F9",
"E. c #408CD5",
"W. c #428FD9",
"Q. c #4693D9",
"!. c #4192E8",
"~. c #419DE4",
"^. c #439BED",
"/. c #499BE4",
"(. c #4A9EEC",
"). c #449FF1",
"_. c #48BFDF",
"`. c #40A7E5",
"'. c #45A1EE",
"]. c #4EA3EF",
"[. c #48AAEB",
"{. c #47A4F6",
"}. c #4FA5F0",
"|. c #49ABF4",
" X c #44B5E8",
".X c #46B8EB",
"XX c #44B4F6",
"oX c #45BBF6",
"OX c #50A7ED",
"+X c #50A6F0",
"@X c #54ACF2",
"#X c #56B1F3",
"$X c #50BBF7",
"%X c #53BCF9",
"&X c #5AB4F5",
"*X c #5DB8F7",
"=X c #5DBBF8",
"-X c #60BBF8",
";X c #4AC5EE",
":X c #4FC5F3",
">X c #4CC8F2",
",X c #52C2FF",
"<X c #52D7F8",
"1X c #54DEF6",
"2X c #57E5FE",
"3X c #58E6FE",
"4X c #63C2FA",
"5X c #66C9FF",
"6X c #6ACBFE",
"7X c #63D3FE",
"8X c #61DBFF",
"9X c gray100",
"0X c None",
/* pixels */
"0X0X0X0X0X0X0X*X*X&X&X@X0X0X}.}.0X0X0X0X0X0X0X0X0X0X0X0X0X0X0X0X",
"0X0X0X0X0X0X0X*X$XT.R.@X5 0X].].].(.0X0X0X0X0X0X0X0X0X0X0X0X0X0X",
"0X0X0X0X=X0X0X&X=.U.U.Y.OXOX].I.P.M.6.0X0X0X0X0X0X0X0X0X0X0X0X0X",
"0X0X0X-X=X*X&X&X/ J.U.U.J.I.P.U.U.v.7.  0X0X0X0X0X0X0X0X0X0X0X0X",
"0X0X=X=XI.I.oXoXJ.J.J.J.D.-.D.F.J.K.m.d.d.d.d.0X0X0X0X0X0X0X0X0X",
"0X0X=Xb.J.J.J.J.J.H.( M N M B Z a.l.G.,.j.k.y.C 0X0X0X0X0X0X0X0X",
"0X0X*X^ R S.H.H.S.m N B B B B B B 4.h.m.H.H.H.e.n 0X0X0X0X0X0X0X",
"0X0X&X^ h ..H.H.! V 5.5.5.5.5.5.5.5.5.h.(.G.D.e.&   0X0X0X0X0X0X",
"0X0X&X{.k S.S.A.N 0.9.D 8 D 5.0.0.0.0.0.~.[.G.e.6   0X0X0X0X0X0X",
"&X&X#X@XC.S.S.X.1.S           % 8.`.`.`.`.[.XX+.V 3 0X0X0X0X0X0X",
"&XXXA.A.S.A.A.o.M     0X0X0X0X0X  F  X.X.X.X#Xn.#.q.N m 0X0X0X0X",
"#Xc...........o.B   0X0X0X0X0X0X0X0XG ;X>X>X:X=X......m $ 0X0X0X",
"@Xp..... .......e.@ 0X0X0X0X0X0X0X0X0X_.<X<X<X,X>.....) r   0X0X",
"@Xr.P P R {  . ._ C   0X0X0X0X0X0X0X0X0X1X2X2X7X<...E c r   0X0X",
"OXr.l l l P  . .{ f.9 0X0X0X0X0X0X0X0X0X3X3X3X7X<. .Y d X   0X0X",
"OX).p./ U P [ { { } ^.6.0X0X0X0X0X0X0X0X0X3X3X6X;.{ z >     0X0X",
"]./.2.Q.^.R R { { { } (.Q.0X0X0X0X0X0X0X0X3X8X,X{ { L d w 0X0X0X",
"0X      E.i.[ [ [ [ [ } V.OX#X0X0X0X0X0X0X7X6X%.[ [ [ T s 1 0X0X",
"0X0X0X0X!.i.[ [ [ E [ [ [ *.|.*X-X4X4X6X6X,X%.[ [ [ [ [ j ,   0X",
"0X0X0X!.g.E E E E E E E E R R } x.B.B.c.%.E R E E [ { E p *   0X",
"0X0X0X!.z...E R R [  .E R R R R R R R R R R R R E ....] t O   0X",
"0X0X0Xd.-.....E ..A.A.A. .R R R R R R R R R R R [ A.| y =     0X",
"0X0X0Xd.s.F.H.H.&.&.S.H.S. .R R R R R R R R R R j y u =     0X0X",
"0X0X0X0XC s.O.e.M n w.D.J...R R R R J.J.J...R R R t :     0X0X0X",
"0X0X0X0X0Xn a.7     2 m @...R R R E U.U.U.U.{ R R i ;   0X0X0X0X",
"0X0X0X0X0X0X      0X0X6 ~ A.R R R x H f J.J.J.{ J 0 .   0X0X0X0X",
"0X0X0X0X0X0X0X0X0X0X0Xb ~ U.U.J.| d - 1 K U.U.' q .     0X0X0X0X",
"0X0X0X0X0X0X0X0X0X0X0Xb ~ U.U.J.f ,   + e ` a q o     0X0X0X0X0X",
"0X0X0X0X0X0X0X0X0X0X0Xv v f ( Q w     0Xe 0 =       0X0X0X0X0X0X",
"0X0X0X0X0X0X0X0X0X0X0X0X  # > < X   0X0X0X      0X0X0X0X0X0X0X0X",
"0X0X0X0X0X0X0X0X0X0X0X0X0X0X        0X0X0X0X0X0X0X0X0X0X0X0X0X0X",
"0X0X0X0X0X0X0X0X0X0X0X0X0X0X0X0X0X0X0X0X0X0X0X0X0X0X0X0X0X0X0X0X"
};
