/* XPM */
static char * disconnect_dis_xpm[] = {
"32 32 55 1",
" 	g None",
".	g #E1E1E1",
"+	g #BABABA",
"@	g #E2E2E2",
"#	g #C9C9C9",
"$	g #919191",
"%	g #CACACA",
"&	g #3E3E3E",
"*	g #000000",
"=	g #FFFFFF",
"-	g #C2C2C2",
";	g #010101",
">	g #CBCBCB",
",	g #DEDEDE",
"'	g #DCDCDC",
")	g #DDDDDD",
"!	g #818181",
"~	g #BCBCBC",
"{	g #DFDFDF",
"]	g #0F0F0F",
"^	g #595959",
"/	g #E0E0E0",
"(	g #E4E4E4",
"_	g #AFAFAF",
":	g #616161",
"<	g #5A5A5A",
"[	g #898989",
"}	g #7E7E7E",
"|	g #DBDBDB",
"1	g #696969",
"2	g #A7A7A7",
"3	g #7F7F7F",
"4	g #BDBDBD",
"5	g #C6C6C6",
"6	g #A3A3A3",
"7	g #C8C8C8",
"8	g #626262",
"9	g #999999",
"0	g #848484",
"a	g #080808",
"b	g #0A0A0A",
"c	g #686868",
"d	g #444444",
"e	g #676767",
"f	g #5C5C5C",
"g	g #D3D3D3",
"h	g #040404",
"i	g #050505",
"j	g #CCCCCC",
"k	g #0B0B0B",
"l	g #0E0E0E",
"m	g #DADADA",
"n	g #131313",
"o	g #060606",
"p	g #D7D7D7",
"                                ",
"                                ",
"                                ",
"                                ",
"                                ",
"                                ",
"                                ",
"                                ",
"                  .+            ",
"                 @#$            ",
"                @%$&            ",
"           **  @%$&             ",
"          *=-;@>$&              ",
"         *=,,-*$&      .#       ",
"        *=,,,,-*      @#$       ",
"       *=,,,,,,-*    @#$&       ",
"      *=,''),,,,-*  @#$&        ",
"      *!~{{,,,@,,-]@#$&         ",
"      *^!~).,)/@(,-*$&          ",
"      *^^!~,{,,,,,,-*           ",
"      *^^^!~/{,,,,',_*          ",
"       *^:<[~,.,/',_!*          ",
"        ;}|1!~,.',23!*          ",
"        *4=5^!~,,6!!^*          ",
"       *4=728<!~90!^a           ",
"      b4=|cdef^^!!^*            ",
"     *4=gchi;^^^!^*             ",
"    *4=jck   l^^^b              ",
"   h4=mcn     ***               ",
"  o4=pc*                        ",
" *4=4co                         ",
"                                "};
