/* XPM */
static char * filesaveas_dis_xpm[] = {
"32 32 212 2",
"  	g None",
". 	g #A0A0A0",
"+ 	g #B8B8B8",
"@ 	g #999999",
"# 	g #6D6D6D",
"$ 	g #C8C8C8",
"% 	g #EDEDED",
"& 	g #F2F2F2",
"* 	g #E9E9E9",
"= 	g #A9A9A9",
"- 	g #606060",
"; 	g #A4A4A4",
"> 	g #D7D7D7",
", 	g #D0D0D0",
"' 	g #DEDEDE",
") 	g #B0B0B0",
"! 	g #ABABAB",
"~ 	g #A5A5A5",
"{ 	g #A6A6A6",
"] 	g #A2A2A2",
"^ 	g #9E9E9E",
"/ 	g #959595",
"( 	g #919191",
"_ 	g #8C8C8C",
": 	g #888888",
"< 	g #838383",
"[ 	g #7E7E7E",
"} 	g #7A7A7A",
"| 	g #757575",
"1 	g #7D7D7D",
"2 	g #BFBFBF",
"3 	g #C3C3C3",
"4 	g #BCBCBC",
"5 	g #BBBBBB",
"6 	g #BEBEBE",
"7 	g #949494",
"8 	g #ECECEC",
"9 	g #E8E8E8",
"0 	g #E6E6E6",
"a 	g #FFFFFF",
"b 	g #C9C9C9",
"c 	g #ACACAC",
"d 	g #7F7F7F",
"e 	g #474747",
"f 	g #E5E5E5",
"g 	g #DBDBDB",
"h 	g #D8D8D8",
"i 	g #242424",
"j 	g #393939",
"k 	g #414141",
"l 	g #484848",
"m 	g #F3F3F3",
"n 	g #B9B9B9",
"o 	g #C5C5C5",
"p 	g #BDBDBD",
"q 	g #BABABA",
"r 	g #909090",
"s 	g #8D8D8D",
"t 	g #898989",
"u 	g #1E1E1E",
"v 	g #A7A7A7",
"w 	g #E2E2E2",
"x 	g #D4D4D4",
"y 	g #2E2E2E",
"z 	g #666666",
"A 	g #747474",
"B 	g #C6C6C6",
"C 	g #D3D3D3",
"D 	g #C0C0C0",
"E 	g #B3B3B3",
"F 	g #828282",
"G 	g #989898",
"H 	g #222222",
"I 	g #A3A3A3",
"J 	g #DFDFDF",
"K 	g #333333",
"L 	g #7C7C7C",
"M 	g #8A8A8A",
"N 	g #F9F9F9",
"O 	g #C1C1C1",
"P 	g #CBCBCB",
"Q 	g #C2C2C2",
"R 	g #ADADAD",
"S 	g #737373",
"T 	g #202020",
"U 	g #DDDDDD",
"V 	g #CFCFCF",
"W 	g #CDCDCD",
"X 	g #929292",
"Y 	g #AEAEAE",
"Z 	g #D2D2D2",
"` 	g #C4C4C4",
" .	g #878787",
"..	g #939393",
"+.	g #858585",
"@.	g #6A6A6A",
"#.	g #9A9A9A",
"$.	g #D9D9D9",
"%.	g #CCCCCC",
"&.	g #8F8F8F",
"*.	g #D1D1D1",
"=.	g #DCDCDC",
"-.	g #C7C7C7",
";.	g #B5B5B5",
">.	g #777777",
",.	g #636363",
"'.	g #1D1D1D",
").	g #969696",
"!.	g #D6D6D6",
"~.	g #B7B7B7",
"{.	g #E7E7E7",
"].	g #767676",
"^.	g #727272",
"/.	g #5E5E5E",
"(.	g #1B1B1B",
"_.	g #D5D5D5",
":.	g #E0E0E0",
"<.	g #AFAFAF",
"[.	g #707070",
"}.	g #6C6C6C",
"|.	g #585858",
"1.	g #1A1A1A",
"2.	g #B4B4B4",
"3.	g #B1B1B1",
"4.	g #A8A8A8",
"5.	g #CECECE",
"6.	g #6F6F6F",
"7.	g #6B6B6B",
"8.	g #535353",
"9.	g #181818",
"0.	g #B6B6B6",
"a.	g #AAAAAA",
"b.	g #A1A1A1",
"c.	g #B2B2B2",
"d.	g #E4E4E4",
"e.	g #6E6E6E",
"f.	g #696969",
"g.	g #656565",
"h.	g #616161",
"i.	g #4E4E4E",
"j.	g #171717",
"k.	g #848484",
"l.	g #686868",
"m.	g #646464",
"n.	g #5C5C5C",
"o.	g #161616",
"p.	g #808080",
"q.	g #CACACA",
"r.	g #787878",
"s.	g #5B5B5B",
"t.	g #575757",
"u.	g #434343",
"v.	g #151515",
"w.	g #7B7B7B",
"x.	g #FCFCFC",
"y.	g #EBEBEB",
"z.	g #565656",
"A.	g #525252",
"B.	g #3D3D3D",
"C.	g #121212",
"D.	g #F8F8F8",
"E.	g #EEEEEE",
"F.	g #EAEAEA",
"G.	g #343434",
"H.	g #111111",
"I.	g #FEFEFE",
"J.	g #E1E1E1",
"K.	g #E3E3E3",
"L.	g #454545",
"M.	g #424242",
"N.	g #303030",
"O.	g #101010",
"P.	g #DADADA",
"Q.	g #8E8E8E",
"R.	g #868686",
"S.	g #3E3E3E",
"T.	g #2C2C2C",
"U.	g #0F0F0F",
"V.	g #979797",
"W.	g #F1F1F1",
"X.	g #9F9F9F",
"Y.	g #9C9C9C",
"Z.	g #3A3A3A",
"`.	g #292929",
" +	g #0E0E0E",
".+	g #8B8B8B",
"++	g #363636",
"@+	g #252525",
"#+	g #0D0D0D",
"$+	g #353535",
"%+	g #0C0C0C",
"&+	g #323232",
"*+	g #797979",
"=+	g #313131",
"-+	g #505050",
";+	g #9B9B9B",
">+	g #2F2F2F",
",+	g #0B0B0B",
"'+	g #4B4B4B",
")+	g #282828",
"!+	g #0A0A0A",
"~+	g #5F5F5F",
"{+	g #5A5A5A",
"]+	g #818181",
"^+	g #191919",
"/+	g #090909",
"(+	g #262626",
"_+	g #2B2B2B",
":+	g #2A2A2A",
"<+	g #272727",
"[+	g #232323",
"}+	g #212121",
"                                    . + @ #                     ",
"                                    $ % & * = -                 ",
"                                  ; > , ' & & =                 ",
"  ) ! ~ { ] ^ @ / ( _ : < [ } | 1 2 > 3 4 5 6 7                 ",
") 8 9 0 a a > > > > a a a a a a b > , 4 4 ) c d e               ",
"c f g h a a i j k l a a a a a m n > o p q c r s t u             ",
"v w > x a a y z A < a a a a a B C x D 2 E c F G < H             ",
"I J x , a a K L M G a a a a N O h P Q 2 R @ F 7 S T             ",
"^ U V W a a l X . Y a a a a V Z h o ` n )  ...+.@.u             ",
"#.$.%.b a a &.4 B *.a a a N 4 =., -.o ;.= 3 < >.,.'.            ",
").!.$ o a a a a a a a a a g !.U P b O ~.M {.].^./.(.            ",
"( C ` O ' =.g $.h !._.C Z 5 :.!.%.P p <.: ~ [.}.|.1.            ",
"s *.D p q ~.2.3.Y ! 4.~ I Z w , 5.b 2 M S 6.7.z 8.9.            ",
": W 4 n 0.E ) R a.v ; b.c.d.U *., o 4 e.e.f.g.h.i.j.            ",
"k.P + ;.E <.c = { I . . , f > C 5.-...7.l.m.- n.l o.            ",
"p.-.;.c.3 O 6 4 q 2.c R 9 w > !.5.q.A p.L r.s.t.u.v.            ",
"w.o 3.R a a a x.& y.J , * U $.!.V ; 5 o O p z.A.B.C.            ",
">.Q c a.a a D.E.F.0 B 8 9 =.g !.Z : ` D 4 n i.e G.H.            ",
"^.6 = { I.m % * f J.o % K.' =.!.= a.2 n <.; L.M.N.O.            ",
"# 4 ~ b.& 2 4 n 0.E B % J.:.U P.Q.).s R.< ^ k S.T.U.            ",
"f.n b.V.F.=.h _.*.W D W.F.w ' 6 M X.Y.@ ).#.B.Z.`. +            ",
"m.0.G Q.0 %.q.B 3 c.b & & & > w.G 7 ( Q..+).j ++@+#+            ",
"- 3.s : J.p q ~.2.~ 5.& & > w.Q..+: +.F d ( $+K H %+            ",
"s.4.R.F =.$._.*.W 2.r 5.6 t ~ ] ^ #.V.7 ( Q.&+N.T %+            ",
"z.. p.w.h ! 4.{ ] X : p.*++.F p.1 w.r.| ^.s =+N.u %+            ",
"-+;+} | C ` O 6 q . S  .#.G / X &..+M M Q...>+T.(.,+            ",
"'+).A [.5.q.B Q 6 <.Y.a.{ I . Y./ ).G ).X Q.T.)+j.!+            ",
"u.R.~+{+! 4.; b.^ #.V.7 ( Q..+: +.]+[ w.>.A ^+j.H./+            ",
"  G.(+T >+T.T._+:+`.)+)+<+<+(+@+@+i [+H H }+!+!+/+              ",
"                                                                ",
"                                                                ",
"                                                                "};
