/* XPM */
static char * settings_xpm[] = {
"32 32 284 2",
"  	c None",
". 	c #C8C9D1",
"+ 	c #CBCBD4",
"@ 	c #CECED6",
"# 	c #C7C8D0",
"$ 	c #CACBD1",
"% 	c #BDBDC8",
"& 	c #EBEBEF",
"* 	c #FFFFFF",
"= 	c #F0F0F3",
"- 	c #D1D1DA",
"; 	c #C1C1CA",
"> 	c #D6D6D6",
", 	c #BABAC5",
"' 	c #F1F1F4",
") 	c #E9E9ED",
"! 	c #B9BAC4",
"~ 	c #D3D4D4",
"{ 	c #B5B6C2",
"] 	c #EFEFF2",
"^ 	c #FEFEFE",
"/ 	c #E5E5EA",
"( 	c #B3B4BE",
"_ 	c #B0B1BE",
": 	c #ECECEF",
"< 	c #FBFBFC",
"[ 	c #C3C3CF",
"} 	c #D2D3D3",
"| 	c #A8A8B8",
"1 	c #E2E2E8",
"2 	c #A8A9B4",
"3 	c #B3B3C0",
"4 	c #B1B1C1",
"5 	c #C0C0C5",
"6 	c #BABAC8",
"7 	c #F5F5F7",
"8 	c #FCFCFC",
"9 	c #EDEDF1",
"0 	c #A2A3B1",
"a 	c #ACACBB",
"b 	c #AEAEBE",
"c 	c #BEBEC4",
"d 	c #BFBFC9",
"e 	c #B4B4C3",
"f 	c #F6F6F8",
"g 	c #A3A3B3",
"h 	c #A9AAB9",
"i 	c #EEEEF1",
"j 	c #ECECF0",
"k 	c #A8A8B9",
"l 	c #BCBDC2",
"m 	c #BCBDC6",
"n 	c #ADADBE",
"o 	c #EAEAEE",
"p 	c #F0F0F4",
"q 	c #E1E1E7",
"r 	c #9B9BAD",
"s 	c #9FA0B1",
"t 	c #A0A0B3",
"u 	c #A1A2B0",
"v 	c #A7A7B9",
"w 	c #E4E4E9",
"x 	c #D3D3DC",
"y 	c #8F8FA1",
"z 	c #AFAFBB",
"A 	c #C5C5D0",
"B 	c #E5E5EB",
"C 	c #E6E6EC",
"D 	c #DEDEE5",
"E 	c #B3B3C2",
"F 	c #DEDEE4",
"G 	c #E6E6EB",
"H 	c #E6E6EA",
"I 	c #BCBCCA",
"J 	c #90909E",
"K 	c #9696AB",
"L 	c #D8D8E0",
"M 	c #E0E0E7",
"N 	c #E0E0E6",
"O 	c #CACAD5",
"P 	c #9797AC",
"Q 	c #ABABB5",
"R 	c #9FA0AE",
"S 	c #ACACBD",
"T 	c #D5D5DD",
"U 	c #DCDCE2",
"V 	c #DBDBE2",
"W 	c #C9C9D4",
"X 	c #B9B9C7",
"Y 	c #BDBDCA",
"Z 	c #D1D1DB",
"` 	c #9492A3",
" .	c #CB984F",
"..	c #DDA12E",
"+.	c #D1B181",
"@.	c #8A8A9E",
"#.	c #A3A3B6",
"$.	c #C8C8D3",
"%.	c #D6D6DE",
"&.	c #CCCCD6",
"*.	c #C1C1CE",
"=.	c #C5C5D1",
"-.	c #CCCAD0",
";.	c #D3A058",
">.	c #EAC635",
",.	c #FAEC3A",
"'.	c #DEAA30",
").	c #CEAE7F",
"!.	c #9090A1",
"~.	c #7F7F99",
"{.	c #A1A1B4",
"].	c #B7B7C5",
"^.	c #BBBBC8",
"/.	c #B8B8C6",
"(.	c #B8B8C7",
"_.	c #CDCDD7",
":.	c #D4D1D6",
"<.	c #CF9D58",
"[.	c #E8C133",
"}.	c #EAA91D",
"|.	c #E59012",
"1.	c #FAE336",
"2.	c #DBA52E",
"3.	c #CBAC7F",
"4.	c #898A9A",
"5.	c #76768E",
"6.	c #74748E",
"7.	c #73738C",
"8.	c #75758C",
"9.	c #72728A",
"0.	c #A9A9BA",
"a.	c #CFCFD9",
"b.	c #DAD8DB",
"c.	c #CD9C5A",
"d.	c #E6BB31",
"e.	c #ECAC1D",
"f.	c #EF8D0C",
"g.	c #FC940B",
"h.	c #EB9813",
"i.	c #FADE33",
"j.	c #D7A12D",
"k.	c #C9AA7F",
"l.	c #7B7B92",
"m.	c #A3A1B0",
"n.	c #C69657",
"o.	c #E3B62F",
"p.	c #EEAE1D",
"q.	c #F19611",
"r.	c #FF9F11",
"s.	c #FD9E11",
"t.	c #ED9E16",
"u.	c #FAD830",
"v.	c #D39C2C",
"w.	c #C7A87F",
"x.	c #A97941",
"y.	c #E1B12D",
"z.	c #F1B11D",
"A.	c #F39F15",
"B.	c #FFA917",
"C.	c #FDA817",
"D.	c #F0A518",
"E.	c #FAD42D",
"F.	c #D0972B",
"G.	c #C4A77E",
"H.	c #C3882A",
"I.	c #FBCF2B",
"J.	c #F6AE1B",
"K.	c #FFB31D",
"L.	c #FDB11D",
"M.	c #F2AB1A",
"N.	c #FACE2A",
"O.	c #CC922A",
"P.	c #C2A47E",
"Q.	c #C4AB8A",
"R.	c #C88E29",
"S.	c #FCCA28",
"T.	c #FFBF24",
"U.	c #FFBD24",
"V.	c #FEBB23",
"W.	c #F5B21C",
"X.	c #FBC928",
"Y.	c #C0A37E",
"Z.	c #C0A889",
"`.	c #C48928",
" +	c #FCC526",
".+	c #FFC728",
"++	c #FFC72A",
"@+	c #FEC428",
"#+	c #F8B81E",
"$+	c #FBC425",
"%+	c #BDA17E",
"&+	c #BFA689",
"*+	c #C08427",
"=+	c #FCC023",
"-+	c #FFCE2D",
";+	c #FFD130",
">+	c #FFD02E",
",+	c #FFC125",
"'+	c #FFBB22",
")+	c #FFBA22",
"!+	c #FCBC22",
"~+	c #C18427",
"{+	c #BCA182",
"]+	c #BDA589",
"^+	c #BD8026",
"/+	c #FBBB20",
"(+	c #FFD632",
"_+	c #FFDC36",
":+	c #FFC025",
"<+	c #FFB41E",
"[+	c #FFA715",
"}+	c #FFAC18",
"|+	c #FFB51E",
"1+	c #FCB61E",
"2+	c #B67A27",
"3+	c #C3B9AC",
"4+	c #B99F81",
"5+	c #B97B25",
"6+	c #FBB61E",
"7+	c #FFDE37",
"8+	c #FFE038",
"9+	c #FFAF1B",
"0+	c #FFAE1A",
"a+	c #FFA012",
"b+	c #FF960B",
"c+	c #FF9209",
"d+	c #FF9C0F",
"e+	c #FFB01A",
"f+	c #E19B1F",
"g+	c #AB8A64",
"h+	c #B59A7E",
"i+	c #B57724",
"j+	c #FBB11C",
"k+	c #FFD833",
"l+	c #FFA816",
"m+	c #FF9008",
"n+	c #FFA313",
"o+	c #FF8F07",
"p+	c #FFA916",
"q+	c #F6A718",
"r+	c #A0764A",
"s+	c #B2997E",
"t+	c #B27223",
"u+	c #FBA817",
"v+	c #FFA212",
"w+	c #FFAF1A",
"x+	c #FFB920",
"y+	c #FF8501",
"z+	c #FF940A",
"A+	c #FF970C",
"B+	c #FFA412",
"C+	c #F39E15",
"D+	c #9C734A",
"E+	c #B0977E",
"F+	c #AE6D21",
"G+	c #FB9B10",
"H+	c #FF9C0E",
"I+	c #FFC126",
"J+	c #FFAA18",
"K+	c #FF9F0E",
"L+	c #D18319",
"M+	c #9E8368",
"N+	c #AE957D",
"O+	c #AA6820",
"P+	c #FA940D",
"Q+	c #FF960C",
"R+	c #FF980C",
"S+	c #EF8F10",
"T+	c #97612D",
"U+	c #AFABA5",
"V+	c #AD9782",
"W+	c #9C6024",
"X+	c #D87E12",
"Y+	c #F48B0A",
"Z+	c #F18A0B",
"`+	c #CD7815",
" @	c #945E2D",
".@	c #A29589",
"+@	c #BEB6AD",
"@@	c #9A7C64",
"#@	c #8E6849",
"$@	c #8E694A",
"%@	c #977E68",
"&@	c #AFAAA5",
"                                                                ",
"              . + @ # $                                         ",
"            % & * * * = - ;                                     ",
"            > , ' * * * * ) !                                   ",
"              ~ { ] * * * ^ / (                                 ",
"                ~ _ : ^ * * < [                                 ",
"                  } | ] * * ^ 1 2                               ",
"  3 4 5           ; 6 7 8 < < 9 0                               ",
"  a ' b c       d e ] f f f f ) g                               ",
"  h i j k l   m n o ' ' p p p q r                               ",
"  s / j / t u v w j j & & & & x y                               ",
"  z A B C D E F C C G H H H H I J                               ",
"    K L q q M q q q q N N N O - P Q                             ",
"    R S T U U U U U V V V W X Y Z `  ...+.                      ",
"      @.#.$.T %.%.%.%.%.&.*.=.W -.;.>.,.'.).                    ",
"        !.~.{.].^./.b (._._.- :.<.[.}.|.1.2.3.                  ",
"            4.5.6.7.8.9.0.a.b.c.d.e.f.g.h.i.j.k.                ",
"                        l.m.n.o.p.q.r.r.s.t.u.v.w.              ",
"                          x.y.z.A.B.B.B.B.C.D.E.F.G.            ",
"                          H.I.J.K.K.K.K.K.K.L.M.N.O.P.          ",
"                          Q.R.S.T.U.U.U.U.U.U.V.W.X.R.Y.        ",
"                            Z.`. +.+++++++++++++@+#+$+`.%+      ",
"                              &+*+=+-+;+;+;+>+,+'+)+'+!+~+{+    ",
"                                ]+^+/+(+_+_+:+<+K.[+}+|+1+2+3+  ",
"                                  4+5+6+7+8+9+0+a+b+c+d+e+f+g+  ",
"                                    h+i+j+k+l+0+d+m+n+o+p+q+r+  ",
"                                      s+t+u+v+w+x+y+z+A+B+C+D+  ",
"                                        E+F+G+H+I+T.J+H+K+L+M+  ",
"                                          N+O+P+Q+Q+Q+R+S+T+U+  ",
"                                            V+W+X+Y+Z+`+ @.@    ",
"                                              +@@@#@$@%@&@      ",
"                                                                "};
