/* XPM */
static char * settings_dis_xpm[] = {
"32 32 116 2",
"  	g None",
". 	g #C9C9C9",
"+ 	g #CBCBCB",
"@ 	g #CECECE",
"# 	g #C8C8C8",
"$ 	g #BEBEBE",
"% 	g #EBEBEB",
"& 	g #FFFFFF",
"* 	g #F0F0F0",
"= 	g #D1D1D1",
"- 	g #C1C1C1",
"; 	g #D6D6D6",
"> 	g #BBBBBB",
", 	g #F1F1F1",
"' 	g #E9E9E9",
") 	g #BABABA",
"! 	g #D3D3D3",
"~ 	g #B7B7B7",
"{ 	g #EFEFEF",
"] 	g #FEFEFE",
"^ 	g #E5E5E5",
"/ 	g #B4B4B4",
"( 	g #B2B2B2",
"_ 	g #ECECEC",
": 	g #FBFBFB",
"< 	g #C4C4C4",
"[ 	g #D2D2D2",
"} 	g #A9A9A9",
"| 	g #E2E2E2",
"1 	g #C0C0C0",
"2 	g #F5F5F5",
"3 	g #FCFCFC",
"4 	g #EDEDED",
"5 	g #A4A4A4",
"6 	g #ADADAD",
"7 	g #AFAFAF",
"8 	g #B5B5B5",
"9 	g #F6F6F6",
"0 	g #ABABAB",
"a 	g #EEEEEE",
"b 	g #BDBDBD",
"c 	g #AEAEAE",
"d 	g #EAEAEA",
"e 	g #E1E1E1",
"f 	g #9C9C9C",
"g 	g #A1A1A1",
"h 	g #A2A2A2",
"i 	g #A3A3A3",
"j 	g #A8A8A8",
"k 	g #E4E4E4",
"l 	g #909090",
"m 	g #B0B0B0",
"n 	g #C6C6C6",
"o 	g #E6E6E6",
"p 	g #DEDEDE",
"q 	g #919191",
"r 	g #989898",
"s 	g #D8D8D8",
"t 	g #E0E0E0",
"u 	g #999999",
"v 	g #ACACAC",
"w 	g #D5D5D5",
"x 	g #DCDCDC",
"y 	g #DBDBDB",
"z 	g #CACACA",
"A 	g #949494",
"B 	g #9F9F9F",
"C 	g #A6A6A6",
"D 	g #8C8C8C",
"E 	g #A5A5A5",
"F 	g #CDCDCD",
"G 	g #C2C2C2",
"H 	g #A7A7A7",
"I 	g #818181",
"J 	g #B8B8B8",
"K 	g #BCBCBC",
"L 	g #B9B9B9",
"M 	g #9B9B9B",
"N 	g #8B8B8B",
"O 	g #787878",
"P 	g #767676",
"Q 	g #757575",
"R 	g #777777",
"S 	g #747474",
"T 	g #AAAAAA",
"U 	g #D0D0D0",
"V 	g #7D7D7D",
"W 	g #9D9D9D",
"X 	g #B1B1B1",
"Y 	g #CFCFCF",
"Z 	g #A0A0A0",
"` 	g #B3B3B3",
" .	g #8F8F8F",
"..	g #979797",
"+.	g #C7C7C7",
"@.	g #BFBFBF",
"#.	g #C3C3C3",
"$.	g #CCCCCC",
"%.	g #888888",
"&.	g #D4D4D4",
"*.	g #828282",
"=.	g #848484",
"-.	g #B6B6B6",
";.	g #808080",
">.	g #7C7C7C",
",.	g #7A7A7A",
"'.	g #8E8E8E",
").	g #737373",
"!.	g #6B6B6B",
"~.	g #8D8D8D",
"{.	g #9A9A9A",
"].	g #868686",
"^.	g #686868",
"/.	g #6F6F6F",
"(.	g #707070",
"_.	g #838383",
"                                                                ",
"              . + @ # +                                         ",
"            $ % & & & * = -                                     ",
"            ; > , & & & & ' )                                   ",
"              ! ~ { & & & ] ^ /                                 ",
"                ! ( _ ] & & : <                                 ",
"                  [ } { & & ] | }                               ",
"  / ( 1           - > 2 3 : : 4 5                               ",
"  6 , 7 $       1 8 { 9 9 9 9 ' 5                               ",
"  0 a _ } b   b c d , , * * * e f                               ",
"  g ^ _ ^ h i j k _ _ % % % % ! l                               ",
"  m n ^ o p / p o o o o o o o b q                               ",
"    r s e e t e e e e t t t + = u v                             ",
"    g 6 w x x x x x y y y z ) $ [ A B C 8                       ",
"      D E . w ; ; ; ; ; F G n z + H 1 x v (                     ",
"        q I i J K L 7 L @ @ = [ 5 b 6 M ; j m                   ",
"            N O P Q R S T U s i J 7 f 5 h ! 5 c                 ",
"                        V i W / X h v v T C Y Z v               ",
"                          I m ` } ( ( ( ( X 0 F f 0             ",
"                           .z ` L L L L L L ~ m . ..j           ",
"                          c A +.- @.@.@.@.@.@.$ 8 n A H         ",
"                            0 l < n n n n n n n < ) #.l E       ",
"                              T N 1 z F F F $.G $ b $ $ D E     ",
"                                } %.b U &.&.- ) L X / ) ) *.)   ",
"                                  i =.L w ; -.-.v C i T ~ h  .  ",
"                                    B ;.-.= ( -.T h c g ( c V   ",
"                                      W >.m c -.b M 5 C 7 j ,.  ",
"                                        M O j T G - ` T 0 '.%.  ",
"                                          u ).i C C C H W !.0   ",
"                                            M !.~.f {.].^...    ",
"                                              ~ *./.(._.T       ",
"                                                                "};
