/* XPM */
static char * view_icon_xpm[] = {
"32 32 65 1",
" 	c None",
".	c #0233A7",
"+	c #246ACE",
"@	c #828282",
"#	c #488FF8",
"$	c #D66206",
"%	c #4A9EEA",
"&	c #7EA2FE",
"*	c #F6AE26",
"=	c #FEDA76",
"-	c #4E93FE",
";	c #B5D7FE",
">	c #FAD256",
",	c #FEEAA2",
"'	c #E28616",
")	c #EAEAF2",
"!	c #185AC6",
"~	c #94B7FE",
"{	c #DE7A0E",
"]	c #044BFE",
"^	c #5296FE",
"/	c #FEF2CA",
"(	c #A1C2FE",
"_	c #368ADF",
":	c #768EE2",
"<	c #F6F6FA",
"[	c #82A6FE",
"}	c #BADCFE",
"|	c #1150C0",
"1	c #A8CAFE",
"2	c #F2F2F7",
"3	c #BEE2FE",
"4	c #72B7FD",
"5	c #1258FE",
"6	c #0C48BA",
"7	c #296EFE",
"8	c #AED0FE",
"9	c #86AAFE",
"0	c #FAFAFC",
"a	c #D8D6E0",
"b	c #8AAEFE",
"c	c #0232DA",
"d	c #CFCEDB",
"e	c #2671CF",
"f	c #DADAE2",
"g	c #7ABEFE",
"h	c #3A94E5",
"i	c #3B81FE",
"j	c #0842B8",
"k	c #569AFE",
"l	c #2A79D4",
"m	c #68ACFE",
"n	c #E1E1EB",
"o	c #FEFEFE",
"p	c #4187FE",
"q	c #063EB4",
"r	c #1E64CB",
"s	c #3478FE",
"t	c #84C9FE",
"u	c #1D62FE",
"v	c #E6E6EF",
"w	c #0232C6",
"x	c #2F80D9",
"y	c #EEEEF5",
"z	c #5BA3FB",
"                                ",
"                                ",
" hz%%h#h__xxlle+rr!!!||66jqq.   ",
"h4ttgggmmmzk##piss7uu5]]]]]]w.  ",
"htttg44mmzk^##iis77uu5]]]]]]c.  ",
"httgggmmzzk-#piss7uu55]]]]]]c.  ",
"h33}}};881111((~~~~b99&&&:&&:.  ",
"hooooooooooooooooooooo0<<022n.  ",
"hoooo''''{$oooooooo''''{$<2<n.  ",
"hoooo'oo/,$oooooooo'oo/,$2<2n.  ",
"hoooo'o/,=$ooooooo0'0/,=$222n.  ",
"_oooo'/,=>$ooooooo0'/,=>$<22f.  ",
"_oooo{,=>*$ooooooo0{,=>*$yy2f.  ",
"_oooo$$$$$$ooooo00<$$$$$$22yf.  ",
"_ooooo0o0ooooooo00<<222yyyyya.  ",
"_oooo@@@@@@ooo00<<<@@@@@@y))a.  ",
"_ooooooooooooo000<22222yyy))d.  ",
"_ooooooooooo0000<<<22yyyy))va.  ",
"_oooo''''{$o00<<<2<''''{$))vd.  ",
"xoooo'oo/,$00<<<<<y'oo/,$)vvd.  ",
"xoooo'o/,=$000<222y'o/,=$)vnd.  ",
"xoooo'/,=>$<<<<222y'/,=>$vvvd.  ",
"xoooo{,=>*$<<2<222y{,=>*$nnnd.  ",
"xoooo$$$$$$<2<22yy)$$$$$$vvnd.  ",
"xooo000<<<<<22yyyy)vvvnnvnnnd.  ",
"loooo@@@@@@22y2y)))@@@@@@nnfd.  ",
"l2yy)))vnnnnnafaaaddddddddddd.  ",
"lle++rr!!!||66jjq.............  ",
"                                ",
"                                ",
"                                ",
"                                "};
