/* XPM */
static char * view_tree_xpm[] = {
"32 32 65 1",
" 	c None",
".	c #0233A7",
"+	c #2269CC",
"@	c #828282",
"#	c #448AFE",
"$	c #768EE2",
"%	c #D66206",
"&	c #8CAFFE",
"*	c #FAD256",
"=	c #FEEAA2",
"-	c #DE7A0E",
";	c #FEF2CA",
">	c #FEDA76",
",	c #1352C1",
"'	c #F6AE26",
")	c #034AFE",
"!	c #B3D6FE",
"~	c #A2C4FE",
"{	c #F6F6FA",
"]	c #2B7AD5",
"^	c #E6E6EF",
"/	c #BADCFE",
"(	c #7EA2FE",
"_	c #3995E5",
":	c #0D53FE",
"<	c #82A6FE",
"[	c #A6CAFE",
"}	c #4AA2EA",
"|	c #4286FE",
"1	c #0C48BA",
"2	c #FAFAFC",
"3	c #BEE2FE",
"4	c #EEEEF5",
"5	c #2A74D6",
"6	c #98BBFE",
"7	c #AACAFE",
"8	c #0232DA",
"9	c #D4D2DE",
"0	c #368CE0",
"a	c #3A7FFE",
"b	c #AECEFE",
"c	c #74B8FD",
"d	c #D8D6E0",
"e	c #0842B8",
"f	c #88CCFE",
"g	c #FEFEFE",
"h	c #80C5FE",
"i	c #4EA6EA",
"j	c #1A5EC8",
"k	c #CECDDA",
"l	c #E0E0EA",
"m	c #4B93F8",
"n	c #246AFE",
"o	c #E28616",
"p	c #063EB4",
"q	c #185DFE",
"r	c #60A5FE",
"s	c #F2F2F7",
"t	c #3074FE",
"u	c #3182DA",
"v	c #549BF9",
"w	c #0232C6",
"x	c #EAEAF2",
"y	c #2674CE",
"z	c #6AAEFE",
"                                ",
"                                ",
" _i}v_m00uuu555++jjj,,,11epp.   ",
"_cfhhhcczrrvm#|aatnnq::)))))w.  ",
"_ffhcczzzrvvm#|attnnq::)))))8.  ",
"_fhhcczzrrvmm|aatnnqq:))))))8.  ",
"_/////!!7777~~6666&&&<(((((($.  ",
"_gggg@gggggggggggggggg2{{sssl.  ",
"_gggg@gggggggggggggggg2{2{s{l.  ",
"_gggg@ggggggoooo-%gg2222{s{s^.  ",
"_gggg@ggggggogg;=%2222{{{ss4l.  ",
"0gggg@ggggggog;=>%g2{{2s{{ssl.  ",
"0gggg@@@@@@@o;=>*%222{{sss44d.  ",
"0gggg@gggggg-=>*'%22{{{ss444d.  ",
"0gggg@gggggg%%%%%%{{ss{sss44d.  ",
"0gggg@gggggg222{{{{{{ss44444d.  ",
"0gggg@ggggggg2g22{{s{ss444xx9.  ",
"ugggg@gggggg2g{{{{s{s444xxxx9.  ",
"ugggg@ggggggoooo-%sss444xxx^k.  ",
"ugggg@gggg22ogg;=%s4444xxx^^k.  ",
"ugggg@gggg2{og;=>%s4444x^x^^k.  ",
"ugggg@@@@@@@o;=>*%444xxxx^^lk.  ",
"ugggggg222{{-=>*'%444xx^^^^lk.  ",
"]ggggg222{2s%%%%%%4xxx^x^lllk.  ",
"]gggggg22{{ss444x44x^x^^^^^lk.  ",
"]ggg222{{{{{ss444xxxx^^lllldk.  ",
"]ss44xx^lllldlddd9kkkkkkkkkkk.  ",
"]y++++jjj,,,11eppp............  ",
"                                ",
"                                ",
"                                ",
"                                "};
