/* XPM */
static char * add_xpm[] = {
"16 16 11 1",
" 	c None",
".	c #4F7F21",
"+	c #A8DC76",
"@	c #A1D76C",
"#	c #9AD263",
"$	c #92CD59",
"%	c #8BC84F",
"&	c #83C345",
"*	c #7CBE3B",
"=	c #75B931",
"-	c #73B82F",
"                ",
"      ....      ",
"      .++.      ",
"      .@@.      ",
"      .##.      ",
"      .$$.      ",
" ......%%...... ",
" .&&&&&&&&&&&&. ",
" .************. ",
" ......==...... ",
"      .--.      ",
"      .--.      ",
"      .--.      ",
"      .--.      ",
"      ....      ",
"                "};
