/* XPM */
static char * dvd_xpm[] = {
"32 32 320 2",
"  	c None",
". 	c #7D8BCE",
"+ 	c #7A88C9",
"@ 	c #7885C6",
"# 	c #8699DF",
"$ 	c #8597DE",
"% 	c #96A5E2",
"& 	c #A6B1E7",
"* 	c #B0B8EA",
"= 	c #ADB6E9",
"- 	c #ABB3E7",
"; 	c #9DA7DF",
"> 	c #8490CF",
", 	c #7482C2",
"' 	c #6C78B3",
") 	c #8A9EE6",
"! 	c #91A2E7",
"~ 	c #B9C3F1",
"{ 	c #DDE1FB",
"] 	c #E9EDFF",
"^ 	c #E8EDFF",
"/ 	c #E8EEFF",
"( 	c #E6EDFF",
"_ 	c #C7D6FF",
": 	c #C7D4FF",
"< 	c #C9D4FF",
"[ 	c #C2CBF8",
"} 	c #9CA4DC",
"| 	c #7884C2",
"1 	c #646EA7",
"2 	c #8DA1EB",
"3 	c #B7C3F3",
"4 	c #E9ECFE",
"5 	c #F0F3FF",
"6 	c #EEF3FF",
"7 	c #EDF1FF",
"8 	c #EBF0FF",
"9 	c #E9EFFF",
"0 	c #C9D8FF",
"a 	c #C4D4FF",
"b 	c #CFDBFF",
"c 	c #D4DEFF",
"d 	c #C9D0FB",
"e 	c #8C95D0",
"f 	c #6974AF",
"g 	c #96A9F0",
"h 	c #D4DBF9",
"i 	c #F5F7FF",
"j 	c #F3F6FF",
"k 	c #F0F4FF",
"l 	c #E4EBFF",
"m 	c #CCDAFF",
"n 	c #C8D7FF",
"o 	c #D6E1FF",
"p 	c #D6E0FF",
"q 	c #D4E0FF",
"r 	c #E6EAFF",
"s 	c #A9AEE4",
"t 	c #6A75B2",
"u 	c #98ACF2",
"v 	c #E3E7FC",
"w 	c #F9FBFF",
"x 	c #F7F9FF",
"y 	c #CFDCFF",
"z 	c #D0DCFF",
"A 	c #D9E3FF",
"B 	c #D7E2FF",
"C 	c #E7EDFF",
"D 	c #F6F9FF",
"E 	c #ACB2E3",
"F 	c #6872AF",
"G 	c #93A9F5",
"H 	c #D1D9FB",
"I 	c #FDFEFF",
"J 	c #FAFCFF",
"K 	c #D3DFFF",
"L 	c #D8E3FF",
"M 	c #DBE4FF",
"N 	c #DFE7FF",
"O 	c #EDEFFF",
"P 	c #9FA5DD",
"Q 	c #626BA4",
"R 	c #94A9F5",
"S 	c #BAC8FA",
"T 	c #EFF4FF",
"U 	c #F3F7FF",
"V 	c #FBFCFF",
"W 	c #FAFBFF",
"X 	c #D7E1FF",
"Y 	c #D5E0FF",
"Z 	c #DEE7FF",
"` 	c #DCE6FF",
" .	c #F2F5FF",
"..	c #F8F9FF",
"+.	c #E5E8FF",
"@.	c #7E86C2",
"#.	c #4E5582",
"$.	c #9DB1FA",
"%.	c #EAEFFF",
"&.	c #E8EFFF",
"*.	c #EDF3FF",
"=.	c #FCFDFF",
"-.	c #E7EEFF",
";.	c #DEE6FF",
">.	c #E1E9FF",
",.	c #EDF2FF",
"'.	c #F8FAFF",
").	c #C5C9F5",
"!.	c #646DA8",
"~.	c #96ACF8",
"{.	c #C3CFFC",
"].	c #E0EAFF",
"^.	c #E3ECFF",
"/.	c #DFE8FF",
"(.	c #E5ECFF",
"_.	c #F9FAFF",
":.	c #ECEFFF",
"<.	c #878DCA",
"[.	c #454B74",
"}.	c #97AEFA",
"|.	c #E1E9FE",
"1.	c #D9E5FF",
"2.	c #DEE9FF",
"3.	c #F8FBFF",
"4.	c #FDFDFF",
"5.	c #F3F5FE",
"6.	c #E8EDFD",
"7.	c #E2E9FD",
"8.	c #EAF0FF",
"9.	c #F7FAFF",
"0.	c #F6F8FF",
"a.	c #F4F7FF",
"b.	c #ACB0E4",
"c.	c #575E92",
"d.	c #ABBEFD",
"e.	c #DFE9FF",
"f.	c #D5E2FF",
"g.	c #EEF1FC",
"h.	c #E8ECFA",
"i.	c #DFE5F9",
"j.	c #DCE2F7",
"k.	c #E5E9F7",
"l.	c #F7F8FD",
"m.	c #F5F8FF",
"n.	c #DBDEFF",
"o.	c #6A72AD",
"p.	c #BFCDFE",
"q.	c #D0DFFF",
"r.	c #D1E0FF",
"s.	c #F1F6FF",
"t.	c #EAEFFE",
"u.	c #E7EBFA",
"v.	c #D3D9F2",
"w.	c #DDE1F3",
"x.	c #E9EBF6",
"y.	c #E8EAF5",
"z.	c #F8FAFE",
"A.	c #ECF1FF",
"B.	c #CDDAFF",
"C.	c #C2CFFF",
"D.	c #7A81BD",
"E.	c #95ABF7",
"F.	c #CBD7FE",
"G.	c #C9DAFF",
"H.	c #CDDDFF",
"I.	c #D1DFFF",
"J.	c #E5EBFE",
"K.	c #D5DFFC",
"L.	c #899CE3",
"M.	c #6976AC",
"N.	c #7884BD",
"O.	c #D1D4E8",
"P.	c #E3E6F4",
"Q.	c #E9ECF9",
"R.	c #8A90CD",
"S.	c #303350",
"T.	c #93A9F4",
"U.	c #C0CFFE",
"V.	c #C5D8FF",
"W.	c #E6ECFE",
"X.	c #AFC0FC",
"Y.	c #4C5576",
"Z.	c #4B537E",
"`.	c #929AC6",
" +	c #DCE1F4",
".+	c #DDE3F7",
"++	c #DBE5FF",
"@+	c #CAD8FF",
"#+	c #8F95D3",
"$+	c #4B517D",
"%+	c #C2D6FF",
"&+	c #D6E3FF",
"*+	c #E2EBFF",
"=+	c #EBF1FF",
"-+	c #F2F6FF",
";+	c #EFF3FF",
">+	c #EFF2FE",
",+	c #B0C2FC",
"'+	c #495376",
")+	c #949BC6",
"!+	c #DFE3F4",
"~+	c #E1E7F7",
"{+	c #4A507C",
"]+	c #CCDCFF",
"^+	c #DBE6FF",
"/+	c #ECF0FE",
"(+	c #D8E0FC",
"_+	c #899CE4",
":+	c #7786C6",
"<+	c #7B86C2",
"[+	c #D8DBEB",
"}+	c #E4E7F4",
"|+	c #ECEFFA",
"1+	c #2E324D",
"2+	c #F4F8FF",
"3+	c #E8ECFC",
"4+	c #DCE3F9",
"5+	c #D4DAF2",
"6+	c #E7EBF7",
"7+	c #E6E9F5",
"8+	c #EBEDF6",
"9+	c #CDD7FF",
"0+	c #303450",
"a+	c #A5B9FD",
"b+	c #F5F9FF",
"c+	c #DDE6FC",
"d+	c #DEE5FA",
"e+	c #E3E8F9",
"f+	c #E4E8F7",
"g+	c #EAEDF8",
"h+	c #F7F9FE",
"i+	c #CBD3FF",
"j+	c #E7EEFE",
"k+	c #EEF2FD",
"l+	c #F1F4FE",
"m+	c #E0E8FF",
"n+	c #A7ADE4",
"o+	c #535A8A",
"p+	c #8CA1E8",
"q+	c #DAE6FF",
"r+	c #E8F0FF",
"s+	c #DBE1FF",
"t+	c #8188C5",
"u+	c #3C4163",
"v+	c #9BB0F7",
"w+	c #F1F4FF",
"x+	c #DCE7FF",
"y+	c #DBE7FF",
"z+	c #EAF1FF",
"A+	c #B9BEF0",
"B+	c #636CA6",
"C+	c #879BE1",
"D+	c #B4C3F9",
"E+	c #D7E4FF",
"F+	c #D4E2FF",
"G+	c #CCDDFF",
"H+	c #E9F0FF",
"I+	c #ECF2FF",
"J+	c #E4E7FF",
"K+	c #3D4264",
"L+	c #8EA3EB",
"M+	c #E6EEFF",
"N+	c #D3E1FF",
"O+	c #D5E3FF",
"P+	c #E7EFFF",
"Q+	c #F2F3FF",
"R+	c #99A0D8",
"S+	c #5B6498",
"T+	c #90A4EE",
"U+	c #DBE1FB",
"V+	c #D2E0FF",
"W+	c #C2D5FF",
"X+	c #CBDCFF",
"Y+	c #EBF2FF",
"Z+	c #EAEEFF",
"`+	c #A6ACE3",
" @	c #6771AD",
".@	c #8DA2EA",
"+@	c #CDD5F8",
"@@	c #CEDDFF",
"#@	c #C6D8FF",
"$@	c #BFD3FF",
"%@	c #CADBFF",
"&@	c #E4EDFF",
"*@	c #E7EAFF",
"=@	c #A3A9E0",
"-@	c #292D43",
";@	c #889CE3",
">@	c #ABB9F0",
",@	c #DAE2FE",
"'@	c #D2DFFF",
")@	c #BCD2FF",
"!@	c #BCD1FF",
"~@	c #C7D9FF",
"{@	c #CCD0F7",
"]@	c #8790CC",
"^@	c #6570A7",
"/@	c #7485C2",
"(@	c #B3BDEF",
"_@	c #CCD6FB",
":@	c #D1DEFF",
"<@	c #E1EAFF",
"[@	c #E3EAFF",
"}@	c #E0E6FF",
"|@	c #C8CEF4",
"1@	c #969FD9",
"2@	c #707CB9",
"3@	c #525B87",
"4@	c #6978AF",
"5@	c #8091D5",
"6@	c #90A0E0",
"7@	c #A0ACE5",
"8@	c #919DD8",
"9@	c #7E8BCC",
"0@	c #6E7AB5",
"a@	c #515983",
"b@	c #5A6696",
"c@	c #5F6A9D",
"d@	c #586290",
"e@	c #404767",
"                            . + @                               ",
"                    # $ % & * = - ; > , '                       ",
"                ) ! ~ { ] ^ / ( _ : < [ } | 1                   ",
"              2 3 4 5 6 7 8 9 / 0 _ a b c d e f                 ",
"            g h i i j k 6 7 8 l m 0 n o p q r s t               ",
"          u v w w x i j k 6 7 l y m z A B C D 5 E F             ",
"        G H w I J w x i j k 6 C K y L M N x x D O P Q           ",
"      R S T U w I V W x i j k l X Y Z `  ...x x D +.@.#.        ",
"      $.%.&.*.U w I =.W x i j -.M ;.>.,.'.....x x D ).!.        ",
"    ~.{.].^.&.*.U w I =.W x i 8 /.(.9 w _.'.....x i :.<.[.      ",
"    }.|.1.2.^.&.*.U 3.I 4.W 5.6.7.8.9.w w _...0.a.j j b.c.      ",
"    d.e.f.1.2.^.&.*.U 3.J g.h.i.j.k.l.J w x 0.m.a.a.j n.o.      ",
"    p.q.r.f.1.2.^.&.*.s.t.g.u.v.w.x.y.z.'.x D A.>.B B.C.D.      ",
"  E.F.G.H.I.f.1.2.^.&.( J.K.L.M.N.O.P.Q.9 >.B K z m 0 _ R.S.    ",
"  T.U.V.G.H.I.f.1.2.^./.W.X.Y.  Z.`. +.+l /.++B K z m @+#+$+    ",
"  T.U.%+V.G.H.&+*+=+-+;+>+,+'+    )+!+~+9 l /.++B K z m #+{+    ",
"  T.F.]+^+&.-+m.D x 3. ./+(+_+:+<+[+}+|+6 9 l /.++B K z R.1+    ",
"    p.-+-+U U 2+x 3.w 3./+3+4+5+6+7+8+z.a.6 9 l /.++B 9+D.0+    ",
"    a+m.-+-+m.x '.'.w w b+c+d+e+f+g+h+4.W a.6 9 l /.++i+!.      ",
"    ~./+U b+D x x '.'.w 8.*+j+k+l+D _._.4.W a.6 9 l m+n+o+      ",
"    p+{.0.b+D D x x '.6 e.q+r+T -+a.D '.'.4.W a.6 9 s+t+u+      ",
"      v+w+m.b+D D x j x+y+q.z+*.T -+a.D D '.4.W a.;+A+B+        ",
"      C+D+0.m.b+D D 2.E+F+G+H+I+*.T -+a.D 2+'.4.W J+@.K+        ",
"        L+H m.m.b+M+N+O+G.G.P+H+I+*.T -+a.D j '.Q+R+S+          ",
"          T+U+m.6 q.V+r.W+X+M+P+H+Y+*.T -+a.2+Z+`+ @            ",
"            .@+@^+@@q.#@$@%@&@M+P+H+Y+*.T -+*@=@f -@            ",
"              ;@>@,@'@)@!@~@^.&@M+P+H+Y+%.{@]@^@                ",
"                /@! (@_@@+:@<@^.&@[@}@|@1@2@3@                  ",
"                    4@5@6@7@* = - 8@9@0@a@                      ",
"                            b@c@d@e@                            ",
"                                                                ",
"                                                                "};
