/* XPM */
static char * dvd_xpm[] = {
"16 16 175 2",
"  	c None",
". 	c #A79D6C",
"+ 	c #A49A68",
"@ 	c #A59B67",
"# 	c #BAAF75",
"$ 	c #929292",
"% 	c #B0B0B0",
"& 	c #C2C2C2",
"* 	c #C9C9C9",
"= 	c #C8C8C8",
"- 	c #B1B0A9",
"; 	c #CAC6AD",
"> 	c #BAB8B0",
", 	c #B1B1B1",
"' 	c #A4A4A4",
") 	c #B3B3B3",
"! 	c #7A7A7A",
"~ 	c #9F9971",
"{ 	c #CECECE",
"] 	c #ABA9A1",
"^ 	c #A7A497",
"/ 	c #EFEFEF",
"( 	c #DBDBDB",
"_ 	c #D3D3D0",
": 	c #AFAEA8",
"< 	c #D9D9D8",
"[ 	c #C0C0C0",
"} 	c #AAAAA9",
"| 	c #8E8B78",
"1 	c #D7D7D7",
"2 	c #ACACAC",
"3 	c #C1B579",
"4 	c #B2AF9D",
"5 	c #EDEDED",
"6 	c #BBB8A7",
"7 	c #BEBAA8",
"8 	c #939291",
"9 	c #D4D4D4",
"0 	c #8C8C89",
"a 	c #D9D9D9",
"b 	c #B7B6B3",
"c 	c #BCB694",
"d 	c #DDDDDD",
"e 	c #DBD3AC",
"f 	c #A4A29A",
"g 	c #C1C1C1",
"h 	c #ADADAC",
"i 	c #A8A8A7",
"j 	c #98978F",
"k 	c #959282",
"l 	c #B0AEA2",
"m 	c #7F7B6A",
"n 	c #BFBFBF",
"o 	c #B2B2B2",
"p 	c #B1B1B0",
"q 	c #9C9B92",
"r 	c #ECE6C0",
"s 	c #ACA688",
"t 	c #8F8A71",
"u 	c #948F72",
"v 	c #A7A183",
"w 	c #CFCAB6",
"x 	c #CCCABB",
"y 	c #83827E",
"z 	c #B2A975",
"A 	c #A89E67",
"B 	c #8A8462",
"C 	c #8B8561",
"D 	c #A49E7F",
"E 	c #B2A86D",
"F 	c #C5BA81",
"G 	c #F8F1C5",
"H 	c #F8EBA1",
"I 	c #F6E797",
"J 	c #E7DB97",
"K 	c #D8D3B8",
"L 	c #ECEBE5",
"M 	c #898880",
"N 	c #CBC398",
"O 	c #E2D273",
"P 	c #E6D46B",
"Q 	c #E4D266",
"R 	c #E9DB89",
"S 	c #D7CD8E",
"T 	c #9E9045",
"U 	c #C5BA85",
"V 	c #F9F1C1",
"W 	c #F4E490",
"X 	c #DBD19C",
"Y 	c #EBEBEB",
"Z 	c #CFCAAC",
"` 	c #D8C970",
" .	c #E4D164",
"..	c #E2CF60",
"+.	c #E7D77A",
"@.	c #DCD399",
"#.	c #9C8F45",
"$.	c #C5BA83",
"%.	c #F7EEBA",
"&.	c #F3E48F",
"*.	c #F0E088",
"=.	c #D9CF99",
"-.	c #CFCBAD",
";.	c #D6C66B",
">.	c #E2CF5F",
",.	c #E6D778",
"'.	c #DBD296",
").	c #C4B87C",
"!.	c #F2E9B4",
"~.	c #F0E18B",
"{.	c #EEDD81",
"].	c #E1D386",
"^.	c #D8D2B5",
"/.	c #E0DCCB",
"(.	c #D0C797",
"_.	c #DDCB63",
":.	c #E8D982",
"<.	c #D6CB88",
"[.	c #E6DDAA",
"}.	c #EFE08A",
"|.	c #EBDA79",
"1.	c #E9D877",
"2.	c #DED290",
"3.	c #D5CEAB",
"4.	c #CEC8A0",
"5.	c #CEC48F",
"6.	c #D7C666",
"7.	c #E1CE5F",
"8.	c #E9DC96",
"9.	c #C4B66B",
"0.	c #D5CB97",
"a.	c #EEE29B",
"b.	c #E9D773",
"c.	c #E9D879",
"d.	c #EBDD8C",
"e.	c #E6D67E",
"f.	c #DCCA5F",
"g.	c #E6D676",
"h.	c #DED291",
"i.	c #AEA04F",
"j.	c #BDB06D",
"k.	c #E1D7A0",
"l.	c #ECDD8C",
"m.	c #E9DA82",
"n.	c #EDE098",
"o.	c #EADB88",
"p.	c #E4D36E",
"q.	c #E6DA96",
"r.	c #C0B264",
"s.	c #9E9047",
"t.	c #BBAF6D",
"u.	c #E0D7A2",
"v.	c #ECE2A7",
"w.	c #F0E5AC",
"x.	c #ECDF95",
"y.	c #E2D062",
"z.	c #E3D167",
"A.	c #E5D578",
"B.	c #E1D695",
"C.	c #C3B76E",
"D.	c #9F9249",
"E.	c #B3A867",
"F.	c #CAC18B",
"G.	c #E1D8A8",
"H.	c #E9DFA4",
"I.	c #E7D98C",
"J.	c #E5D88B",
"K.	c #E1D48E",
"L.	c #D3C88B",
"M.	c #B4A761",
"N.	c #9E914A",
"O.	c #BDB170",
"P.	c #BDB172",
"Q.	c #B9AD6D",
"R.	c #B4A763",
"            . + @ #             ",
"      $ % & * = - ; > , ' % ) ! ",
"    ~ { ] ^ / ( _ : < [ } | 1 2 ",
"  3 4 5 6 7 { 8 / 9 0 a b c d % ",
"  e f g h i j k ( l m n o p q   ",
"  r s t u v w x y z A B C D E   ",
"F G H I J K L / M N O P Q R S T ",
"U V I W X   Y     Z `  ...+.@.#.",
"$.%.&.*.=.        -.;.>.>.,.'.#.",
").!.~.{.].^.    /.(._.>.>.:.<.T ",
"  [.}.|.1.2.3.4.5.6.7.>...8.9.  ",
"  0.a.b.c.d.e.f.>.>.>.>.g.h.i.  ",
"  j.k.l.m.n.o...>.>.>.p.q.r.s.  ",
"    t.u.v.w.x.y.y.z.A.B.C.D.    ",
"      E.F.G.H.I.J.K.L.M.N.      ",
"            O.P.Q.R.            "};
