/* XPM */
static char * exec_xpm[] = {
"16 16 23 1",
" 	c #EFEFEF",
".	c #F5F5F5",
"+	c #FDFDFD",
"@	c #FFFFFF",
"#	c #3DB900",
"$	c #F2F2F2",
"%	c #FAFAFA",
"&	c #319600",
"*	c #F0F0F0",
"=	c #FBFBFB",
"-	c #FEFEFE",
";	c #F3F3F3",
">	c #F7F7F7",
",	c #F9F9F9",
"'	c #009600",
")	c #F1F1F1",
"!	c #FCFCFC",
"~	c #007325",
"{	c #007300",
"]	c #0E0E0E",
"^	c #181818",
"/	c #F8F8F8",
"(	c #F4F4F4",
"     .+@@@@@@@@@",
"#    $%@@@@@@@@@",
"&##  *.+@@@@@@@@",
"&&&## *.=-@@@@@@",
"&&&&&# *;>=-@@@@",
"&&&&&&##  *$.>,=",
"&&&&&&&&##    *>",
"&&&&&&''''##  )!",
"&&&&'''''~~{] $-",
"&&'''''~~~]]] $-",
"&''''~~~]]]^$./+",
"''''~~]]]]*.%+@@",
"''~~~]]] *.!@@@@",
"~~~]]]]  $!@@@@@",
"~]]]]   *,@@@@@@",
"@]]     (-@@@@@@"};
