/* XPM */
static char * floppy_xpm[] = {
"16 16 106 2",
"  	c None",
". 	c #6E6E6E",
"+ 	c #737373",
"@ 	c #545454",
"# 	c #575757",
"$ 	c #797979",
"% 	c #929292",
"& 	c #A2A2A2",
"* 	c #B6B6B6",
"= 	c #CCCCCC",
"- 	c #585858",
"; 	c #616161",
"> 	c #757575",
", 	c #A3A3A3",
"' 	c #BFBFBF",
") 	c #CDCDCD",
"! 	c #DEDEDE",
"~ 	c #E8E8E8",
"{ 	c #D0D0D0",
"] 	c #7C7C7C",
"^ 	c #C7C7C7",
"/ 	c #E4E4E4",
"( 	c #EAEAEA",
"_ 	c #F5F5F5",
": 	c #FBFBFB",
"< 	c #F9F9F9",
"[ 	c #F2F2F2",
"} 	c #D1D1D1",
"| 	c #CACACA",
"1 	c #8A8A8A",
"2 	c #D4D4D4",
"3 	c #FDFDFD",
"4 	c #FCFCFC",
"5 	c #F0F0F0",
"6 	c #D2D2D2",
"7 	c #C5C5C5",
"8 	c #838383",
"9 	c #D3D3D3",
"0 	c #F7F7F7",
"a 	c #F4F4F4",
"b 	c #EDEDED",
"c 	c #565656",
"d 	c #7E7E7E",
"e 	c #D7D7D7",
"f 	c #EFEFEF",
"g 	c #F3F3F3",
"h 	c #B8B8B8",
"i 	c #787878",
"j 	c #DCDCDC",
"k 	c #E0E0E0",
"l 	c #D5D5D5",
"m 	c #C8C8C8",
"n 	c #C0C0C0",
"o 	c #BBBBBB",
"p 	c #B3B3B3",
"q 	c #535353",
"r 	c #727272",
"s 	c #B1B1B1",
"t 	c #B2B2B2",
"u 	c #C1C1C1",
"v 	c #A9A9A9",
"w 	c #ABABAB",
"x 	c #525252",
"y 	c #6A6A6A",
"z 	c #AAAAAA",
"A 	c #D9D9D9",
"B 	c #B5B5B5",
"C 	c #E6E6E6",
"D 	c #9C9C9C",
"E 	c #7A7A7A",
"F 	c #A4A4A4",
"G 	c #505050",
"H 	c #A6A6A6",
"I 	c #C3C3C3",
"J 	c #CFCFCF",
"K 	c #E9E9E9",
"L 	c #9A9A9A",
"M 	c #6F6F6F",
"N 	c #4F4F4F",
"O 	c #5E5E5E",
"P 	c #BABABA",
"Q 	c #707070",
"R 	c #999999",
"S 	c #6B6B6B",
"T 	c #989898",
"U 	c #4E4E4E",
"V 	c #5D5D5D",
"W 	c #767676",
"X 	c #686868",
"Y 	c #969696",
"Z 	c #4C4C4C",
"` 	c #5A5A5A",
" .	c #959595",
"..	c #ACACAC",
"+.	c #BDBDBD",
"@.	c #C2C2C2",
"#.	c #979797",
"$.	c #656565",
"%.	c #949494",
"&.	c #4B4B4B",
"*.	c #626262",
"=.	c #7D7D7D",
"-.	c #8D8D8D",
";.	c #4A4A4A",
">.	c #555555",
",.	c #606060",
"                  . + @         ",
"          # $ % & * = -         ",
"    ; > , ' ) ! ~ { { -         ",
"  ] ^ / ( _ : < [ } | -         ",
"  1 2 3 4 < _ [ 5 6 7 #         ",
"  8 9 0 a 5 b ( b } ' c         ",
"  d e 5 f b b b g = h @         ",
"  i j k l m n o p , p q         ",
"  r , s t h o u v 1 w x         ",
"  y z A B k C [ D E F G         ",
"  ; H I > J e K L M D N         ",
"  O F P Q ^ J ! R S T U         ",
"  V & * W I | 2 T X Y Z         ",
"  `  .z ..h +.@.#.$.%.&.        ",
"  q *.y M W =.8 ] ; -.;.        ",
"              q >.c ,.N         "};
