/* XPM */
static char * hardDisk_xpm[] = {
"32 32 536 2",
"  	c None",
". 	c #53566D",
"+ 	c #575A6F",
"@ 	c #5A5E72",
"# 	c #5A5D72",
"$ 	c #5C5E72",
"% 	c #5C5F74",
"& 	c #5D5F74",
"* 	c #5E6074",
"= 	c #5F6075",
"- 	c #606075",
"; 	c #6C6F82",
"> 	c #717284",
", 	c #6D6E83",
"' 	c #63677F",
") 	c #45485B",
"! 	c #8288A0",
"~ 	c #B3BFD5",
"{ 	c #A0A7B9",
"] 	c #9BA1B2",
"^ 	c #C4CEDD",
"/ 	c #C9D2E0",
"( 	c #CBD2E0",
"_ 	c #CCD3E1",
": 	c #CED6E2",
"< 	c #CFD7E3",
"[ 	c #D1D8E4",
"} 	c #D2DAE6",
"| 	c #D3DAE6",
"1 	c #D5DCE6",
"2 	c #D7DDE8",
"3 	c #D8DEE9",
"4 	c #E3E9F3",
"5 	c #CACFDA",
"6 	c #A2A7B5",
"7 	c #B7C0D3",
"8 	c #AFBCD3",
"9 	c #38394A",
"0 	c #A3AEC5",
"a 	c #B1BDD1",
"b 	c #A9B0C2",
"c 	c #A9B0C3",
"d 	c #C2CBDC",
"e 	c #C5D0E0",
"f 	c #C8D0E0",
"g 	c #CAD1E0",
"h 	c #CAD3E2",
"i 	c #CBD5E2",
"j 	c #CED6E4",
"k 	c #CCD5E1",
"l 	c #CFD5E2",
"m 	c #D1D7E3",
"n 	c #D2DAE3",
"o 	c #D7DCE7",
"p 	c #CCD3DE",
"q 	c #BBC0CC",
"r 	c #B6BBC8",
"s 	c #BCC4D3",
"t 	c #B5C2D8",
"u 	c #595E71",
"v 	c #A8B2CA",
"w 	c #AAB6CB",
"x 	c #96A3B3",
"y 	c #747B85",
"z 	c #6B737A",
"A 	c #6F7780",
"B 	c #747A83",
"C 	c #777D86",
"D 	c #7B8189",
"E 	c #7F858D",
"F 	c #80868E",
"G 	c #969EA7",
"H 	c #B6BFCC",
"I 	c #D0D6E3",
"J 	c #D0D7E2",
"K 	c #D5DBE6",
"L 	c #BFC6D1",
"M 	c #AFB8C3",
"N 	c #E1E7F0",
"O 	c #C6CFDD",
"P 	c #B2C0D6",
"Q 	c #63687B",
"R 	c #ABB6CF",
"S 	c #AAB7CB",
"T 	c #86909F",
"U 	c #232323",
"V 	c #1D1C1C",
"W 	c #232322",
"X 	c #282828",
"Y 	c #2D2D2C",
"Z 	c #323131",
"` 	c #373736",
" .	c #373635",
"..	c #686B6E",
"+.	c #B1BBC8",
"@.	c #CED3E1",
"#.	c #CFD6E2",
"$.	c #D0D7E3",
"%.	c #CCD2DD",
"&.	c #AEB7C2",
"*.	c #D7DDE7",
"=.	c #C9D1DE",
"-.	c #B2BFD5",
";.	c #6D7488",
">.	c #2D303D",
",.	c #AAB5CE",
"'.	c #B6C0D5",
").	c #BCC3CE",
"!.	c #888889",
"~.	c #898989",
"{.	c #8D8D8D",
"].	c #909090",
"^.	c #929292",
"/.	c #969696",
"(.	c #999999",
"_.	c #999898",
":.	c #B0B2B6",
"<.	c #C9D1DD",
"[.	c #CCD3E0",
"}.	c #CFD6E3",
"|.	c #CAD1DD",
"1.	c #ACB6C0",
"2.	c #D5DAE3",
"3.	c #B2BED3",
"4.	c #787F95",
"5.	c #373A49",
"6.	c #ABB7CE",
"7.	c #B6C0D3",
"8.	c #DBE1EB",
"9.	c #E8F0F8",
"0.	c #EBF1F9",
"a.	c #EBF1FB",
"b.	c #EDF3FC",
"c.	c #F0F5FD",
"d.	c #EDF3FB",
"e.	c #E8EEF7",
"f.	c #E8EEF6",
"g.	c #E4E9F2",
"h.	c #D8DEE8",
"i.	c #CBD3E0",
"j.	c #CAD2DE",
"k.	c #A9B3BF",
"l.	c #D2D7E2",
"m.	c #CFD5E1",
"n.	c #B2BED2",
"o.	c #81889F",
"p.	c #3F4251",
"q.	c #AFBCD1",
"r.	c #B0BBCF",
"s.	c #B8C2D3",
"t.	c #BBC3D5",
"u.	c #BEC8D8",
"v.	c #B9C3D3",
"w.	c #AEB7C8",
"x.	c #A4AFBF",
"y.	c #A9B3C3",
"z.	c #ABB6C5",
"A.	c #AEB7C6",
"B.	c #B0B9C8",
"C.	c #BEC8D5",
"D.	c #CED5E1",
"E.	c #CBD1DE",
"F.	c #A7B0BD",
"G.	c #CED3E0",
"H.	c #B2BDD2",
"I.	c #8991A8",
"J.	c #4B4F5F",
"K.	c #B1BDD3",
"L.	c #B7C0D2",
"M.	c #B9C2D5",
"N.	c #A0ACBE",
"O.	c #93A1B1",
"P.	c #A3AFBF",
"Q.	c #B6BED0",
"R.	c #BCC3D3",
"S.	c #C0CADA",
"T.	c #C3CBDB",
"U.	c #C4CBDB",
"V.	c #C2C9D6",
"W.	c #C4CCDB",
"X.	c #CCD2E0",
"Y.	c #A3AEBC",
"Z.	c #D1D7E2",
"`.	c #B3BFD3",
" +	c #939CB2",
".+	c #5C6075",
"++	c #B3BFD6",
"@+	c #B0BCCF",
"#+	c #B6C0D2",
"$+	c #92A0B1",
"%+	c #93A0B2",
"&+	c #BEC6D7",
"*+	c #C3CADB",
"=+	c #C4CBDC",
"-+	c #C4CCDC",
";+	c #C6CFDE",
">+	c #C8D0DD",
",+	c #C8CEDC",
"'+	c #C8CFDD",
")+	c #CAD1DE",
"!+	c #A2AEBB",
"~+	c #C8CFDB",
"{+	c #9EA8BF",
"]+	c #666B80",
"^+	c #B5C0D6",
"/+	c #B2BDD0",
"(+	c #9CA9BC",
"_+	c #97A4B6",
":+	c #BBC5D7",
"<+	c #B9C3D5",
"[+	c #BCC5D7",
"}+	c #BCC6D5",
"|+	c #A2AEBE",
"1+	c #A1ABBC",
"2+	c #A4B0BF",
"3+	c #B0BBCA",
"4+	c #B2BCC9",
"5+	c #BEC6D2",
"6+	c #D1D7E4",
"7+	c #A4B0C8",
"8+	c #171720",
"9+	c #6C7287",
"0+	c #B3C0D6",
"a+	c #AEB8CC",
"b+	c #98A3B6",
"c+	c #B5BFD0",
"d+	c #B8C4D5",
"e+	c #B9C4D6",
"f+	c #BBC5D6",
"g+	c #8E9BAC",
"h+	c #99A6B7",
"i+	c #B7C0D0",
"j+	c #B8C0D1",
"k+	c #B8C2D1",
"l+	c #97A3B3",
"m+	c #ABB7C5",
"n+	c #C8D0DC",
"o+	c #B6BECB",
"p+	c #D0D6E2",
"q+	c #A7B2CB",
"r+	c #1D1F27",
"s+	c #777E93",
"t+	c #ABB6CB",
"u+	c #AAB6C6",
"v+	c #B9C5D5",
"w+	c #BDCADA",
"x+	c #A9B6C5",
"y+	c #919FB0",
"z+	c #BFC9DB",
"A+	c #BDC6D6",
"B+	c #BEC8D7",
"C+	c #C2CADA",
"D+	c #C0C9D8",
"E+	c #98A6B5",
"F+	c #C3CEDA",
"G+	c #CBD5E1",
"H+	c #CED6E1",
"I+	c #BFC8D3",
"J+	c #A9B6CE",
"K+	c #282A35",
"L+	c #828BA1",
"M+	c #B1BED2",
"N+	c #B0BCD0",
"O+	c #C2CADC",
"P+	c #B9C6D6",
"Q+	c #BCC9D7",
"R+	c #BDCAD8",
"S+	c #BBC6D5",
"T+	c #C3CEDC",
"U+	c #C4CFDD",
"V+	c #C0CCDB",
"W+	c #C3CEDB",
"X+	c #C4CFDC",
"Y+	c #BFC9D6",
"Z+	c #C6D1DD",
"`+	c #CCD7E2",
" @	c #CED7E3",
".@	c #ACB9D0",
"+@	c #343744",
"@@	c #8D95AA",
"#@	c #B2C0D3",
"$@	c #AFBCCF",
"%@	c #D7DDEC",
"&@	c #C4CFDE",
"*@	c #BFCCDA",
"=@	c #C0CEDB",
"-@	c #CFD8E3",
";@	c #DAE2E9",
">@	c #DCE3EB",
",@	c #DCE2EB",
"'@	c #DBE2EB",
")@	c #CFDAE4",
"!@	c #CBD6E1",
"~@	c #CED7E2",
"{@	c #D6DEE8",
"]@	c #DCE0ED",
"^@	c #C0CBDA",
"/@	c #B2BED5",
"(@	c #99A3B7",
"_@	c #ACB9CC",
":@	c #C5CFDD",
"<@	c #E6ECF2",
"[@	c #C4D0DD",
"}@	c #C3CFDC",
"|@	c #C5D2DD",
"1@	c #C5D2DC",
"2@	c #CAD5DE",
"3@	c #CEDAE2",
"4@	c #CFDAE2",
"5@	c #CFDAE3",
"6@	c #CED8E2",
"7@	c #D5DEE7",
"8@	c #ECF0F6",
"9@	c #C4CEDB",
"0@	c #B7C5D8",
"a@	c #4A505E",
"b@	c #A6B2C6",
"c@	c #B3C2D3",
"d@	c #B0BED0",
"e@	c #AFBCCE",
"f@	c #CFD7E2",
"g@	c #EEF2F6",
"h@	c #CED8E3",
"i@	c #C6D2DE",
"j@	c #C9D5E0",
"k@	c #CAD6E0",
"l@	c #CCD6E1",
"m@	c #D0DBE4",
"n@	c #D0DAE3",
"o@	c #DBE2E9",
"p@	c #F3F6F8",
"q@	c #D7DEE8",
"r@	c #C8D1DD",
"s@	c #BBCADC",
"t@	c #585E6D",
"u@	c #AEBCCF",
"v@	c #B5C3D3",
"w@	c #B0BFD0",
"x@	c #B2C0D1",
"y@	c #CCD6E2",
"z@	c #E1E7ED",
"A@	c #D8E1E9",
"B@	c #D3DDE6",
"C@	c #D2DCE4",
"D@	c #D3DCE6",
"E@	c #D6DEE7",
"F@	c #D8E1E8",
"G@	c #DEE6EC",
"H@	c #E7EDF2",
"I@	c #EBF0F3",
"J@	c #D6DDE7",
"K@	c #CAD3E1",
"L@	c #C9D3E0",
"M@	c #BECEE0",
"N@	c #636A7B",
"O@	c #9FAABC",
"P@	c #8990A1",
"Q@	c #A1AEC0",
"R@	c #B6C5D5",
"S@	c #B2C2D1",
"T@	c #B8C8D6",
"U@	c #E2E7EE",
"V@	c #E4E9F0",
"W@	c #E7ECF1",
"X@	c #E4EBF0",
"Y@	c #E3E9F0",
"Z@	c #DEE4EC",
"`@	c #D2DBE6",
" #	c #C5D1DD",
".#	c #C4D0DC",
"+#	c #CAD5E0",
"@#	c #C0CAD6",
"##	c #9399A9",
"$#	c #A0A7B7",
"%#	c #C0D0E0",
"&#	c #6F788A",
"*#	c #2E2E3B",
"=#	c #B7C6D8",
"-#	c #A2AFBF",
";#	c #9AA3B5",
">#	c #A7B3C5",
",#	c #B5C4D5",
"'#	c #B2C3D2",
")#	c #B5C4D3",
"!#	c #B3C4D3",
"~#	c #B9C8D6",
"{#	c #BDCBD8",
"]#	c #BFCEDA",
"^#	c #BECEDB",
"/#	c #BECBDA",
"(#	c #C3CFDD",
"_#	c #C5D1DE",
":#	c #C8D5E0",
"<#	c #C2CCD7",
"[#	c #A3AAB9",
"}#	c #AEB7C5",
"|#	c #7B8597",
"1#	c #414451",
"2#	c #D2DCE7",
"3#	c #D7E0E9",
"4#	c #D5DDE7",
"5#	c #D6E0E8",
"6#	c #D7E0E8",
"7#	c #D8E0E8",
"8#	c #DAE1E9",
"9#	c #DBE3EB",
"0#	c #DDE3EC",
"a#	c #DDE4EC",
"b#	c #E0E7ED",
"c#	c #E2E9EE",
"d#	c #DCE6ED",
"e#	c #97A0AF",
"f#	c #4B4E5A",
"g#	c #AEB6C3",
"h#	c #A2ABB9",
"i#	c #A3AEBB",
"j#	c #A2ACB9",
"k#	c #A2ABB8",
"l#	c #A1ABB8",
"m#	c #9FA8B6",
"n#	c #9FA8B5",
"o#	c #959AA8",
"p#	c #404553",
"q#	c #8490A4",
"r#	c #545B69",
"s#	c #484E5B",
"t#	c #4C5260",
"u#	c #4F5463",
"v#	c #525765",
"w#	c #545967",
"x#	c #555A69",
"y#	c #565C6A",
"z#	c #4A505C",
"A#	c #4F5460",
"B#	c #4F5561",
"C#	c #4D525E",
"D#	c #505661",
"E#	c #798597",
"F#	c #808DA0",
"G#	c #818DA0",
"H#	c #858FA6",
"I#	c #828DA1",
"J#	c #828EA1",
"K#	c #747D91",
"L#	c #4A4E5D",
"M#	c #9FA9BC",
"N#	c #4F515F",
"O#	c #444352",
"P#	c #504F5F",
"Q#	c #555464",
"R#	c #5D5C6C",
"S#	c #656475",
"T#	c #686778",
"U#	c #6E6D7F",
"V#	c #45454E",
"W#	c #54545E",
"X#	c #565660",
"Y#	c #4C4C56",
"Z#	c #54535E",
"`#	c #545460",
" $	c #535359",
".$	c #9AA2B1",
"+$	c #9BA6B9",
"@$	c #929BAC",
"#$	c #758286",
"$$	c #8F98A8",
"%$	c #A0A9BC",
"&$	c #8990A4",
"*$	c #464857",
"=$	c #B9C0D3",
"-$	c #525460",
";$	c #373744",
">$	c #5C5C6E",
",$	c #737388",
"'$	c #828298",
")$	c #8D8CA3",
"!$	c #9090A7",
"~$	c #9898AF",
"{$	c #9C9CB3",
"]$	c #7C7C8E",
"^$	c #8E8E9F",
"/$	c #8F8FA1",
"($	c #868597",
"_$	c #8D8D9F",
":$	c #8E8EA0",
"<$	c #8E8E9B",
"[$	c #B9BECE",
"}$	c #B7BBD3",
"|$	c #80A08D",
"1$	c #30AB2D",
"2$	c #689C72",
"3$	c #C0C0DC",
"4$	c #9096AA",
"5$	c #2B2B35",
"6$	c #CED2E8",
"7$	c #B7B9C8",
"8$	c #A7A8B1",
"9$	c #B2B3BF",
"0$	c #BDBECB",
"a$	c #CBCCDB",
"b$	c #D5D6E6",
"c$	c #D7D8E8",
"d$	c #DBDCEC",
"e$	c #DEE0EE",
"f$	c #D7D8E6",
"g$	c #DDDEEC",
"h$	c #DDDEED",
"i$	c #DBDCE9",
"j$	c #DCDDEC",
"k$	c #DEE0EC",
"l$	c #DCE1F1",
"m$	c #D7DAF0",
"n$	c #C8D7DA",
"o$	c #82D188",
"p$	c #B8D5CA",
"q$	c #E3E3FC",
"r$	c #838598",
"s$	c #565764",
"t$	c #9395A5",
"u$	c #9294A3",
"v$	c #9091A1",
"w$	c #8F90A0",
"x$	c #8D8E9E",
"y$	c #8C8D9D",
"z$	c #8C8D9B",
"A$	c #8B8C9B",
"B$	c #8B8D9D",
"C$	c #8B8D9B",
"D$	c #8B8C9D",
"E$	c #878899",
"F$	c #878898",
"G$	c #8A8A9B",
"H$	c #958CA7",
"I$	c #8E8CA0",
"J$	c #808190",
"K$	c #1F1F26",
"                                                                ",
"                                                                ",
"            . + @ # # $ $ % & & * * = - - ; > , ' )             ",
"          ! ~ { ] ^ / ( _ : < [ } | 1 2 3 4 5 6 7 8 9           ",
"          0 a b c d e f g h i j k l m n o p q r s t u           ",
"          v w x y z A B C D E F G H I J K L M N O P Q           ",
"          R S T U V W X Y Z `  ...+.@.#.$.%.&.*.=.-.;.          ",
"        >.,.'.).!.~.{.].^./.(._.:.<.[.@.}.|.1.2.( 3.4.          ",
"        5.6.7.8.9.0.a.b.c.d.e.f.g.h.i.[.l j.k.l.m.n.o.          ",
"        p.q.r.s.t.u.v.w.x.y.z.A.+.B.C.[.D.E.F.G.m H.I.          ",
"        J.K.r.L.M.N.O.P.Q.R.S.T.U.V.W.=.[.X.Y.<.Z.`. +          ",
"        .+++@+#+$+%+L.u.&+*+=+-+;+>+,+'+)+X.!+~+$.7.{+          ",
"        ]+^+/+(+_+:+<+[+}+|+1+2+2+3+=.'+<._ 4+5+6+7 7+8+        ",
"        9+0+a+b+c+d+e+f+g+h+i+j+k+l+m+( j.[.n+o+p+e+q+r+        ",
"        s+3.t+u+v+v+w+x+y+z+A+B+C+D+E+F+G+k H+I+[.[+J+K+        ",
"        L+M+N+O+P+Q+R+S+T+U+V+W+X+G+Y+Z+G+`+ @G.D.u..@+@        ",
"        @@#@$@%@&@Q+*@=@-@;@;@>@,@'@)@!@~@~@{@]@[.^@/@p.        ",
"        (@#@_@:@<@[@}@|@1@2@3@4@5@`+6@5@-@7@8@} i.9@0@a@        ",
"        b@c@d@e@f@g@h@i@j@k@l@6@h@5@m@n@o@p@q@r@: Z+s@t@        ",
"        u@v@w@x@w@y@<@z@A@B@C@D@E@F@G@H@I@J@:@K@G+L@M@N@        ",
"        0@O@P@Q@R@S@T@!@o@U@V@W@X@Y@Z@`@ #.#+#@###$#%#&#        ",
"      *#=#-#;#>#,#'#)#!#,#~#{#=@]#^#/#V+(#_#:#<#[#}#%#|#        ",
"      1#2#3#7@E@B@B@4#E@5#6#6#7#8#;@9#>@0#a#a#b#c#Y@d#e#        ",
"      f#g#h#i#i#j#j#k#l#l#l#i#j#j#j#j#j#j#m#n#n#n#n#j#o#        ",
"      p#q#r#s#t#u#v#w#x#y#y#z#A#B#C#B#B#D#E#F#G#H#I#J#K#        ",
"      L#M#N#O#P#Q#R#S#T#U#U#V#W#X#Y#Z#`# $.$+$@$#$$$%$&$        ",
"      *$=$-$;$>$,$'$)$!$~${$]$^$/$($_$:$<$[$}$|$1$2$3$4$        ",
"      5$6$7$8$9$0$a$b$c$d$e$f$g$h$i$j$g$k$l$m$n$o$p$q$r$        ",
"        s$t$u$v$w$x$y$y$z$A$y$B$C$y$y$B$D$E$F$G$H$I$J$K$        ",
"                                                                ",
"                                                                ",
"                                                                "};
