/* XPM */
static char *Self_CopyDelDlg_XPM[]={
/* Self_CopyDelDlg */
"32 32 19 1",
"      c None",
"0     c #868686",
"1     c #AAAAAA",
"2     c #565656",
"3     c #FFFBF0",
"4     c #C0C0C0",
"5     c #4A4A4A",
"6     c #808000",
"7     c #FFFF8E",
"8     c #FFC66B",
"9     c #0000FF",
"a     c #969600",
"b     c #005032",
"c     c #DCDC00",
"d     c #262626",
"e     c #E6E6E6",
"f     c #000000",
"g     c #FFD48E",
"h     c #325000",
"                                ",
"                0               ",
"               012              ",
"              03342             ",
"             0333345            ",
"     6666666033333345           ",
"    677777803333933345          ",
"   677888a0333393333342         ",
"   67888a0333 9 339333456666    ",
"   6788a033339   9333 315886b   ",
"   67ca03   9       33334d886b  ",
"   67a0    9   9   9    e4586b  ",
"   670    9   9   9      e456b  ",
" aaaaaaaaaaaaaaaaaaaaaaaa4e45b  ",
"a333333333333333333333337a4e4f  ",
"a3777777777g77g7g7g777g778a4e4f ",
"a37777777777777777777g77g7a4ee4f",
"a3777g777g77g7777g7g777g77a4e4f ",
"a377777777g77g7g77777777g78a4f  ",
" a37777g7g777777777g7g7777gafh  ",
" a37g777777g7g77g7gg7g7g7ggahh  ",
" a37777g7g77777g7g77g7g7g7g8hh  ",
" a3777g7777g7g77gg7g77g7g7gghh  ",
"  a37g7g7g77g7g777g7gg7g7g7ghh  ",
"  a3777777g77g77gg7g77g7ggggah  ",
"  a3g777g777g7gg77g7gg7g7g7gah  ",
"  a37g7g77gg77g77gg7g7ggg7ggah  ",
"   a77g77g77gg7gg77g7g7g7gggah  ",
"   aggggggggggggggggggggggggah  ",
"   aaaaaaaaaaaaaaaaaaaaaaaaaah  ",
"    hhhhhhhhhhhhhhhhhhhhhhhhh   ",
"                                "};

