/* XPM */
static char * usb_xpm[] = {
"16 16 88 1",
" 	c None",
".	c #757575",
"+	c #A4A4A4",
"@	c #B1B1B1",
"#	c #B6B6B6",
"$	c #BABABA",
"%	c #BDBDBD",
"&	c #BFBFBF",
"*	c #AEAEAE",
"=	c #7E7E7E",
"-	c #7A7A7A",
";	c #858585",
">	c #808080",
",	c #818181",
"'	c #707070",
")	c #B5B5B5",
"!	c #D0D0D0",
"~	c #CACACA",
"{	c #C7C7C7",
"]	c #C4C4C4",
"^	c #C1C1C1",
"/	c #C0C0C0",
"(	c #DBDBDB",
"_	c #B4B4B4",
":	c #DCDCDC",
"<	c #E0E0E0",
"[	c #EAEAEA",
"}	c #EFEFEF",
"|	c #E8E8E8",
"1	c #999999",
"2	c #7C7C7C",
"3	c #BCBCBC",
"4	c #A2A2A2",
"5	c #9D9D9D",
"6	c #A8A8A8",
"7	c #A9A9A9",
"8	c #9C9C9C",
"9	c #D2D2D2",
"0	c #C3C3C3",
"a	c #DDDDDD",
"b	c #E7E7E7",
"c	c #ECECEC",
"d	c #9F9F9F",
"e	c #7B7B7B",
"f	c #989898",
"g	c #B0B0B0",
"h	c #898989",
"i	c #929292",
"j	c #C6C6C6",
"k	c #C8C8C8",
"l	c #DEDEDE",
"m	c #DFDFDF",
"n	c #9A9A9A",
"o	c #787878",
"p	c #727272",
"q	c #8E8E8E",
"r	c #949494",
"s	c #767676",
"t	c #B3B3B3",
"u	c #D7D7D7",
"v	c #CECECE",
"w	c #D5D5D5",
"x	c #D6D6D6",
"y	c #939393",
"z	c #909090",
"A	c #696969",
"B	c #616161",
"C	c #6C6C6C",
"D	c #6F6F6F",
"E	c #B8B8B8",
"F	c #CFCFCF",
"G	c #B7B7B7",
"H	c #686868",
"I	c #888888",
"J	c #828282",
"K	c #737373",
"L	c #6D6D6D",
"M	c #676767",
"N	c #717171",
"O	c #C5C5C5",
"P	c #A7A7A7",
"Q	c #838383",
"R	c #848484",
"S	c #8F8F8F",
"T	c #8D8D8D",
"U	c #ACACAC",
"V	c #969696",
"W	c #6E6E6E",
"                ",
"                ",
"                ",
"                ",
" .+@#$%&*=-.;>, ",
"')!~{]^/(_:<[}|1",
"2345678+909#abcd",
"e@fg5h;ij^k$lm(n",
"o8p>qrs.t3uvwxky",
"pzABC,BD4E$+FFGq",
"HIJKLAMNy*0OxkPh",
" MeQ;;RQSITf7UVQ",
"      WpKWC     ",
"                ",
"                ",
"                "};
