/* XPM */
static char *wxOpenCommanderFrm_ID_MNU_EXECUTE_1051_XPM[]={
/* wxOpenCommanderFrm_ID_MNU_EXECUTE_1051 */
"16 16 8 1",
"      c None",
"0     c #3DB900",
"1     c #319600",
"2     c #009600",
"3     c #007325",
"4     c #007300",
"5     c #0E0E0E",
"6     c #FFFFFF",
"                ",
"0               ",
"100             ",
"11100           ",
"111110          ",
"11111100        ",
"1111111100      ",
"111111222200    ",
"1111222223345   ",
"1122222333555   ",
"122223335555    ",
"2222335555      ",
"22333555        ",
"3335555         ",
"35555           ",
"655             "};

