/* XPM */
static char *wxOpenCommanderFrm_ID_MNU_DELETE_1047_XPM[]={
/* wxOpenCommanderFrm_ID_MNU_DELETE_1047 */
"16 16 110 2",
"      c None",
" 0    c #000000",
" 1    c #1B0805",
" 2    c #1B0806",
" 3    c #190705",
" 4    c #1E0805",
" 5    c #080400",
" 6    c #AD3322",
" 7    c #B53523",
" 8    c #230A07",
" 9    c #110404",
" a    c #1A0906",
" b    c #962D1F",
" c    c #DB422D",
" d    c #44140D",
" e    c #160706",
" f    c #170704",
" g    c #A63121",
" h    c #EB452E",
" i    c #E8442D",
" j    c #D73F29",
" k    c #1A0705",
" l    c #030300",
" m    c #702216",
" n    c #FA4B33",
" o    c #F74A32",
" p    c #F44931",
" q    c #802619",
" r    c #100403",
" s    c #722216",
" t    c #EA452E",
" u    c #E5432C",
" v    c #C33925",
" w    c #1A0805",
" x    c #160604",
" y    c #9E3021",
" z    c #F14830",
" A    c #EF472F",
" B    c #D33F29",
" C    c #E9452D",
" D    c #E7432D",
" E    c #E4422C",
" F    c #DA3F29",
" G    c #270B08",
" H    c #AF3524",
" I    c #EE472F",
" J    c #EC452E",
" K    c #E9442D",
" L    c #E7432C",
" M    c #E1412B",
" N    c #43130D",
" O    c #0D0303",
" P    c #180704",
" Q    c #6A1F15",
" R    c #E6432C",
" S    c #E4422B",
" T    c #B93523",
" U    c #0F0502",
" V    c #100503",
" W    c #BC3725",
" X    c #E3422B",
" Y    c #E0412A",
" Z    c #DE402A",
" &    c #DB3F29",
"0     c #A62E1F",
"00    c #050000",
"01    c #190806",
"02    c #782417",
"03    c #DD3F29",
"04    c #DB3E29",
"05    c #D83D28",
"06    c #D63C27",
"07    c #C33723",
"08    c #290B07",
"09    c #0E0303",
"0a    c #48150E",
"0b    c #E2412B",
"0c    c #DF402A",
"0d    c #D23C27",
"0e    c #88271A",
"0f    c #D63D28",
"0g    c #D53C27",
"0h    c #D23B26",
"0i    c #D03A25",
"0j    c #95291A",
"0k    c #150503",
"0l    c #1D0906",
"0m    c #D53E29",
"0n    c #3A100B",
"0o    c #0D0503",
"0p    c #310E09",
"0q    c #C13623",
"0r    c #CF3A25",
"0s    c #CB3924",
"0t    c #320E09",
"0u    c #1C0806",
"0v    c #A52F20",
"0w    c #DC3F29",
"0x    c #6B1F13",
"0y    c #140604",
"0z    c #1B0705",
"0A    c #752015",
"0B    c #3E110B",
"0C    c #130404",
"0D    c #5F1B11",
"0E    c #5D1B11",
"0F    c #180605",
"0G    c #080303",
"0H    c #040000",
"0I    c #030000",
"                                ",
"                   0 1 2 0      ",
"     0 3 4 5     0 3 6 7 8 9    ",
"     a b c d e 0 f g h i j k    ",
"   l m n o p q r s t i u v w    ",
"   x y o p z A B C D E F G 0    ",
"   0 w H z I J K L E M N O      ",
"     0 P Q i K R S M T U 0      ",
"       0 V W R X Y Z &0  100    ",
"      0102 u X Y030405060708 0  ",
"    090a u0b0c0d0e0f0g0h0i0j0k  ",
"    0l0m0b0c &0n0o0p0q0r0s0t 0  ",
"    0u0v Z0w0x0y  000z0A0B0C    ",
"     0 x0D0E0F       00G0H      ",
"       0 00I                    ",
"                                "};

