/* XPM */
static char *wxOpenCommanderFrm_ID_MNU_COPY_1046_XPM[]={
/* wxOpenCommanderFrm_ID_MNU_COPY_1046 */
"16 16 4 1",
"      c None",
"0     c #E52904",
"1     c #5F5B5B",
"2     c #F4F11F",
" 0000000001     ",
" 0222222201     ",
" 0222222201     ",
" 0222222201     ",
" 022200000000001",
" 022202222222001",
" 022202222222201",
" 022202222222201",
" 022202222222201",
" 022202222222201",
" 000002222222201",
" 111102222222201",
"     02222222201",
"     02222222201",
"     00000000001",
"     11111111111"};

