/* XPM */
static char * exit_xpm[] = {
"32 32 51 1",
" 	c #FFFFFF",
".	c #F8F8F8",
"+	c #FDFDFD",
"@	c #A6A6A6",
"#	c #707070",
"$	c #646464",
"%	c #5A5A5A",
"&	c #575757",
"*	c #868686",
"=	c #7C7C7C",
"-	c #7E7E7E",
";	c #737373",
">	c #535353",
",	c #2E2E2E",
"'	c #0D0D0D",
")	c #000000",
"!	c #FF0000",
"~	c #6F6F6F",
"{	c #6D6D6D",
"]	c #6A6A6A",
"^	c #606060",
"/	c #494949",
"(	c #2B2B2B",
"_	c #111111",
":	c #636363",
"<	c #545454",
"[	c #404040",
"}	c #7D7D7D",
"|	c #ACACAC",
"1	c #878787",
"2	c #7B7B7B",
"3	c #848484",
"4	c #9F9F9F",
"5	c #5D5D5D",
"6	c #FAFAFA",
"7	c #D5D5D5",
"8	c #ABABAB",
"9	c #898989",
"0	c #F4F4F4",
"a	c #D2D2D2",
"b	c #888888",
"c	c #7A7A7A",
"d	c #7F7F7F",
"e	c #EEEEEE",
"f	c #E1E1E1",
"g	c #C7C7C7",
"h	c #A4A4A4",
"i	c #8A8A8A",
"j	c #EFEFEF",
"k	c #A1A1A1",
"l	c #B8B8B8",
"                                ",
"                                ",
"        ..+                     ",
"        @#$%&&&&&&&&&&&         ",
"        *&=-;>,'))))))&         ",
"        =!!!!~{]^/(_))&         ",
"        -!!!!!!!!{:<[)&         ",
"        }!!!!!!!!!!!|)&         ",
"        }!!!!!!!!!!!1)&         ",
"        }!!!!!!!!!!!2)&         ",
"        }!!!!!!!!!!!-)&         ",
"        }!!!!!!!!!!!})&         ",
"        }!!!!!!!!!!!})&         ",
"        }!!!!!!!!!!!})&         ",
"        }!!!!!!!!!!!})&         ",
"        }!!!!!!!!)!!})&         ",
"        }!!!!!!!)))!})&         ",
"        }!!!!!!!!)!!})&         ",
"        }!!!!!!!!!!!})&         ",
"        }!!!!!!!!!!!})&         ",
"        }!!!!!!!!!!!})&         ",
"        -!!!!!!!!!!!})&         ",
"        =!!!!!!!!!!!})&         ",
"        3!!!!!!!!!!!})&         ",
"   )))))45~!!!!!!!!!}&&)))))    ",
"        6789-=}!!!!!-           ",
"            0a|bcd9!c           ",
"             +.efgh>i           ",
"                 +jkl           ",
"                      6         ",
"                                ",
"                                "};
