/* XPM */
static char * one_xpm[] = {
"32 32 13 1",
" 	c #FFFFFF",
".	c #F6F6F6",
"+	c #818181",
"@	c #4D4D4D",
"#	c #191919",
"$	c #000000",
"%	c #535353",
"&	c #E7E7E7",
"*	c #181818",
"=	c #FAFAFA",
"-	c #E2E2E2",
";	c #838383",
">	c #2B2B2B",
"                                ",
"                                ",
"                                ",
"                                ",
"                                ",
"                                ",
"                                ",
"                                ",
"                                ",
"           .+@#$%               ",
"           &$*@$%               ",
"           =-  $%               ",
"               $%               ",
"               $%               ",
"               $%               ",
"               $%               ",
"               $%               ",
"               $%               ",
"               $%               ",
"               $%               ",
"            ;;;$>;;             ",
"            $$$$$$$             ",
"                                ",
"                                ",
"                                ",
"                                ",
"                                ",
"                                ",
"                                ",
"                                ",
"                                ",
"                                "};
