/* XPM */
static char * drag_arrows_disabled_xpm[] = {
"9 6 4 1",
" 	c None",
".	c #000000",
"+	c #8E8E8A",
"@	c #FFFFFF",
"..+..+...",
".++@.++..",
"+++@.+++.",
".++@.++@@",
"..+@.+@@.",
"...@..@.."};
