/* XPM */
static char * drag_arrows_normal_xpm[] = {
"8 5 3 1",
" 	c None",
".	c #FFFFFF",
"+	c #000000",
"..+..+..",
".++..++.",
"+++..+++",
".++..++.",
"..+..+.."};
