/* XPM */
static char * computer_xpm[] = {
"16 16 143 2",
"  	c None",
". 	c #929292",
"+ 	c #8E8E8E",
"@ 	c #8F8F8F",
"# 	c #6A6A6A",
"$ 	c #909090",
"% 	c #B3B3B3",
"& 	c #BDBDBD",
"* 	c #CFCFCF",
"= 	c #E5E5E5",
"- 	c #F2F2F2",
"; 	c #EFEFEF",
"> 	c #717171",
", 	c #7B7B7B",
"' 	c #9B9B9B",
") 	c #C7C7C7",
"! 	c #D8D9D9",
"~ 	c #D9DADA",
"{ 	c #D6D7D8",
"] 	c #BABFC1",
"^ 	c #9BA6AD",
"/ 	c #A2A7A9",
"( 	c #E6E6E6",
"_ 	c #E7E7E7",
": 	c #727272",
"< 	c #ABABAB",
"[ 	c #D3D4D5",
"} 	c #BCC1C3",
"| 	c #ACB5BB",
"1 	c #879BA7",
"2 	c #668596",
"3 	c #5D859A",
"4 	c #4784A6",
"5 	c #2A7CA9",
"6 	c #859AA5",
"7 	c #E4E4E4",
"8 	c #B6B6B6",
"9 	c #7F898F",
"0 	c #6898B3",
"a 	c #6DA3C2",
"b 	c #66A9CF",
"c 	c #52A2CF",
"d 	c #328FC4",
"e 	c #167BB3",
"f 	c #0E75AE",
"g 	c #8BA2AF",
"h 	c #E2E2E2",
"i 	c #B5B5B5",
"j 	c #738087",
"k 	c #75BCE4",
"l 	c #75C0EC",
"m 	c #5CB3E4",
"n 	c #369AD3",
"o 	c #238AC3",
"p 	c #127AB3",
"q 	c #0C74AD",
"r 	c #97ADB9",
"s 	c #E1E1E1",
"t 	c #B4B4B4",
"u 	c #738188",
"v 	c #68B5E1",
"w 	c #5FB5E6",
"x 	c #40A4DE",
"y 	c #2F96D0",
"z 	c #2289C2",
"A 	c #1179B2",
"B 	c #A1B7C3",
"C 	c #DFDFDF",
"D 	c #78858D",
"E 	c #53A6D6",
"F 	c #3E9FD6",
"G 	c #3097D1",
"H 	c #278EC8",
"I 	c #1B83BC",
"J 	c #0E76AF",
"K 	c #ABC1CC",
"L 	c #DEDEDE",
"M 	c #707070",
"N 	c #B2B2B2",
"O 	c #7E8B93",
"P 	c #318FC3",
"Q 	c #2188C1",
"R 	c #1F86C0",
"S 	c #1980BA",
"T 	c #1178B2",
"U 	c #B9CDD8",
"V 	c #DCDCDC",
"W 	c #DDDDDD",
"X 	c #B1B1B1",
"Y 	c #849197",
"Z 	c #297EAD",
"` 	c #237DAF",
" .	c #227EB1",
"..	c #1E7CB0",
"+.	c #197AAF",
"@.	c #1579AF",
"#.	c #1177AE",
"$.	c #C4D7E2",
"%.	c #DADADA",
"&.	c #B0B0B0",
"*.	c #ADB1B3",
"=.	c #93A6B0",
"-.	c #95AAB5",
";.	c #9AAFBB",
">.	c #A1B6C2",
",.	c #A9BECA",
"'.	c #B5CAD6",
").	c #C0D4E0",
"!.	c #EEF2F4",
"~.	c #D9D9D9",
"{.	c #6F6F6F",
"].	c #C0C0C0",
"^.	c #C5C5C5",
"/.	c #CBCBCB",
"(.	c #D1D1D1",
"_.	c #D5D5D5",
":.	c #E0E0E0",
"<.	c #6C6C6C",
"[.	c #898989",
"}.	c #808080",
"|.	c #949494",
"1.	c #A0A0A0",
"2.	c #9C9C9C",
"3.	c #959595",
"4.	c #7E7E7E",
"5.	c #747474",
"6.	c #6E6E6E",
"7.	c #676767",
"8.	c #686868",
"9.	c #A3A3A3",
"0.	c #B9B9B9",
"a.	c #BCBCBC",
"b.	c #5A5A5A",
"c.	c #8D8D8D",
"d.	c #BEBEBE",
"e.	c #CECECE",
"f.	c #9D9D9D",
"g.	c #555555",
"h.	c #8B8B8B",
"i.	c #939393",
"j.	c #8C8C8C",
"k.	c #888888",
"l.	c #848484",
"                    . + @ #     ",
"            $ % & * = - ; >     ",
"    , ' ) ! ~ { ] ^ / ( _ :     ",
"  < [ } | 1 2 3 4 5 6 7 _ :     ",
"  8 9 0 a b c d e f g h = >     ",
"  i j k l m n o p q r s h >     ",
"  t u v w x y z A q B C s >     ",
"  % D E F G H I J q K L C M     ",
"  N O P Q R S T q q U V W M     ",
"  X Y Z `  ...+.@.#.$.%.V M     ",
"  &.*.=.-.;.>.,.'.).!.~.%.{.    ",
"  . ].^./.(._.~.W :.h C ^.<.    ",
"          [.}.|.1.2.3.. 4.      ",
"      5.6.7.8.9.0.a.b.          ",
"    c.d.e.~.:.L /.f.g.          ",
"      h.i.$ j.k.l.              "};
