/* XPM */
static char * copy_xpm[] = {
"16 16 23 1",
" 	c None",
".	c #AFB5AB",
"+	c #FFFFFF",
"@	c #EDEDEB",
"#	c #EFEFED",
"$	c #EFEFEF",
"%	c #B0B5AC",
"&	c #F1F1EF",
"*	c #EEEEEC",
"=	c #EFEFEE",
"-	c #F0F0EE",
";	c #F0F0EF",
">	c #F1F1F1",
",	c #F1F1F0",
"'	c #F2F2F1",
")	c #F3F3F1",
"!	c #F2F2F2",
"~	c #F3F3F2",
"{	c #F4F4F3",
"]	c #F4F4F4",
"^	c #F5F5F4",
"/	c #F5F5F5",
"(	c #F6F6F6",
"...........     ",
".+++++++++.     ",
".+@###$$$+.     ",
".+###%%%%%%%%%%%",
".+#$&%+++++++++%",
".+#&&%+*#=-;;;+%",
".+$&>%+#=-;,,,+%",
".+&&>%+=;&,'''+%",
".+&>)%+-&,'!~~+%",
".+&>)%+;,'~~{{+%",
".+&>)%+&,'~{]]+%",
".++++%+&'~{^//+%",
".....%+,'~{/((+%",
"     %+,'~{/((+%",
"     %+++++++++%",
"     %%%%%%%%%%%"};
