/* XPM */
static char * delete_xpm[] = {
"16 16 57 1",
" 	c None",
".	c #A70000",
"+	c #A60000",
"@	c #C44444",
"#	c #C44545",
"$	c #C24040",
"%	c #C34343",
"&	c #A50000",
"*	c #C13E3E",
"=	c #E06666",
"-	c #DE5D5D",
";	c #C33D3D",
">	c #C23A3A",
",	c #DE5F5F",
"'	c #E06868",
")	c #BF3535",
"!	c #DD5757",
"~	c #CF0E0E",
"{	c #DB4E4E",
"]	c #BE3535",
"^	c #BD3434",
"/	c #DB4F4F",
"(	c #CF1010",
"_	c #DD5858",
":	c #BF3636",
"<	c #BE2C2C",
"[	c #D94343",
"}	c #CE0C0C",
"|	c #DB4D4D",
"1	c #D94545",
"2	c #BD2A2A",
"3	c #B72626",
"4	c #D83D3D",
"5	c #CE0A0A",
"6	c #D94242",
"7	c #B62222",
"8	c #B41B1B",
"9	c #D73535",
"0	c #CE0909",
"a	c #D63434",
"b	c #B31B1B",
"c	c #B61515",
"d	c #D22121",
"e	c #CD0707",
"f	c #D42626",
"g	c #B20D0D",
"h	c #CF1616",
"i	c #CD0404",
"j	c #CF1414",
"k	c #B00D0D",
"l	c #D01717",
"m	c #B30F0F",
"n	c #B00606",
"o	c #CD0A0A",
"p	c #CD0909",
"q	c #B20505",
"r	c #AE0000",
"                ",
"                ",
"    .+    .+    ",
"   +@#+  +$%+   ",
"  &*=-;..>,'$+  ",
"  +)!~{]^/(_:&  ",
"   +<[}||~12+   ",
"    .345}67.    ",
"    .8905ab.    ",
"   +cdeffedc+   ",
"  &ghijkgjilm+  ",
"  +nopq..qpon&  ",
"   +rr+  +rr+   ",
"    +.    +.    ",
"                ",
"                "};
