/* XPM */
static char * edit_xpm[] = {
"16 16 79 1",
" 	c None",
".	c #A0A69C",
"+	c #FFFFFF",
"@	c #E2E2DE",
"#	c #E2E2DF",
"$	c #E4E4E0",
"%	c #E5E5E1",
"&	c #E6E6E3",
"*	c #E7E7E4",
"=	c #E3E3DF",
"-	c #E4E4E1",
";	c #E5E5E2",
">	c #E8E8E5",
",	c #E9E9E6",
"'	c #E9E9E7",
")	c #E8E2DC",
"!	c #B33515",
"~	c #AB683F",
"{	c #EAEAE7",
"]	c #DDD4C6",
"^	c #A51B14",
"/	c #C85A59",
"(	c #AB0F0B",
"_	c #B04200",
":	c #EAEAE8",
"<	c #D5D0B7",
"[	c #8D8F8A",
"}	c #CFCFCD",
"|	c #E3B0AF",
"1	c #C61918",
"2	c #A40000",
"3	c #EBEBE9",
"4	c #E1D7AA",
"5	c #C3AA3A",
"6	c #DCDDDB",
"7	c #D3D3D1",
"8	c #8A8C87",
"9	c #A20D0D",
"0	c #EBEBE8",
"a	c #ECECE9",
"b	c #DCCD89",
"c	c #D3B83C",
"d	c #FBF6D3",
"e	c #EEE498",
"f	c #888A85",
"g	c #8C8D83",
"h	c #A19782",
"i	c #EBEBE7",
"j	c #D6C263",
"k	c #DCC65D",
"l	c #FDF8D8",
"m	c #F9EB76",
"n	c #D1B119",
"o	c #C5B051",
"p	c #F8F7F1",
"q	c #EBEAE0",
"r	c #D1B942",
"s	c #E7D684",
"t	c #FDF8D2",
"u	c #F5E25E",
"v	c #CBAA11",
"w	c #D8C56C",
"x	c #EEEEEB",
"y	c #CBAA1C",
"z	c #F0E5A7",
"A	c #FEF7C1",
"B	c #EED846",
"C	c #C9A70E",
"D	c #DED193",
"E	c #EEEEEC",
"F	c #AD9B4A",
"G	c #EDE5A4",
"H	c #E5CC34",
"I	c #CAA811",
"J	c #F1E9C3",
"K	c #7B7037",
"L	c #9F881B",
"M	c #C3A20D",
"N	c #A5A587",
"                ",
"  ............  ",
"  .++++++++++.  ",
"  .+@@@#$%&*+.  ",
"  .+@@=-;&>,+.  ",
"  .+=$%&*>')!~  ",
"  .+-;&>,{]^/(_ ",
"  .+&*>':<[}|12 ",
"  .+>,{3456789  ",
"  .+'0abcdefgh  ",
"  .+3ijklmnop.  ",
"  .+qrstuvwx+.  ",
"  .+yzABCDEE+.  ",
"  .+FGHIJ++++.  ",
"  ..KLMN......  ",
"                "};
