/* XPM */
static char * exec_xpm[] = {
"16 16 8 1",
" 	c None",
".	c #3DB900",
"+	c #319600",
"@	c #009600",
"#	c #007325",
"$	c #007300",
"%	c #0E0E0E",
"&	c #181818",
"                ",
".               ",
"+..             ",
"+++..           ",
"+++++.          ",
"++++++..        ",
"++++++++..      ",
"++++++@@@@..    ",
"++++@@@@@##$%   ",
"++@@@@@###%%%   ",
"+@@@@###%%%&    ",
"@@@@##%%%%      ",
"@@###%%%        ",
"###%%%%         ",
"#%%%%           ",
" %%             "};
