/* XPM */
static char * filter_xpm[] = {
"16 16 157 2",
"  	c None",
". 	c #A4A4A4",
"+ 	c #AFAFAF",
"@ 	c #C9C9C9",
"# 	c #E4E4E4",
"$ 	c #E1E1E1",
"% 	c #E2E2E2",
"& 	c #E3E3E3",
"* 	c #D8D8D8",
"= 	c #C4C5C3",
"- 	c #ACAEA9",
"; 	c #ADAFAB",
"> 	c #AEB0AC",
", 	c #AFB0AC",
"' 	c #AFB1AC",
") 	c #AEB0AB",
"! 	c #ADAFAA",
"~ 	c #D6D6D6",
"{ 	c #DADADA",
"] 	c #CFCFCF",
"^ 	c #C4C5C2",
"/ 	c #C5C6C4",
"( 	c #C7C8C6",
"_ 	c #C8C9C6",
": 	c #C8C9C7",
"< 	c #C6C7C5",
"[ 	c #C5C6C3",
"} 	c #DBDCDB",
"| 	c #DDDDDD",
"1 	c #D2D3D2",
"2 	c #C7C9C6",
"3 	c #CACBC8",
"4 	c #A9ABA7",
"5 	c #90928D",
"6 	c #8F918C",
"7 	c #A1A39F",
"8 	c #C1C2BF",
"9 	c #C9CAC7",
"0 	c #DFDFDF",
"a 	c #CACACA",
"b 	c #E0E0E0",
"c 	c #CFCFCD",
"d 	c #B6B8B3",
"e 	c #AAACA7",
"f 	c #999B97",
"g 	c #AEB0AE",
"h 	c #C9CBCA",
"i 	c #CDCFCE",
"j 	c #BCBFBD",
"k 	c #9C9E9A",
"l 	c #A5A7A2",
"m 	c #DFE0DF",
"n 	c #D7D8D7",
"o 	c #C7C8C5",
"p 	c #A5A6A2",
"q 	c #BCBFBE",
"r 	c #B9C1C7",
"s 	c #B2BCC2",
"t 	c #B4BEC4",
"u 	c #C2CBD1",
"v 	c #CFD3D3",
"w 	c #ACAEAA",
"x 	c #DADBDA",
"y 	c #CBCBCB",
"z 	c #E5E5E5",
"A 	c #DEDEDD",
"B 	c #B5B6B3",
"C 	c #AFB1AF",
"D 	c #BCC4CA",
"E 	c #CBD3DB",
"F 	c #D8DDE2",
"G 	c #D8DEE3",
"H 	c #D4DBE3",
"I 	c #CDD5DC",
"J 	c #C5C8C8",
"K 	c #BEBEBC",
"L 	c #E6E6E6",
"M 	c #D6D7D5",
"N 	c #969993",
"O 	c #C7CBCB",
"P 	c #A8B6C0",
"Q 	c #BDC7CB",
"R 	c #CDD2D3",
"S 	c #CDD3D4",
"T 	c #C0C8CD",
"U 	c #B3BFC8",
"V 	c #D3D8DD",
"W 	c #A3A4A1",
"X 	c #E7E7E7",
"Y 	c #DBDBDA",
"Z 	c #9A9C98",
"` 	c #CCD0D1",
" .	c #A5B6C5",
"..	c #C0CBD2",
"+.	c #C9D2D7",
"@.	c #C9D1D6",
"#.	c #C1CCD2",
"$.	c #AFBFCD",
"%.	c #CED6DB",
"&.	c #A2A39F",
"*.	c #CCCCCC",
"=.	c #B4B5B2",
"-.	c #BFC2C2",
";.	c #ABBCCB",
">.	c #B2C4D7",
",.	c #C1D0DF",
"'.	c #C2D2E1",
").	c #B8C9DA",
"!.	c #A8B9C9",
"~.	c #BEC2C3",
"{.	c #B3B3AE",
"].	c #BFC0BC",
"^.	c #A8A9A5",
"/.	c #C8CED2",
"(.	c #A6B7C8",
"_.	c #99AFC5",
":.	c #A5BCD2",
"<.	c #A4B7C9",
"[.	c #BCC4C8",
"}.	c #AAA8A0",
"|.	c #B79F77",
"1.	c #C1BCB3",
"2.	c #CDCDCC",
"3.	c #AAABA8",
"4.	c #B9BDBD",
"5.	c #C7CFD5",
"6.	c #C6CED4",
"7.	c #B8BDBE",
"8.	c #A29C8E",
"9.	c #BBA47C",
"0.	c #D1B383",
"a.	c #A68A5C",
"b.	c #CECECD",
"c.	c #B1B2B0",
"d.	c #9B9D99",
"e.	c #9A9B97",
"f.	c #9D9D97",
"g.	c #9B8257",
"h.	c #AF7923",
"i.	c #DAAF6A",
"j.	c #D0B07E",
"k.	c #A07124",
"l.	c #EAEAEA",
"m.	c #E9E9E9",
"n.	c #D5D0C7",
"o.	c #B39361",
"p.	c #B2791E",
"q.	c #CC9D52",
"r.	c #A57527",
"s.	c #B0B0B0",
"t.	c #AEAEAE",
"u.	c #ABABAB",
"v.	c #A9A9A9",
"w.	c #A7A7A7",
"x.	c #9B968F",
"y.	c #916E36",
"z.	c #99691A",
"  . + + + + + + + + + + + + .   ",
"  @ # $ $ $ % % & & % % $ # @   ",
"  @ * = - ; > , ' ' , ) ! ~ @   ",
"  @ { ] ^ / ( _ : : ( < [ } @   ",
"  @ | 1 2 3 = 4 5 6 7 8 9 0 a   ",
"  a b c d e f g h i j k l m a   ",
"  a % n o p q r s t u v w x y   ",
"  a z A B C D E F G H I J K y   ",
"  y L M N O P Q R S T U V W y   ",
"  y X Y Z `  ...+.@.#.$.%.&.*.  ",
"  y X $ =.-.;.>.,.'.).!.~.{.*.  ",
"  a L n ].^./.(._.:.<.[.}.|.1.  ",
"  a # # X 2.3.4.5.6.7.8.9.0.a.  ",
"  a % $ & 0 b.c.d.e.f.g.h.i.j.k.",
"  a l.m.l.& | b L & | n.o.p.q.r.",
"  . s.s.s.t.u.v.v.v.v.w.x.y.z.  "};
