/* XPM */
static char * floppy_xpm[] = {
"32 32 207 2",
"  	c None",
". 	c #000000",
"+ 	c #131313",
"@ 	c #414141",
"# 	c #2A2A2A",
"$ 	c #161616",
"% 	c #020202",
"& 	c #1B1B1B",
"* 	c #C9C9C9",
"= 	c #787878",
"- 	c #6C6C6C",
"; 	c #454545",
"> 	c #060606",
", 	c #1E1E1E",
"' 	c #A7A7A7",
") 	c #B8B8B8",
"! 	c #EDEDED",
"~ 	c #ACACAC",
"{ 	c #5D5D5D",
"] 	c #595959",
"^ 	c #363636",
"/ 	c #080808",
"( 	c #1D1D1D",
"_ 	c #AAAAAA",
": 	c #979797",
"< 	c #707070",
"[ 	c #8E8E8E",
"} 	c #E5E5E5",
"| 	c #9C9C9C",
"1 	c #484848",
"2 	c #303030",
"3 	c #151515",
"4 	c #191919",
"5 	c #CBCBCB",
"6 	c #838383",
"7 	c #676767",
"8 	c #585858",
"9 	c #797979",
"0 	c #D9D9D9",
"a 	c #929292",
"b 	c #3C3C3C",
"c 	c #383838",
"d 	c #2B2B2B",
"e 	c #202020",
"f 	c #0A0A0A",
"g 	c #181818",
"h 	c #C8C8C8",
"i 	c #FFFFFF",
"j 	c #F9F9F9",
"k 	c #D5D5D5",
"l 	c #6C6D6D",
"m 	c #4E4E4E",
"n 	c #3E3E3E",
"o 	c #616161",
"p 	c #C4C4C4",
"q 	c #898888",
"r 	c #2D2D2D",
"s 	c #292929",
"t 	c #0E0E0E",
"u 	c #F3F3F3",
"v 	c #EFEEEE",
"w 	c #F1F1F1",
"x 	c #C8C7C7",
"y 	c #555555",
"z 	c #333333",
"A 	c #1C1C1C",
"B 	c #757575",
"C 	c #BDBDBD",
"D 	c #4D4D4D",
"E 	c #111111",
"F 	c #EFEFEF",
"G 	c #EAE9E9",
"H 	c #E4E4E4",
"I 	c #E6E6E6",
"J 	c #B6B6B6",
"K 	c #525252",
"L 	c #686868",
"M 	c #393939",
"N 	c #343434",
"O 	c #3B3B3B",
"P 	c #434343",
"Q 	c #141414",
"R 	c #C6C6C6",
"S 	c #DDDDDD",
"T 	c #D4D4D4",
"U 	c #AEAEAE",
"V 	c #A3A3A3",
"W 	c #696969",
"X 	c #3D3D3D",
"Y 	c #3F3F3F",
"Z 	c #C2C2C2",
"` 	c #4B4B4B",
" .	c #4F4F4F",
"..	c #717171",
"+.	c #F8F8F8",
"@.	c #F0F0F0",
"#.	c #E5E4E4",
"$.	c #DEDEDE",
"%.	c #D6D6D6",
"&.	c #CDCECE",
"*.	c #B9B9B9",
"=.	c #424343",
"-.	c #959595",
";.	c #FEFEFE",
">.	c #FDFDFD",
",.	c #6F6F6F",
"'.	c #464646",
").	c #5C5C5C",
"!.	c #565656",
"~.	c #010101",
"{.	c #5E5E5E",
"].	c #7A7A7A",
"^.	c #E7E6E6",
"/.	c #DFDFDF",
"(.	c #D7D7D7",
"_.	c #CFCFCF",
":.	c #CACACA",
"<.	c #BBBABA",
"[.	c #747373",
"}.	c #494949",
"|.	c #444444",
"1.	c #848484",
"2.	c #F5F5F5",
"3.	c #FCFCFC",
"4.	c #E0E0E0",
"5.	c #E2E2E2",
"6.	c #666666",
"7.	c #949494",
"8.	c #7E7E7E",
"9.	c #6D6D6D",
"0.	c #646464",
"a.	c #ADADAD",
"b.	c #D8D8D8",
"c.	c #CBCACA",
"d.	c #BAB9B9",
"e.	c #727272",
"f.	c #4A4A4A",
"g.	c #474747",
"h.	c #878787",
"i.	c #F7F7F7",
"j.	c #E3E3E3",
"k.	c #C5C5C5",
"l.	c #ECECEC",
"m.	c #6B6B6B",
"n.	c #070707",
"o.	c #656565",
"p.	c #A0A0A0",
"q.	c #CCCCCC",
"r.	c #B9B8B8",
"s.	c #898989",
"t.	c #EBEBEB",
"u.	c #EAEAEA",
"v.	c #D1D1D1",
"w.	c #858585",
"x.	c #6A6A6A",
"y.	c #909090",
"z.	c #737373",
"A.	c #0D0D0D",
"B.	c #252525",
"C.	c #818181",
"D.	c #5A5A5A",
"E.	c #D0D0D0",
"F.	c #BBBBBB",
"G.	c #DADADA",
"H.	c #C3C3C3",
"I.	c #C1C1C1",
"J.	c #BFBFBF",
"K.	c #2C2C2C",
"L.	c #515151",
"M.	c #888888",
"N.	c #FBFBFB",
"O.	c #8F8F8F",
"P.	c #262626",
"Q.	c #424242",
"R.	c #868686",
"S.	c #F6F6F6",
"T.	c #DBDBDB",
"U.	c #FAFAFA",
"V.	c #E7E7E7",
"W.	c #C7C7C7",
"X.	c #B5B5B5",
"Y.	c #3A3A3A",
"Z.	c #7C7C7C",
"`.	c #040404",
" +	c #323232",
".+	c #353535",
"++	c #F4F4F4",
"@+	c #808080",
"#+	c #050505",
"$+	c #313131",
"%+	c #535353",
"&+	c #232323",
"*+	c #F2F2F2",
"=+	c #E9E9E9",
"-+	c #EEEEEE",
";+	c #8A8A8A",
">+	c #2E2E2E",
",+	c #B0B0B0",
"'+	c #A5A5A5",
")+	c #D2D2D2",
"!+	c #BABABA",
"~+	c #171717",
"{+	c #A8A8A8",
"]+	c #373737",
"^+	c #626262",
"/+	c #BCBCBC",
"(+	c #9E9E9E",
"                                                                ",
"                            . .                                 ",
"                          + @ # $ % .                           ",
"                        & * * = - ; > .                         ",
"                      , ' ) ! ~ { ] ^ / .                       ",
"                    ( _ : < [ } | 1 ; 2 3 >                     ",
"                  4 5 ! 6 7 8 9 0 a b c d e f                   ",
"                g h i j k l m n o p q c r s d t                 ",
"              g h i u v w x y z A B C D r 2 z ^ E               ",
"            & h i u F G H I J c K ' L M N O c n P Q             ",
"          + R i u v G H S k T U V W X Y [ Z B Y `  .$           ",
"        > ..p +.@.G #.$.%.&.* *.W =.n -.;.>.} ,.'.).!.E         ",
"      ~.{.a ].*.w ^./.(._.:.<.[.}.|.1.2.3.4.5._.6.8 7  .f       ",
"    ~.{ 7.8.9.0.a.I b._.c.d.e.f.g.h.i.i j.k.j.l.h e.W m.` n.    ",
"  / {.7.8.< o.).!.p.%.q.r.,.f.}.s.i.i t.h u.! v.k * w.x.y.z.A.  ",
". B.[ C.< 0.D.!. .` 7.d.m.1 }.s.i.i F E.@.2.T F.b.G.H.6 I.J.K.. ",
". . 2 ..6.8 L.D }.; }.D.; '.M.i.i F b.i.N.0 J.4./.H.p J.O.g.%   ",
"  . . P.8 m 1 |.Q.@ @ @ Q.R.S.i w T.U.i S Z V.I W.X.q.T L .     ",
"    . . ( P Y O Y.Y.X O C.S.i u 4.N.i } W.! ! q.*.T 0 Z.`.      ",
"      . . & ^ z  +.+c Z.S.i 2.I 3.i u.E.u ++v.C T.4.@+%         ",
"        . #+e # K.$+%+++i +.l.>.i ! 0 U.j %.H.5.I 1.%           ",
"          . A.&+d  +y 2.i *+>.i @.$.>.i T.W.=+-+;+%             ",
"            . g >+.+M -.i i i +.$.N.i l.W.! S.,+n.              ",
"              ~.e c n |.'+i >.=+j i *+)+-+>.!+~+                ",
"                % s ; '.f.{+i ;.i ++T.S.i J.g                   ",
"                  %  +y y y a.i >.5.j i H.g                     ",
"                    % ]+^+o.m.) i i i h 4                       ",
"                      ~.Y.6.L B /+i :.4                         ",
"                        % Y.,.k _ = g                           ",
"                          ~.Y (+7 `.                            ",
"                            ~.P./                               ",
"                              .                                 "};
