/* XPM */
static char * hardDisk_xpm[] = {
"16 16 99 2",
"  	c None",
". 	c #ABABAB",
"+ 	c #CACACA",
"@ 	c #C9C9C9",
"# 	c #909090",
"$ 	c #939393",
"% 	c #959595",
"& 	c #A9A9A9",
"* 	c #C3C3C3",
"= 	c #E2E2E2",
"- 	c #EDEDED",
"; 	c #F4F4F4",
"> 	c #F0F0F0",
", 	c #838383",
"' 	c #808080",
") 	c #888888",
"! 	c #969696",
"~ 	c #BDBDBD",
"{ 	c #C4C4C4",
"] 	c #E0E0E0",
"^ 	c #F7F7F7",
"/ 	c #F9F9F9",
"( 	c #F5F5F5",
"_ 	c #F3F3F3",
": 	c #EFEFEF",
"< 	c #6C6C6C",
"[ 	c #4E4E4E",
"} 	c #818181",
"| 	c #C2C2C2",
"1 	c #F1F1F1",
"2 	c #EAEAEA",
"3 	c #EBEBEB",
"4 	c #EEEEEE",
"5 	c #636363",
"6 	c #4C4C4C",
"7 	c #CECECE",
"8 	c #F8F8F8",
"9 	c #DBDBDB",
"0 	c #C8C8C8",
"a 	c #CBCBCB",
"b 	c #DDDDDD",
"c 	c #ECECEC",
"d 	c #777777",
"e 	c #CDCDCD",
"f 	c #B5B5B5",
"g 	c #B2B2B2",
"h 	c #C5C5C5",
"i 	c #E3E3E3",
"j 	c #E8E8E8",
"k 	c #757575",
"l 	c #676767",
"m 	c #7F7F7F",
"n 	c #CCCCCC",
"o 	c #A4A4A4",
"p 	c #949494",
"q 	c #9E9E9E",
"r 	c #D3D3D3",
"s 	c #E5E5E5",
"t 	c #606060",
"u 	c #414141",
"v 	c #7C7C7C",
"w 	c #E9E9E9",
"x 	c #B0B0B0",
"y 	c #8E8E8E",
"z 	c #8D8D8D",
"A 	c #8F8F8F",
"B 	c #C7C7C7",
"C 	c #DADADA",
"D 	c #5C5C5C",
"E 	c #3D3D3D",
"F 	c #7B7B7B",
"G 	c #E4E4E4",
"H 	c #929292",
"I 	c #C6C6C6",
"J 	c #D5D5D5",
"K 	c #5B5B5B",
"L 	c #7A7A7A",
"M 	c #D1D1D1",
"N 	c #DFDFDF",
"O 	c #B6B6B6",
"P 	c #D7D7D7",
"Q 	c #5A5A5A",
"R 	c #3C3C3C",
"S 	c #797979",
"T 	c #BFBFBF",
"U 	c #9D9D9D",
"V 	c #D0D0D0",
"W 	c #595959",
"X 	c #C0C0C0",
"Y 	c #B9B9B9",
"Z 	c #B3B3B3",
"` 	c #B7B7B7",
" .	c #CFCFCF",
"..	c #A1A1A1",
"+.	c #626262",
"@.	c #484848",
"#.	c #BABABA",
"$.	c #999999",
"%.	c #A5A5A5",
"                                ",
"                . + @ # $ %     ",
"          & * = - ; > , ' ) !   ",
"    ~ { ] ^ / ^ ( _ : < [ } !   ",
"  | 1 / _ 2 3 1 1 > 4 5 6 } !   ",
"  7 8 : 9 0 a b - c 3 d < } !   ",
"  e ; ] * f g h i j j k l m !   ",
"  n > a o ! p q r i s t u v !   ",
"  a w x y z z A B C ] D E F !   ",
"  @ G x # ! ! H I J 9 K E L !   ",
"  I M + a N O q @ r P Q R S !   ",
"  h 0 = C T U O V V r W R S !   ",
"  * e X Y Z ` @  .7 M W R S !   ",
"  ..` | n M M M  .e  .+.@.L !   ",
"        A ..g #.| @ a S v , !   ",
"                $.%.%.A H $     "};
