/* XPM */
static char * newFolder_xpm[] = {
"16 16 141 2",
"  	c None",
". 	c #646464",
"+ 	c #666666",
"@ 	c #676767",
"# 	c #656565",
"$ 	c #6B675C",
"% 	c #7C7050",
"& 	c #959595",
"* 	c #A6A6A6",
"= 	c #ACACAC",
"- 	c #AFAFAF",
"; 	c #B0B0B0",
"> 	c #B2B1B1",
", 	c #ADAAA4",
"' 	c #A7A294",
") 	c #94896A",
"! 	c #85754C",
"~ 	c #807148",
"{ 	c #D4D4D4",
"] 	c #C3C3C3",
"^ 	c #BCBCBC",
"/ 	c #968C71",
"( 	c #887954",
"_ 	c #83744D",
": 	c #978964",
"< 	c #B4A585",
"[ 	c #D8CBB1",
"} 	c #DDD2BE",
"| 	c #81724A",
"1 	c #B8B8B8",
"2 	c #929292",
"3 	c #868686",
"4 	c #81734A",
"5 	c #E7DAC0",
"6 	c #F2E8D6",
"7 	c #EEE2CC",
"8 	c #E6D7BA",
"9 	c #D1BB92",
"0 	c #E5DCCC",
"a 	c #82734B",
"b 	c #AAAAAA",
"c 	c #DADADA",
"d 	c #B7B7B7",
"e 	c #85774F",
"f 	c #EEE5D3",
"g 	c #D8BE8C",
"h 	c #DAC192",
"i 	c #D3B986",
"j 	c #C6AA75",
"k 	c #E3D8C3",
"l 	c #D3D3D3",
"m 	c #999999",
"n 	c #EDE2CE",
"o 	c #DCC290",
"p 	c #E1C89A",
"q 	c #D7BD8A",
"r 	c #C9AC77",
"s 	c #E1D4BB",
"t 	c #84764F",
"u 	c #EBDFC8",
"v 	c #DFC492",
"w 	c #E6CC9D",
"x 	c #D9BE8C",
"y 	c #CAAE78",
"z 	c #DDCEB3",
"A 	c #636363",
"B 	c #696969",
"C 	c #9D9D9D",
"D 	c #84764E",
"E 	c #E8DABF",
"F 	c #DEC28F",
"G 	c #E2C796",
"H 	c #D9BD8A",
"I 	c #CAAD77",
"J 	c #D9C8AA",
"K 	c #85ADD3",
"L 	c #8CB2D6",
"M 	c #D5D5D5",
"N 	c #A3A3A3",
"O 	c #83754D",
"P 	c #E4D4B7",
"Q 	c #D8BC88",
"R 	c #DBC08D",
"S 	c #D4B884",
"T 	c #C7AA73",
"U 	c #D3C1A0",
"V 	c #88AFD3",
"W 	c #588FC3",
"X 	c #D6D6D6",
"Y 	c #DECDAC",
"Z 	c #D2B580",
"` 	c #CFB27D",
" .	c #C2A56E",
"..	c #CAB895",
"+.	c #82ABD1",
"@.	c #568EC2",
"#.	c #A0A0A0",
"$.	c #82744C",
"%.	c #D7C39F",
"&.	c #C9AD77",
"*.	c #CDB07B",
"=.	c #C7AB74",
"-.	c #BD9F68",
";.	c #C0AC88",
">.	c #807249",
",.	c #7CA7CF",
"'.	c #D7D7D7",
").	c #ABABAB",
"!.	c #CEB992",
"~.	c #C1A46E",
"{.	c #C3A770",
"].	c #BFA26B",
"^.	c #B39762",
"/.	c #B39F7A",
"(.	c #75A2CD",
"_.	c #78A5CE",
":.	c #DBDBDB",
"<.	c #B4B4B4",
"[.	c #BFAB83",
"}.	c #B69A63",
"|.	c #B89C65",
"1.	c #B39763",
"2.	c #A99164",
"3.	c #A38F6B",
"4.	c #9F9F9F",
"5.	c #BBBBBB",
"6.	c #919191",
"7.	c #AE9A74",
"8.	c #AA9264",
"9.	c #B0996C",
"0.	c #B29B70",
"a.	c #A38E62",
"b.	c #8A7850",
"c.	c #827249",
"d.	c #9C8862",
"e.	c #A18C61",
"f.	c #968358",
"g.	c #7C6D45",
"h.	c #7E6F46",
"i.	c #7F6F47",
"j.	c #756741",
"          . + @ @ + # # . $ %   ",
"      . & * = - ; > , ' ) ! ~   ",
"      . { ] ^ / ( _ : < [ } |   ",
"      . 1 2 3 4 5 6 7 8 9 0 a   ",
"      . b c d e f g h i j k a   ",
"      . d l m e n o p q r s 4   ",
"      . d l & t u v w x y z 4   ",
"  + A B d { C D E F G H I J 4   ",
"  . K L d M N O P Q R S T U |   ",
"  . V W d X C _ Y Z S `  ...|   ",
"  . +.@.d X #.$.%.&.*.=.-.;.>.  ",
"  . ,.@.d '.).a !.~.{.].^./.>.  ",
"  . (._.d :.<.4 [.}.|.1.2.3.~   ",
"  + . . 4.5.6.| 7.8.9.0.a.b.c.  ",
"              ~ d.e.f.c.g.      ",
"              h.i.j.            "};
