/* XPM */
static char * refresh_xpm[] = {
"16 16 164 2",
"  	c None",
". 	c #304C72",
"+ 	c #2F4D76",
"@ 	c #304C73",
"# 	c #375379",
"$ 	c #7290BA",
"% 	c #93AFD5",
"& 	c #B1C8E7",
"* 	c #B2C9E8",
"= 	c #95B1D6",
"- 	c #7593BB",
"; 	c #37537A",
"> 	c #2F4D75",
", 	c #526F98",
"' 	c #A7C1E4",
") 	c #8EB3E3",
"! 	c #75A1DD",
"~ 	c #6A9ADB",
"{ 	c #6D9CDB",
"] 	c #7DA7DF",
"^ 	c #97B8E6",
"/ 	c #ADC5E6",
"( 	c #557299",
"_ 	c #516F97",
": 	c #A8C4E9",
"< 	c #6395D9",
"[ 	c #548BD5",
"} 	c #AEC8EB",
"| 	c #A7C4E9",
"1 	c #79A4DF",
"2 	c #6596D9",
"3 	c #709EDC",
"4 	c #AEC7E9",
"5 	c #547198",
"6 	c #A2BEE3",
"7 	c #5C90D7",
"8 	c #4D87D3",
"9 	c #C2D5F0",
"0 	c #FEFEFF",
"a 	c #FFFFFF",
"b 	c #FBFCFE",
"c 	c #C8DAF1",
"d 	c #5F92D8",
"e 	c #6A99D9",
"f 	c #A8C1E3",
"g 	c #365279",
"h 	c #6D8CB8",
"i 	c #80A9E0",
"j 	c #ABC6EA",
"k 	c #B7CEEE",
"l 	c #C9DBF2",
"m 	c #98B9E6",
"n 	c #9FBEE7",
"o 	c #CBDCF2",
"p 	c #A4C1E9",
"q 	c #5188D4",
"r 	c #8AAFDF",
"s 	c #708FB8",
"t 	c #88A7D1",
"u 	c #5A8FD7",
"v 	c #DBE7F6",
"w 	c #E1EBF8",
"x 	c #74A1DD",
"y 	c #78A3DE",
"z 	c #ADC7EB",
"A 	c #B8CFEE",
"B 	c #548BD4",
"C 	c #6695D5",
"D 	c #8EAAD1",
"E 	c #A4BFE4",
"F 	c #407ED0",
"G 	c #C0D4EF",
"H 	c #F8FAFD",
"I 	c #CCDCF2",
"J 	c #88AEE2",
"K 	c #6C9BDB",
"L 	c #6496D9",
"M 	c #8DB1E3",
"N 	c #4C83CE",
"O 	c #A8C1E1",
"P 	c #3E7CD0",
"Q 	c #4C86D4",
"R 	c #5189D4",
"S 	c #598FD7",
"T 	c #6093D8",
"U 	c #86ACE1",
"V 	c #E0EAF8",
"W 	c #9CBBE4",
"X 	c #4880CC",
"Y 	c #A7BFE0",
"Z 	c #88A7D0",
"` 	c #538BD5",
" .	c #3979CE",
"..	c #9EBEE7",
"+.	c #4F88D4",
"@.	c #558CD5",
"#.	c #598ED7",
"$.	c #E2EBF8",
"%.	c #FDFDFD",
"&.	c #C7D7ED",
"*.	c #5B8DD0",
"=.	c #8AA7CE",
"-.	c #6C8BB7",
";.	c #79A3DD",
">.	c #2C70CC",
",.	c #B5CDED",
"'.	c #76A2DE",
").	c #79A4DE",
"!.	c #BFD4EF",
"~.	c #FEFEFE",
"{.	c #96B6E1",
"].	c #6B98D4",
"^.	c #7EA5D9",
"/.	c #6B89B3",
"(.	c #37547A",
"_.	c #9FBBE1",
":.	c #4983D1",
"<.	c #2D70CB",
"[.	c #ABC6EB",
"}.	c #F7FAFD",
"|.	c #FAFBFC",
"1.	c #A4C0E5",
"2.	c #3271C6",
"3.	c #4E83CC",
"4.	c #9FB9DD",
"5.	c #365379",
"6.	c #516F98",
"7.	c #A0BEE6",
"8.	c #4781CE",
"9.	c #296DC8",
"0.	c #3675CB",
"a.	c #75A0DA",
"b.	c #78A1DA",
"c.	c #3E7ACB",
"d.	c #2C6DC4",
"e.	c #4C82CC",
"f.	c #A0BCE2",
"g.	c #506D95",
"h.	c #2F4C74",
"i.	c #506F98",
"j.	c #9EBAE0",
"k.	c #78A1D9",
"l.	c #4F85CF",
"m.	c #3673C7",
"n.	c #3674C6",
"o.	c #4F85CD",
"p.	c #78A1D7",
"q.	c #9EB8DC",
"r.	c #506D96",
"s.	c #2F4C73",
"t.	c #2A4365",
"u.	c #365278",
"v.	c #6B8BB6",
"w.	c #87A6D0",
"x.	c #A3BDE1",
"y.	c #A3BDE0",
"z.	c #87A4CD",
"A.	c #6A89B3",
"B.	c #365277",
"C.	c #294162",
"D.	c #2C486F",
"E.	c #2F4B71",
"F.	c #2C486E",
"G.	c #284060",
"          . + @ @ + .           ",
"        # $ % & * = - ;         ",
"    > , ' ) ! ~ { ] ^ / ( >     ",
"    _ : < [ ! } | 1 2 3 4 5     ",
"  # 6 7 8 9 0 a a b c d e f g   ",
". h i j k a l m n o a p q r s . ",
"+ t u v a w { x y x z A B C D + ",
"@ E F G H I J ~ K ~ L M e N O @ ",
"@ E P [ Q R S d T U V a W X Y @ ",
"+ Z `  .} ..+.` @.#.$.%.&.*.=.+ ",
". -.;.>.J a ,.'.).!.~.{.].^./.. ",
"  (._.:.<.[.}.a a |.1.2.3.4.5.  ",
"    6.7.8.9.0.a.b.c.d.e.f.g.    ",
"    h.i.j.k.l.m.n.o.p.q.r.s.    ",
"      t.u.v.w.x.y.z.A.B.C.      ",
"          C.D.E.E.F.G.          "};
