/* XPM */
static char *wxOpenCommanderFrm_ID_MNU_NEWFOLDER_1049_XPM[]={
/* wxOpenCommanderFrm_ID_MNU_NEWFOLDER_1049 */
"16 16 97 2",
"      c None",
" 0    c #E6DC9D",
" 1    c #F0E9C3",
" 2    c #F6F2DB",
" 3    c #E9E1AB",
" 4    c #E8DFA6",
" 5    c #ECE4B5",
" 6    c #F5F1D8",
" 7    c #EEE7BE",
" 8    c #EEE8BF",
" 9    c #F5F0D7",
" a    c #E8E3CE",
" b    c #E4D9B0",
" c    c #DCCE8A",
" d    c #E1D697",
" e    c #F0EAC5",
" f    c #FCFBF4",
" g    c #EAE2AE",
" h    c #E7E2CE",
" i    c #E4D6A7",
" j    c #E0CA86",
" k    c #E1CC8A",
" l    c #DED096",
" m    c #DACC8C",
" n    c #DED1A5",
" o    c #D8CA8F",
" p    c #D7C887",
" q    c #D7C888",
" r    c #D9CC9A",
" s    c #DACEA2",
" t    c #DCD0A7",
" u    c #DCD1AC",
" v    c #DED4B0",
" w    c #E0D7B7",
" x    c #E0D6AB",
" y    c #DBCE8B",
" z    c #DED193",
" A    c #E2D7A5",
" B    c #E0D59C",
" C    c #DED297",
" D    c #F3F3F1",
" E    c #EAE5D4",
" F    c #E3DBBB",
" G    c #EAE4CE",
" H    c #F4E2AD",
" I    c #F4E2AB",
" J    c #F3E0A7",
" K    c #F2DFA3",
" L    c #E8D484",
" M    c #E1CB6E",
" N    c #EED78C",
" O    c #ECD688",
" P    c #E2CC6E",
" Q    c #EED68A",
" R    c #E2CC70",
" S    c #DDD39E",
" T    c #E9DFBC",
" U    c #EAD287",
" V    c #E9D286",
" W    c #E6D07F",
" X    c #DEC868",
" Y    c #D6C573",
" Z    c #D0C288",
" &    c #E3CD80",
"0     c #E2CC7E",
"00    c #E0CA78",
"01    c #DAC666",
"02    c #D8CA95",
"03    c #D0C38F",
"04    c #DECB81",
"05    c #DCC676",
"06    c #DBC674",
"07    c #DAC571",
"08    c #D3C48A",
"09    c #D6CA99",
"0a    c #DAC881",
"0b    c #D5C06D",
"0c    c #CEBD7C",
"0d    c #DBD1A8",
"0e    c #CEBC73",
"0f    c #CEBA64",
"0g    c #C5B266",
"0h    c #DFD6B2",
"0i    c #D5C895",
"0j    c #C6B35B",
"0k    c #C7B45B",
"0l    c #BCAA58",
"0m    c #E2DABA",
"0n    c #DED6B6",
"0o    c #DCD4B2",
"0p    c #DCD3AE",
"0q    c #D8CD9D",
"0r    c #D4C892",
"0s    c #D0C284",
"0t    c #C7B771",
"0u    c #BEAB5C",
"0v    c #CCBE87",
"                                ",
"                   0     1 2    ",
"                   3     4      ",
"             5 6     7 8 9      ",
"           a b c d e f       g  ",
"       h i j j k l m n o p q r  ",
"     s t u v w x y z A B C D E F",
"   G H I J K L M N O P Q R S v  ",
"   T U U U U V U U W X U U Y Z  ",
"     &0 0 0 0 0 0 00010 0 0203  ",
"    04050505050505060705050809  ",
"    0a0b0b0b0b0b0b0b0b0b0b0c0d  ",
"    0e0f0f0f0f0f0f0f0f0f0f0g0h  ",
"    0i0j0k0k0k0k0k0k0k0k0k0l0m  ",
"        0n0o0p0d0q0r0s0t0u0v    ",
"                                "};

