/* XPM */
static char *wxOpenCommanderFrm_ID_MNU_RENAME_1048_XPM[]={
/* wxOpenCommanderFrm_ID_MNU_RENAME_1048 */
"16 16 18 1",
"      c None",
"0     c #402000",
"1     c #404040",
"2     c #604040",
"3     c #606040",
"4     c #806040",
"5     c #808080",
"6     c #A0A080",
"7     c #C0C0C0",
"8     c #C0DCC0",
"9     c #FFFBF0",
"a     c #A08080",
"b     c #202040",
"c     c #404000",
"d     c #000000",
"e     c #606080",
"f     c #A0A0A4",
"g     c #806080",
" 0000000000100  ",
"0023456789  a0  ",
" 1     7    70  ",
" 1    7b    80  ",
" c    5d5   90  ",
" 09   bdd9   0  ",
" c9  8edd3   c0 ",
" c7  585dd7  20 ",
" c7  e 9bd1  40 ",
" 0f 91551ddf 60 ",
" 06 ff9  1dd970 ",
" 05 1    7dd17c ",
" 037df9 9f55f70 ",
" 02f79     9770 ",
" 007fag2100c110 ",
" 00111000       "};

