/* XPM */
static char *right_arrow[] = {
/* columns rows colors chars-per-pixel */
"16 14 3 1",
"  c black",
". c #c0c0c0",
"X c white",
/* pixels */
"................",
"..XXX...........",
"..X  XX.........",
"..X    XX.......",
"..X      XX.....",
"..X        XX...",
"..X          ...",
"..X          ...",
"..X        .....",
"..X      .......",
"..X    .........",
"..X  ...........",
"................",
"................"
};
