/* XPM */
static const char *appIcon_xpm[] = {
/* columns rows colors chars-per-pixel */
"16 16 57 1",
"  c black",
". c #000100",
"X c #0B0B0B",
"o c #101010",
"O c gray7",
"+ c #121414",
"@ c #141617",
"# c #151819",
"$ c #161919",
"% c #161B19",
"& c gray10",
"* c #212325",
"= c gray15",
"- c #2A2A2A",
"; c #2D2D2D",
": c #3C3C3C",
"> c #29490F",
", c gray35",
"< c #5E764D",
"1 c #606060",
"2 c #6A6A6A",
"3 c #727272",
"4 c #777777",
"5 c #797979",
"6 c #7F7F7F",
"7 c #477284",
"8 c #4A7486",
"9 c #5A7B8A",
"0 c #5F7E8A",
"q c #587F8F",
"w c #588598",
"e c #59899E",
"r c #588CA2",
"t c #5EA0BB",
"y c #63A1BA",
"u c #6CA3BA",
"i c #75A5B9",
"p c #78A6B9",
"a c #5DA7C6",
"s c #6BC8EF",
"d c #77CDF1",
"f c #818181",
"g c #80A9BA",
"h c #88D5F5",
"j c #89D5F5",
"k c #86D6F8",
"l c #8BD8F8",
"z c #8ED9F8",
"x c #94DBF9",
"c c #95DBF9",
"v c #9ADDF9",
"b c #9DDEF9",
"n c #A3E2FD",
"m c #A4E3FD",
"M c #A5E3FD",
"N c #ADE6FD",
"B c None",
/* pixels */
"BBBBBBBBBBBBBBBB",
"BBBBBBBBBBBBBBBB",
"BB444444444444BB",
"B6raaaaaaaaaaqBB",
"B5tsssssssssseBB",
"B3yddddddddddwBB",
"B2ujjjjjjjjjj7BB",
"B1ixlkxbbvxzk8BB",
"B,pmnnmMMnnnn9BB",
"B,gNNNNNNNNNN0BB",
"BB@######*###+BB",
"BBBBB<>  :BBBBBB",
"BBB6BB   -BBfBBB",
"BBBBO=XXX&;OBBBB",
"BBBBBBBBBBBBBBBB",
"BBBBBBBBBBBBBBBB"
};
