/* XPM */
static char * four_xpm[] = {
"32 32 37 1",
" 	c #FFFFFF",
".	c #FEFEFE",
"+	c #3D3D3D",
"@	c #000000",
"#	c #535353",
"$	c #9C9C9C",
"%	c #0B0B0B",
"&	c #EAEAEA",
"*	c #121212",
"=	c #8A8A8A",
"-	c #5D5D5D",
";	c #2A2A2A",
">	c #FAFAFA",
",	c #BEBEBE",
"'	c #010101",
")	c #BFBFBF",
"!	c #F8F8F8",
"~	c #262626",
"{	c #5B5B5B",
"]	c #7F7F7F",
"^	c #0E0E0E",
"/	c #E7E7E7",
"(	c #D9D9D9",
"_	c #070707",
":	c #919191",
"<	c #4D4D4D",
"[	c #202020",
"}	c #D8D8D8",
"|	c #DBDBDB",
"1	c #484848",
"2	c #EDEDED",
"3	c #2F2F2F",
"4	c #7B7B7B",
"5	c #BBBBBB",
"6	c #ABABAB",
"7	c #383838",
"8	c #D4D4D4",
"                                ",
"                                ",
"                                ",
"                                ",
"                                ",
"                                ",
"                                ",
"                                ",
"                                ",
"                .+@#            ",
"                $%@#            ",
"               &*=@#            ",
"               -;>@#            ",
"              ,') @#            ",
"             !~{  @#            ",
"             ]^/  @#            ",
"            (_:   @#            ",
"            <[}|||@1|2          ",
"            3@@@@@@@@4          ",
"            566666@768          ",
"                  @#            ",
"                  @#            ",
"                                ",
"                                ",
"                                ",
"                                ",
"                                ",
"                                ",
"                                ",
"                                ",
"                                ",
"                                "};
