/* XPM */
static char * three_xpm[] = {
"32 32 59 1",
" 	c #FFFFFF",
".	c #FAFAFA",
"+	c #626262",
"@	c #2D2D2D",
"#	c #0D0D0D",
"$	c #030303",
"%	c #161616",
"&	c #525252",
"*	c #CECECE",
"=	c #F4F4F4",
"-	c #363636",
";	c #6E6E6E",
">	c #949494",
",	c #A0A0A0",
"'	c #7E7E7E",
")	c #181818",
"!	c #080808",
"~	c #CBCBCB",
"{	c #D5D5D5",
"]	c #000000",
"^	c #666666",
"/	c #EFEFEF",
"(	c #656565",
"_	c #EBEBEB",
":	c #EAEAEA",
"<	c #CDCDCD",
"[	c #4E4E4E",
"}	c #111111",
"|	c #D2D2D2",
"1	c #1D1D1D",
"2	c #BBBBBB",
"3	c #B8B8B8",
"4	c #929292",
"5	c #1F1F1F",
"6	c #101010",
"7	c #E5E5E5",
"8	c #0C0C0C",
"9	c #3E3E3E",
"0	c #484848",
"a	c #070707",
"b	c #404040",
"c	c #EDEDED",
"d	c #FEFEFE",
"e	c #D1D1D1",
"f	c #050505",
"g	c #515151",
"h	c #979797",
"i	c #292929",
"j	c #777777",
"k	c #9B9B9B",
"l	c #6C6C6C",
"m	c #141414",
"n	c #D9D9D9",
"o	c #CFCFCF",
"p	c #555555",
"q	c #202020",
"r	c #242424",
"s	c #6B6B6B",
"t	c #E4E4E4",
"                                ",
"                                ",
"                                ",
"                                ",
"                                ",
"                                ",
"                                ",
"                                ",
"                                ",
"            .+@#$%&*            ",
"            =-;>,')!~           ",
"                  {]^           ",
"                  /](           ",
"               _:<[}|           ",
"               ]]]1<            ",
"               23456<           ",
"                  789           ",
"                   0a           ",
"                   b6           ",
"            cd    efg           ",
"            hijkkl8mn           ",
"            opqfarst            ",
"                                ",
"                                ",
"                                ",
"                                ",
"                                ",
"                                ",
"                                ",
"                                ",
"                                ",
"                                "};
