/* XPM */
static char * two_xpm[] = {
"32 32 43 1",
" 	c #FFFFFF",
".	c #A0A0A0",
"+	c #525252",
"@	c #1C1C1C",
"#	c #040404",
"$	c #121212",
"%	c #4C4C4C",
"&	c #C7C7C7",
"*	c #000000",
"=	c #272727",
"-	c #767676",
";	c #9C9C9C",
">	c #888888",
",	c #1E1E1E",
"'	c #B9B9B9",
")	c #B8B8B8",
"!	c #E8E8E8",
"~	c #101010",
"{	c #313131",
"]	c #4B4B4B",
"^	c #060606",
"/	c #2C2C2C",
"(	c #B0B0B0",
"_	c #7A7A7A",
":	c #D8D8D8",
"<	c #111111",
"[	c #262626",
"}	c #F4F4F4",
"|	c #E0E0E0",
"1	c #171717",
"2	c #DBDBDB",
"3	c #E5E5E5",
"4	c #232323",
"5	c #D2D2D2",
"6	c #282828",
"7	c #0E0E0E",
"8	c #CBCBCB",
"9	c #ECECEC",
"0	c #0B0B0B",
"a	c #C4C4C4",
"b	c #323232",
"c	c #626262",
"d	c #A3A3A3",
"                                ",
"                                ",
"                                ",
"                                ",
"                                ",
"                                ",
"                                ",
"                                ",
"                                ",
"            .+@#$%&             ",
"            *=-;>,#'            ",
"            )    !~{            ",
"                  ]^            ",
"                  /,            ",
"                 (*_            ",
"                :<[}            ",
"               |,12             ",
"              34$5              ",
"             !678               ",
"            9/0a                ",
"            b*cddddd            ",
"            ********            ",
"                                ",
"                                ",
"                                ",
"                                ",
"                                ",
"                                ",
"                                ",
"                                ",
"                                ",
"                                "};
