/* XPM */
static const char *ogl_xpm[] = {
/* columns rows colors chars-per-pixel */
"32 32 6 1",
". c Black",
"  c None",
"O c #000080",
"o c #00FFFF",
"X c #FF0000",
"+ c #00FF00",
/* pixels */
"                                ",
"                                ",
" ............      ........     ",
" .XXXXXXXXXX.    ..oooooooo..   ",
" .XXXXXXXXXX.   .oooooooooooo.  ",
" .XXXXXXXXXX.OOO.oooooooooooo.  ",
" .XXXXXXXXXX.OOO.oooooooooooo.  ",
" .XXXXXXXXXX.   .oooooooooooo.  ",
" .XXXXXXXXXX.    ..oooooooo..   ",
" ............     .........     ",
"      OO              OO        ",
"      OO              OO        ",
"      OO              OO        ",
"      OO              OO        ",
"      OO              OO        ",
"      OO              OO        ",
"      O.              OO        ",
"      .O.            .OO..      ",
"     .OOO.         ..+++++..    ",
"    .OOOOO.       .+++++++++.   ",
"   .OOOOOOO.      .+++++++++.   ",
"  .OOOOOOOOO.    .+++++++++++.  ",
" .OOOOOOOOOOO.OOOO+++++++++++.  ",
"  .OOOOOOOOO.OOOOO+++++++++++.  ",
"   .OOOOOOO.      .+++++++++.   ",
"    .OOOOO.       .+++++++++.   ",
"     .OOO.         ..+++++..    ",
"      .O.            .....      ",
"       .                        ",
"                                ",
"                                ",
"                                "
};
