/* XPM */
static char *wxCommandFrm_XPM[]={
/* wxCommandFrm */
"32 32 571 2",
"      c None",
" 0    c #E4E4E4",
" 1    c #A2A2A2",
" 2    c #878787",
" 3    c #898989",
" 4    c #8F8F8F",
" 5    c #8B8B8B",
" 6    c #858585",
" 7    c #969696",
" 8    c #D2D2D2",
" 9    c #C9C9C9",
" a    c #8C8C8D",
" b    c #CACACA",
" c    c #FDFDFD",
" d    c #DCDCDC",
" e    c #929292",
" f    c #ACACAC",
" g    c #8D8D8D",
" h    c #DFDFDE",
" i    c #F7F7F7",
" j    c #8E8E8E",
" k    c #E2E2E2",
" l    c #E7E7E7",
" m    c #979797",
" n    c #FFFEFF",
" o    c #FFFDFF",
" p    c #FCFBFC",
" q    c #F5FAF5",
" r    c #F3F9F0",
" s    c #F0F1F6",
" t    c #F0F1F7",
" u    c #F6F7F9",
" v    c #FDFEFC",
" w    c #FFFFFE",
" x    c #B8B8B8",
" y    c #BCBCBC",
" z    c #ECECEC",
" A    c #A1A2A1",
" B    c #FDF8FD",
" C    c #FCF6FB",
" D    c #EDF3EC",
" E    c #D7EED7",
" F    c #C7E8CA",
" G    c #C5E8C7",
" H    c #C5EAC6",
" I    c #C5CEDF",
" J    c #C5C7E6",
" K    c #C4C9E3",
" L    c #CBCDE5",
" M    c #DBDDEC",
" N    c #F4F4F4",
" O    c #FFFFFA",
" P    c #C8C8C8",
" Q    c #FAFAFB",
" R    c #FAF9FA",
" S    c #F8F2F8",
" T    c #F2EFF0",
" U    c #CAE7CA",
" V    c #AADEAE",
" W    c #B5E2B9",
" X    c #C9E9C9",
" Y    c #D2EDD1",
" Z    c #D6EFD4",
" &    c #D6DAE8",
"0     c #D4D0EB",
"00    c #CBCCE5",
"01    c #B9BDDD",
"02    c #A9AED5",
"03    c #B1B6DA",
"04    c #D7D8E6",
"05    c #FAF9F2",
"06    c #FCFCF9",
"07    c #FBFBFA",
"08    c #AEAEAE",
"09    c #DFDFDF",
"0a    c #959595",
"0b    c #E3E2E3",
"0c    c #F3EDF3",
"0d    c #EBE7EA",
"0e    c #AAD9AD",
"0f    c #93D697",
"0g    c #BFE3BF",
"0h    c #D2E9CF",
"0i    c #CEE9CC",
"0j    c #CAE8C7",
"0k    c #C8EBC6",
"0l    c #C9CDE2",
"0m    c #CDC6E8",
"0n    c #D2CFE7",
"0o    c #D4D1E8",
"0p    c #C2C3DF",
"0q    c #9BA1CD",
"0r    c #8D96C9",
"0s    c #BEC1D9",
"0t    c #F7F7EF",
"0u    c #E7E7E2",
"0v    c #EFEFEE",
"0w    c #B2B2B2",
"0x    c #E1E1E1",
"0y    c #D4CDD2",
"0z    c #E6DDE5",
"0A    c #99D29B",
"0B    c #7BCC83",
"0C    c #BFE2BD",
"0D    c #C7E5C4",
"0E    c #BEE5B9",
"0F    c #C6EBC2",
"0G    c #D5EED2",
"0H    c #DAF0D6",
"0I    c #D9DCE9",
"0J    c #D9D6EE",
"0K    c #CFCCEC",
"0L    c #C3BFE3",
"0M    c #C6C2E2",
"0N    c #BDBCDC",
"0O    c #8A90C5",
"0P    c #727CBD",
"0Q    c #B9BBD2",
"0R    c #E3E1D7",
"0S    c #DBDBD9",
"0T    c #D6D6D6",
"0U    c #E1E2E1",
"0V    c #D0CED0",
"0W    c #CFC4CF",
"0X    c #94C295",
"0Y    c #59C364",
"0Z    c #ABDCA9",
"0&    c #BEE3B8",
"1     c #BCE6AD",
"10    c #D6EEC8",
"11    c #DEDDD6",
"12    c #CEC9CC",
"13    c #C2BDC1",
"14    c #BEBCBA",
"15    c #C0C2BE",
"16    c #CFCFCD",
"17    c #D6D6E6",
"18    c #B7B5E0",
"19    c #ACAAD4",
"1a    c #A3A3D0",
"1b    c #6B76B9",
"1c    c #515EAB",
"1d    c #B4B4BD",
"1e    c #D8D5CE",
"1f    c #8A8A8A",
"1g    c #949494",
"1h    c #DDDCDD",
"1i    c #CCC5CD",
"1j    c #B6BBB3",
"1k    c #30AD3A",
"1l    c #6DC473",
"1m    c #BDE1B5",
"1n    c #A6D99F",
"1o    c #6693A9",
"1p    c #5577BD",
"1q    c #68789D",
"1r    c #A7A29E",
"1s    c #A5A3A4",
"1t    c #A8A8A7",
"1u    c #9D9B9C",
"1v    c #8F8F8E",
"1w    c #9C9B94",
"1x    c #C5C6CD",
"1y    c #9A9BD1",
"1z    c #8E8EC6",
"1A    c #6F75B7",
"1B    c #233599",
"1C    c #606AA1",
"1D    c #D4D2C5",
"1E    c #D6D6D3",
"1F    c #BBBBBB",
"1G    c #CCCBCC",
"1H    c #CCBECB",
"1I    c #82AF80",
"1J    c #27B137",
"1K    c #99D196",
"1L    c #A2D79C",
"1M    c #A1CC9C",
"1N    c #A0ABD1",
"1O    c #C4D3F6",
"1P    c #E1E6EC",
"1Q    c #FFF8ED",
"1R    c #FFFFFD",
"1S    c #FFFFF8",
"1T    c #D0CFCE",
"1U    c #BCBAB9",
"1V    c #CCCBC8",
"1W    c #E3E3D6",
"1X    c #AFB0CA",
"1Y    c #6467B4",
"1Z    c #6165AE",
"1&    c #3A48A2",
"2     c #2F3E96",
"20    c #B9B9B6",
"21    c #CFCDC9",
"22    c #CFCFCF",
"23    c #919191",
"24    c #C6C6C6",
"25    c #C4C0C5",
"26    c #C0B6C0",
"27    c #53AC58",
"28    c #46BA52",
"29    c #ABD7A6",
"2a    c #9EDA9B",
"2b    c #BAC7B3",
"2c    c #D8CECF",
"2d    c #E5EBF7",
"2e    c #C6D6ED",
"2f    c #A3BCE1",
"2g    c #7F96BA",
"2h    c #B6B3AB",
"2i    c #7175BA",
"2j    c #5559AA",
"2k    c #4652A6",
"2l    c #233498",
"2m    c #9495A5",
"2n    c #C9C8BF",
"2o    c #D1D1D0",
"2p    c #7D7D7D",
"2q    c #707070",
"2r    c #C7C6C7",
"2s    c #BEB9BF",
"2t    c #A9AEAB",
"2u    c #23BA3F",
"2v    c #4CCD64",
"2w    c #9BDDA1",
"2x    c #9CE39F",
"2y    c #C4C2B7",
"2z    c #455D8D",
"2A    c #2D65BB",
"2B    c #3A69B5",
"2C    c #4973B8",
"2D    c #5A83C3",
"2E    c #617FAE",
"2F    c #DCE2EA",
"2G    c #D0DCEE",
"2H    c #B2C6E3",
"2I    c #93B1DD",
"2J    c #757F87",
"2K    c #8486C5",
"2L    c #313DB5",
"2M    c #3341B5",
"2N    c #1326AA",
"2O    c #6D729E",
"2P    c #C6C3B9",
"2Q    c #C9C9C8",
"2R    c #797979",
"2S    c #5B5B5B",
"2T    c #C5C5C5",
"2U    c #B7B6BB",
"2V    c #9CA29C",
"2W    c #59832E",
"2X    c #89A568",
"2Y    c #B9C79F",
"2Z    c #BECCA3",
"2&    c #B2B1B0",
"3     c #9A9CA1",
"30    c #F1ECE2",
"31    c #3C66AA",
"32    c #3C6CB7",
"33    c #537CBF",
"34    c #6C93D3",
"35    c #667289",
"36    c #A1A0A0",
"37    c #777E83",
"38    c #787D86",
"39    c #5D686C",
"3a    c #7B8085",
"3b    c #B7B6B8",
"3c    c #C1C1C1",
"3d    c #737373",
"3e    c #626262",
"3f    c #BFBFBF",
"3g    c #AEB7B8",
"3h    c #A39499",
"3i    c #E7111B",
"3j    c #F74653",
"3k    c #FD97A1",
"3l    c #FF98A1",
"3m    c #B2B0B1",
"3n    c #979A97",
"3o    c #FEFDFA",
"3p    c #E9E7E4",
"3q    c #E8E7E6",
"3r    c #A6A3BA",
"3s    c #E8E15F",
"3t    c #FFFF0E",
"3u    c #FFFF14",
"3v    c #FCF900",
"3w    c #A6A65F",
"3x    c #A7A5BB",
"3y    c #BAB9BA",
"3z    c #717271",
"3A    c #7D7C7D",
"3B    c #B5B5B5",
"3C    c #ABB2B2",
"3D    c #8D9596",
"3E    c #C3191D",
"3F    c #E9363A",
"3G    c #F09B9B",
"3H    c #F89092",
"3I    c #C7B7B6",
"3J    c #7D8988",
"3K    c #FBFDFC",
"3L    c #F8F9F8",
"3M    c #EBEAEA",
"3N    c #CACAE2",
"3O    c #E7E345",
"3P    c #F9F221",
"3Q    c #F8F31A",
"3R    c #DDDE0F",
"3S    c #8E8E6F",
"3T    c #A1A1B2",
"3U    c #B7B7B8",
"3V    c #747675",
"3W    c #ACADAC",
"3X    c #A6A7A7",
"3Y    c #A8ACAC",
"3Z    c #8FA7A5",
"3&    c #A93235",
"4     c #E31419",
"40    c #ED8988",
"41    c #EF7E7D",
"42    c #ECA7A7",
"43    c #7F9494",
"44    c #F6FAFA",
"45    c #FDFFFF",
"46    c #F8F8F8",
"47    c #FCFCFD",
"48    c #F4F3F3",
"49    c #D5D5D4",
"4a    c #B4B4B5",
"4b    c #969697",
"4c    c #71728E",
"4d    c #AFAF94",
"4e    c #F3EE1B",
"4f    c #F4EE26",
"4g    c #F4F213",
"4h    c #C2C21D",
"4i    c #808084",
"4j    c #A3A3AD",
"4k    c #B2B2B3",
"4l    c #828181",
"4m    c #A9A9A9",
"4n    c #94A9A8",
"4o    c #865C5C",
"4p    c #D8010A",
"4q    c #E85557",
"4r    c #EE7F80",
"4s    c #F66C6C",
"4t    c #BB9E9E",
"4u    c #EFFFFF",
"4v    c #444447",
"4w    c #0C0C22",
"4x    c #717085",
"4y    c #F5F14F",
"4z    c #F5F01C",
"4A    c #F4EF1D",
"4B    c #EFEE10",
"4C    c #9A9C34",
"4D    c #7E8091",
"4E    c #A4A4A9",
"4F    c #A1A1A1",
"4G    c #ADADAD",
"4H    c #717171",
"4I    c #AAAAAA",
"4J    c #99A1A0",
"4K    c #788988",
"4L    c #AB191D",
"4M    c #E3181E",
"4N    c #ED6867",
"4O    c #F05B5C",
"4P    c #CD4C4B",
"4Q    c #E3F5F3",
"4R    c #F3FFFF",
"4S    c #E0F7F7",
"4T    c #C6D9DA",
"4U    c #B7BDCA",
"4V    c #A9AAC2",
"4W    c #585979",
"4X    c #9D9C9C",
"4Y    c #FFFF6F",
"4Z    c #FAF31A",
"4&    c #F2EB23",
"5     c #F5F311",
"50    c #CECF1B",
"51    c #68685E",
"52    c #90909F",
"53    c #A7A7A9",
"54    c #747574",
"55    c #F5F5F5",
"56    c #A6A6A6",
"57    c #989A9A",
"58    c #869A99",
"59    c #6B5858",
"5a    c #C7060E",
"5b    c #E6292C",
"5c    c #EF5656",
"5d    c #DF4141",
"5e    c #AA4242",
"5f    c #9F4344",
"5g    c #9B5F62",
"5h    c #896066",
"5i    c #888265",
"5j    c #9CA070",
"5k    c #E3E072",
"5l    c #FFFF3A",
"5m    c #F7F116",
"5n    c #F2EC20",
"5o    c #F4F113",
"5p    c #E6E614",
"5q    c #7C7D3A",
"5r    c #717189",
"5s    c #97979A",
"5t    c #9F9D9F",
"5u    c #757575",
"5v    c #706F70",
"5w    c #9FA1A0",
"5x    c #979C9A",
"5y    c #7B9293",
"5z    c #873F41",
"5A    c #D71922",
"5B    c #E73439",
"5C    c #EE4C4D",
"5D    c #EE3E3F",
"5E    c #F03333",
"5F    c #F72D31",
"5G    c #FD2734",
"5H    c #FFD939",
"5I    c #FFFF36",
"5J    c #FBF426",
"5K    c #F4EE2C",
"5L    c #F4EE2F",
"5M    c #F5F123",
"5N    c #EBEB26",
"5O    c #91933B",
"5P    c #67677A",
"5Q    c #95959E",
"5R    c #9F9FA0",
"5S    c #6A6B6B",
"5T    c #EFEFEF",
"5U    c #818182",
"5V    c #AEAFAF",
"5W    c #A2AAAA",
"5X    c #819392",
"5Y    c #945355",
"5Z    c #D33D44",
"5&    c #E5494F",
"6     c #EE5757",
"60    c #F25655",
"61    c #F14A51",
"62    c #F03C4C",
"63    c #F4D84D",
"64    c #F5FF4E",
"65    c #F4F24B",
"66    c #F5F146",
"67    c #F5F442",
"68    c #E2E449",
"69    c #959659",
"6a    c #727283",
"6b    c #9D9DA7",
"6c    c #BABABA",
"6d    c #B6B6B6",
"6e    c #B1B0B2",
"6f    c #C1C2C2",
"6g    c #B2BABA",
"6h    c #96A8A8",
"6i    c #958180",
"6j    c #BE6C6F",
"6k    c #D9676C",
"6l    c #E56A6F",
"6m    c #EC6770",
"6n    c #ED6171",
"6o    c #F4E06E",
"6p    c #F6FF68",
"6q    c #F0F269",
"6r    c #E8E96E",
"6s    c #CBCD73",
"6t    c #979780",
"6u    c #8D8DA1",
"6v    c #B0B0B9",
"6w    c #BCBEBE",
"6x    c #BDBDBE",
"6y    c #999999",
"6z    c #989898",
"6A    c #CACACB",
"6B    c #CBD0D0",
"6C    c #B9C7C7",
"6D    c #A8B4B5",
"6E    c #ACA2A2",
"6F    c #BB9899",
"6G    c #C39296",
"6H    c #C68D95",
"6I    c #CFCA98",
"6J    c #D1D69B",
"6K    c #C0C09F",
"6L    c #ADAEA5",
"6M    c #A5A5B1",
"6N    c #B4B4C2",
"6O    c #C9C9CE",
"6P    c #D8D8D9",
"6Q    c #D8D8D7",
"6R    c #919091",
"6S    c #FEFEFE",
"6T    c #F6F6F6",
"6U    c #EEEEEE",
"6V    c #E5E5E5",
"6W    c #858484",
"6X    c #B9B9B9",
"6Y    c #EDEEEE",
"6Z    c #DFE3E3",
"6&    c #D3DCDC",
"7     c #C9D5D5",
"70    c #C4CFCF",
"71    c #C3CCCD",
"72    c #C1C6CD",
"73    c #C2C3CD",
"74    c #C5C5D2",
"75    c #D0CED9",
"76    c #DCDCE1",
"77    c #E9E9EA",
"78    c #D2D2D1",
"79    c #7F8080",
"7a    c #E0E0E0",
"7b    c #DADADA",
"7c    c #B4B4B4",
"7d    c #828282",
"7e    c #818181",
"7f    c #D9D9D9",
"7g    c #F8FAFA",
"7h    c #F8F7F9",
"7i    c #FAF9FB",
"7j    c #FEFEFF",
"7k    c #EAEAEA",
"7l    c #787878",
"7m    c #B7B7B7",
"7n    c #C7C7C7",
"7o    c #EDEDED",
"7p    c #D1D1D1",
"7q    c #A5A5A5",
"7r    c #A4A4A4",
"7s    c #777777",
"7t    c #D8D8D8",
"7u    c #F0F0F0",
"7v    c #FAFAFA",
"7w    c #FBFBFB",
"7x    c #808080",
"7y    c #9C9C9C",
"7z    c #9A9A9A",
"7A    c #9B9B9B",
"7B    c #E6E6E6",
"7C    c #B3B3B3",
"7D    c #A7A7A7",
"7E    c #9F9F9F",
"7F    c #7E7E7E",
"7G    c #6C6C6C",
"7H    c #939393",
"7I    c #A8A8A8",
"7J    c #F3F3F3",
"7K    c #FCFCFC",
"7L    c #F1F1F1",
"7M    c #D3D3D3",
"7N    c #BEBEBE",
"7O    c #BDBDBD",
"7P    c #C4C4C4",
"7Q    c #CDCDCD",
"7R    c #EBEBEB",
"7S    c #E8E8E8",
"7T    c #E3E3E3",
"7U    c #DEDEDE",
"7V    c #DBDBDB",
"                                                                ",
"                       0 1 2 3 4 4 5 6 7 8                      ",
"                   9 a b c               d e f                  ",
"                 g h                         i j k              ",
"             l m       n o p q r s t u v w       x y            ",
"           z A     B C D E F G H I J K L M N O     P y          ",
"           e Q R S T U V W X Y Z &0 00010203040506070809        ",
"        0a l0b0c0d0e0f0g0h0i0j0k0l0m0n0o0p0q0r0s0t0u0v 4        ",
"       k0w0x0y0z0A0B0C0D0E0F0G0H0I0J0K0L0M0N0O0P0Q0R0S0T f      ",
"       j0U0V0W0X0Y0Z0&1 101112131415161718191a1b1c1d1e 01f      ",
"      1g1h1i1j1k1l1m1n1o1p1q1r1s1t1u1v1w1x1y1z1A1B1C1D1E1F 8    ",
"     b y1G1H1I1J1K1L1M1N1O1P1Q1R1S1T1U1V1W1X1Y1Z1&2 2021220a    ",
"    232425262728292a2b2c  2d2e2f2g        2h2i2j2k2l2m2n2o2p    ",
"    2q2r2s2t2u2v2w2x2y2z2A2B2C2D2E2F2G2H2I2J2K2L2M2N2O2P2Q2R    ",
"    2S2T2U2V2W2X2Y2Z2&3         303132333435363738393a3b3c3d    ",
"    3e3f3g3h3i3j3k3l3m3n  1R3o  3p3q      3r3s3t3u3v3w3x3y3z    ",
"    3A3B3C3D3E3F3G3H3I3J  3K3L v3M3q      3N3O3P3Q3R3S3T3U3V    ",
"    3W3X3Y3Z3&4 404142434445464748494a4b4c4d4e4f4g4h4i4j4k4l    ",
"     l 24m4n4o4p4q4r4s4t4u          4v4w4x4y4z4A4B4C4D4E4F4G    ",
"      4H4I4J4K4L4M4N4O4P4Q4R4S4T4U4V4W4X4Y4Z4&5 505152535455    ",
"      56 45758595a5b5c5d5e5f5g5h5i5j5k5l5m5n5o5p5q5r5s5t5u      ",
"        5v5w5x5y5z5A5B5C5D5E5F5G5H5I5J5K5L5M5N5O5P5Q5R5S5T      ",
"        3M5U5V5W5X5Y5Z5&6 606162636465666768696a6b f0a6c        ",
"          6d6e6f6g6h6i6j6k6l6m6n6o6p6q6r6s6t6u6v6w6x6y          ",
"            6z6A d6B6C6D6E6F6G6H6I6J6K6L6M6N6O6P6Q6R            ",
"      6S6T6U6V6W6X N6Y6Z6&7 7071727374757677 N78797a  6S        ",
"      467b7c4m7c7d7e7f      3K7g7h7i7j    7k1g7l7c7m7n7o6S      ",
"      6T7p560a m7q7r7l7s567t7u7v7w N0x7c7x4H7y4m7z7A6c7B6S      ",
"      7w7B P7C7D7E4F4I4I7z7F3d7G7G4H7l7H7I4G7q7r f y0T7J        ",
"        7K7L k7M7n3f7m3B6d6X y7N7N7N y6X6X7O7P7Q7b7R i6S        ",
"            6S7v7J6U7S7T7U d7V7V7V7V7U0x6V7R7L i7K              ",
"                          6S6S c c6S6S                          "};

