/* XPM */
static char * smile_xpm[] = {
"58 58 2 1",
" 	c #FFFFFF",
".	c #000000",
"........................          ........................",
"....................                  ....................",
".................                        .................",
"...............                            ...............",
"..............                              ..............",
"............                                  ............",
"...........                                    ...........",
"..........                                      ..........",
"........                                          ........",
"........                                          ........",
".......                                            .......",
"......           ..                   ..            ......",
".....          ......               ......           .....",
".....         ........             ........          .....",
"....          ........             ........           ....",
"...          ..........           ..........           ...",
"...          ..........           ..........           ...",
"..            ........             ........             ..",
"..            ........             ........             ..",
"..             ......               ......              ..",
".                ..                   ..                 .",
".                                                        .",
".                                                        .",
".                                                        .",
"                                                          ",
"                                                          ",
"                                                          ",
"                                                          ",
"                            ..                            ",
"                           ....                           ",
"                           ....                           ",
"                            ..                            ",
"                                                          ",
"                                                          ",
".                                                        .",
".                                                        .",
".                                                        .",
".                                                        .",
"..          .                                .          ..",
"..          ..                              ..          ..",
"..          ...                            ...          ..",
"...         ....                          ....         ...",
"...         .......                    .......         ...",
"....        .........                .........        ....",
".....        ............        ............        .....",
".....         ..............................         .....",
"......         ............................         ......",
".......         ..........................         .......",
"........           ....................           ........",
"........             ................             ........",
"..........               ........               ..........",
"...........                                    ...........",
"............                                  ............",
"..............                              ..............",
"...............                            ...............",
".................                        .................",
"....................                  ....................",
"........................          ........................"};
