/* XPM */
static char *app_xpm[] = {
"32 32 256 3",
"000 c #16171D",
"001 c #021130",
"002 c #051836",
"003 c #1B3F1B",
"004 c #093235",
"005 c #0C2444",
"006 c #163351",
"007 c #1D3852",
"008 c #052870",
"009 c #0F3475",
"010 c #103B7C",
"011 c #0D4B18",
"012 c #095F09",
"013 c #144114",
"014 c #1D481D",
"015 c #135C14",
"016 c #0C4328",
"017 c #0B4928",
"018 c #185721",
"019 c #016301",
"020 c #0C6E0C",
"021 c #047304",
"022 c #0F7C0F",
"023 c #176717",
"024 c #1D621D",
"025 c #157E15",
"026 c #254725",
"027 c #2B532B",
"028 c #285928",
"029 c #205E3B",
"030 c #3D543D",
"031 c #385A38",
"032 c #3B623B",
"033 c #164445",
"034 c #164E40",
"035 c #1A4C61",
"036 c #195277",
"037 c #2C445F",
"038 c #295548",
"039 c #30445D",
"040 c #354C60",
"041 c #355378",
"042 c #3A605A",
"043 c Gray31",
"044 c #474F59",
"045 c #4B4E52",
"046 c #415841",
"047 c #485248",
"048 c #475F50",
"049 c #565656",
"050 c #51555E",
"051 c Gray37",
"052 c #414F65",
"053 c #4E5C64",
"054 c #4D634D",
"055 c #576957",
"056 c #59635A",
"057 c #5C6C5C",
"058 c #477477",
"059 c #50636E",
"060 c #596063",
"061 c #5B646C",
"062 c #5B6975",
"063 c #616361",
"064 c #656D65",
"065 c #6C6C6C",
"066 c #6F7172",
"067 c #727272",
"068 c #7B7B7B",
"069 c #1D4E8C",
"070 c #1E5090",
"071 c #1045A1",
"072 c #1A58B5",
"073 c #1F61BD",
"074 c #255E9B",
"075 c #2C5F99",
"076 c #205CAB",
"077 c #2562A1",
"078 c #2265BE",
"079 c #296FBF",
"080 c #2E73BB",
"081 c #3778B7",
"082 c #3C7BB9",
"083 c #256DCB",
"084 c #2F7ACA",
"085 c #2E7CD5",
"086 c #2D7CDA",
"087 c #427A91",
"088 c #457AAC",
"089 c #747E88",
"090 c #078007",
"091 c #04840B",
"092 c #019B01",
"093 c #0B940B",
"094 c #079615",
"095 c #0E9213",
"096 c #128413",
"097 c #188219",
"098 c #19961A",
"099 c #1D981D",
"100 c #03AD03",
"101 c #09AC09",
"102 c #07B307",
"103 c #09B909",
"104 c #219323",
"105 c #239A24",
"106 c #26B826",
"107 c #3AB43A",
"108 c #3EBC3F",
"109 c #03CC03",
"110 c #0FD00F",
"111 c #10C211",
"112 c #1FC31F",
"113 c #15D215",
"114 c #1BD31B",
"115 c #29CB29",
"116 c #23D423",
"117 c #2BD72B",
"118 c #30C630",
"119 c #30CA30",
"120 c #39C739",
"121 c #30D530",
"122 c #34D934",
"123 c #3BDA3B",
"124 c #57B557",
"125 c #67B466",
"126 c #44CA45",
"127 c #45DD45",
"128 c #4AD54A",
"129 c #4ADE4A",
"130 c #54DC55",
"131 c #52E052",
"132 c #5BE25B",
"133 c #6DDF6E",
"134 c #63E463",
"135 c #6BE66B",
"136 c #74E874",
"137 c #7DE57E",
"138 c #7BEA7B",
"139 c #3285E3",
"140 c #3488E6",
"141 c #3A90E5",
"142 c #3C92E9",
"143 c #3C94F0",
"144 c #538480",
"145 c #5DA1A1",
"146 c #688A9E",
"147 c #7D9BA8",
"148 c #428DD2",
"149 c #4A97C9",
"150 c #4290DE",
"151 c #4D95D7",
"152 c #439AF3",
"153 c #499EF5",
"154 c #52A5E4",
"155 c #53A5F6",
"156 c #5DACF7",
"157 c #72A2C0",
"158 c #71BBD7",
"159 c #7EB7D0",
"160 c #6AB6E2",
"161 c #6FBAED",
"162 c #63B1F8",
"163 c #69B5F8",
"164 c #6FB9F9",
"165 c #76BEEE",
"166 c #78BFF9",
"167 c #7BC1F5",
"168 c #7CC1FA",
"169 c #838383",
"170 c Gray55",
"171 c #8B8E91",
"172 c #8F948F",
"173 c #939493",
"174 c #969996",
"175 c Gray61",
"176 c #9D9FA1",
"177 c #A4A4A4",
"178 c Gray67",
"179 c Gray70",
"180 c #B2B9B2",
"181 c #BCBCBC",
"182 c #89BDE0",
"183 c #8ACCA9",
"184 c #86C6B2",
"185 c #85C8B3",
"186 c #83EA83",
"187 c #8AEF8A",
"188 c #90F090",
"189 c #9DF39D",
"190 c #A9C6A8",
"191 c #A2CDBB",
"192 c #AED0AE",
"193 c #ABE3B0",
"194 c #A4F5A4",
"195 c #B9EEB9",
"196 c #92CFC9",
"197 c #9AC5D8",
"198 c #93D1CA",
"199 c #9BD6CA",
"200 c #96D4D6",
"201 c #93D1DA",
"202 c #98D5D0",
"203 c #84C6E2",
"204 c #89CAE1",
"205 c #80C5F2",
"206 c #85C7FA",
"207 c #8CCCFA",
"208 c #9FD9ED",
"209 c #93D1FB",
"210 c #A2DBC6",
"211 c #BCD7C2",
"212 c #B0DCF0",
"213 c #B7E7C3",
"214 c #B3E6C8",
"215 c #B4E8CC",
"216 c #BBEBC4",
"217 c #BEF1CF",
"218 c #AAE0FD",
"219 c #B7EAE3",
"220 c #B4E5FE",
"221 c #BCE9F5",
"222 c #B9E8FE",
"223 c #C1C1C1",
"224 c #C6C6C6",
"225 c #CBCBCB",
"226 c #C7DBC7",
"227 c #CED5CE",
"228 c #CBD9CB",
"229 c #D3D3D3",
"230 c gainsboro",
"231 c #C4EECF",
"232 c #C4F7C4",
"233 c #CBF5CB",
"234 c #CCFACC",
"235 c #C5F2D7",
"236 c #CDF3D1",
"237 c #D3F7D3",
"238 c #D3FAD3",
"239 c #D2F8DB",
"240 c #DDFCDD",
"241 c #CEF3E3",
"242 c #D2EBE1",
"243 c #D3F4ED",
"244 c #DEF9E3",
"245 c #DFFAEA",
"246 c #D2F4F1",
"247 c Gray89",
"248 c #E9E9E9",
"249 c #E3FDE3",
"250 c #EBFDEC",
"251 c #F3F3F3",
"252 c #F4FEF4",
"253 c #F9F9F9",
"254 c #FAFEFA",
"255 c None",
"255255255255255255255255255255255255255255255255255255255255255255255255255255255255255255255255",
"255255255255255255255255255224169063049049170181255255255255255255255255255255255255255255255255",
"255255255255255255247175053146182207166162150074039171255255255255255255255255255255255255255255",
"255255255255255247060147212222220218209168156152085069045169068175230255255255255255255255255255",
"255255255255223063242245246243243239241219205151035011097105105104015055247255255255255255255255",
"255255255255056211252252252250249240234238191038093111116122129130126098056255255255255255255255",
"255255255066197246254254252252236238237217026021094095106123132135138133096172255255255255255255",
"255255225062221250253254252250244244240235042087081077034107132136187189108031255255255255255255",
"255255171157241252252252252249250249240238215165153140076029134136188194137012255255255255255255",
"255255061159249250250250252240244240240233199161152139078033132136187189186025224255255255255255",
"255255040203249249250250249249240237214200168088016017016018131135138187138099014027027047255255",
"255255007160249249249249249249240213208207163082019103112119129132135138136128120118092046255255",
"255255006154233237240236231236213201206164155143036091113116123129131134134134132115032230255255",
"255255037142184216238198204199210167163155143139078004103113117123127129131131117020181255255255",
"255255062079141196234202196185183158148080075041044065028102113116117122122117022174255255255255",
"255255176070086149193232195145058048059089174178224225173023109110114114116101064255255255255255",
"255255247052073083084144064068179229229229229225225225225169090109109109100013223255255255255255",
"255255255174010072073005247247247230230229229229225225225181054092109109024172051224255255255255",
"255255255255061009071002251251248247230230229229229225225225178030100021173247225051224255255255",
"255255255255247050008001248253248247247230230229229229225225224176003057230247247225064179255255",
"255255255255255255169000230247253251247247230230229229229225225225224229230247247247227066181255",
"255255255255255255255043229230248253251247230230230229229229225225229230230230247247247230066255",
"255255255255255255255173170229230248251251247247230230229229229230230247248248248248248248065255",
"255255255255255255255255067170229230248253251247247247247248248248247247247247248248248247065255",
"255255255255255255255255255169170229230247251251248248247230230230247247247248247228226230065255",
"255255255255255255255255255255067170229230248251247229230230230247247247248248192124125227065255",
"255255255255255255255255255255255169170229229247247230230230247247247248248248228190180174169255",
"255255255255255255255255255255255255170068229247230230230247247247247247230181068063068177255255",
"255255255255255255255255255255255255255175068225230230247230224178172067067175247255255255255255",
"255255255255255255255255255255255255255255170068230225170068170178225247255255255255255255255255",
"255255255255255255255255255255255255255255255177068178255255255255255255255255255255255255255255",
"255255255255255255255255255255255255255255255255255255255255255255255255255255255255255255255255"
};
