/* XPM */
static const char * Circle_xpm[] = {
"16 16 3 1",
" 	c None",
".	c #000000",
"+	c #FFFFFF",
"                ",
"                ",
"      ...       ",
"    ..+++..     ",
"   .+++++++.    ",
"   .+++++++.    ",
"  .+++++++++.   ",
"  .+++++++++.   ",
"  .+++++++++.   ",
"   .+++++++.    ",
"   .+++++++.    ",
"    ..+++..     ",
"      ...       ",
"                ",
"                ",
"                "};
