/* XPM */
static const char * GC_xpm[] = {
"16 16 4 1",
" 	c None",
".	c #B39CFD",
"+	c #3A3A3A",
"@	c #000000",
".               ",
"..           +++",
"...         +@@@",
"....       +@@@+",
".....     +@@@+ ",
"......   +@@@+  ",
"....... +@@@+   ",
"........@@@+    ",
"......@@@@+     ",
"......@@@@      ",
"....@@@@...     ",
"....@@@@....    ",
"..@@@@.......   ",
"..@@@@........  ",
"@@@@........... ",
"@@@@............"};
