/* XPM */
static char * rowSortAscend_xpm[] = {
"11 11 51 1",
" 	c None",
".	c #191F1F",
"+	c #474C4C",
"@	c #1F2525",
"#	c #242A2A",
"$	c #232929",
"%	c #393D3D",
"&	c #1C2222",
"*	c #454848",
"=	c #404242",
"-	c #373B3B",
";	c #272C2C",
">	c #1E2323",
",	c #444848",
"'	c #4E5050",
")	c #494B4B",
"!	c #3D4040",
"~	c #1B2121",
"{	c #454949",
"]	c #515454",
"^	c #555656",
"/	c #545656",
"(	c #4F5252",
"_	c #515353",
":	c #424545",
"<	c #424747",
"[	c #404343",
"}	c #555757",
"|	c #585858",
"1	c #575858",
"2	c #616262",
"3	c #3E4242",
"4	c #1D2222",
"5	c #3D4141",
"6	c #4A4C4C",
"7	c #515151",
"8	c #515252",
"9	c #4B4D4D",
"0	c #474A4A",
"a	c #2E3333",
"b	c #1E2424",
"c	c #474848",
"d	c #464848",
"e	c #474949",
"f	c #313434",
"g	c #272D2D",
"h	c #434646",
"i	c #3B3F3F",
"j	c #222828",
"k	c #303535",
"l	c #282E2E",
"..+        ",
".@#$%      ",
"&*=-@;%    ",
">,')!%$@%  ",
"~{]^/(_:$<%",
"~['/}|12'.3",
"45678990a<%",
"b!cdefg@%  ",
"4hi-j;%    ",
".kl$%      ",
"..+        "};
