/* XPM */
static char * rowSortDescend_xpm[] = {
"11 11 51 1",
" 	c None",
".	c #474C4C",
"+	c #191F1F",
"@	c #393D3D",
"#	c #232929",
"$	c #242A2A",
"%	c #1F2525",
"&	c #272C2C",
"*	c #373B3B",
"=	c #404242",
"-	c #454848",
";	c #1C2222",
">	c #3D4040",
",	c #494B4B",
"'	c #4E5050",
")	c #444848",
"!	c #1E2323",
"~	c #424747",
"{	c #424545",
"]	c #515353",
"^	c #4F5252",
"/	c #545656",
"(	c #555656",
"_	c #515454",
":	c #454949",
"<	c #1B2121",
"[	c #3E4242",
"}	c #616262",
"|	c #575858",
"1	c #585858",
"2	c #555757",
"3	c #404343",
"4	c #2E3333",
"5	c #474A4A",
"6	c #4B4D4D",
"7	c #515252",
"8	c #515151",
"9	c #4A4C4C",
"0	c #3D4141",
"a	c #1D2222",
"b	c #272D2D",
"c	c #313434",
"d	c #474949",
"e	c #464848",
"f	c #474848",
"g	c #1E2424",
"h	c #222828",
"i	c #3B3F3F",
"j	c #434646",
"k	c #282E2E",
"l	c #303535",
"        .++",
"      @#$%+",
"    @&%*=-;",
"  @%#@>,')!",
"@~#{]^/(_:<",
"[+'}|12/'3<",
"@~45667890a",
"  @%bcdef>g",
"    @&h*ija",
"      @#kl+",
"        .++"};
