/* XPM */
static char * user_xpm[] = {
"48 48 65 1",
" 	c None",
".	c #1D0E4F",
"+	c #4A4F9D",
"@	c #847E9F",
"#	c #A2A0B3",
"$	c #F24040",
"%	c #C2A0A0",
"&	c #ED4D4F",
"*	c #E83B3C",
"=	c #CDCDDB",
"-	c #FACAA0",
";	c #D05050",
">	c #E24343",
",	c #E4E5ED",
"'	c #DE8D8D",
")	c #33266B",
"!	c #CA5758",
"~	c #DDAD92",
"{	c #C8918F",
"]	c #DBDAE4",
"^	c #ACAFCB",
"/	c #575FAB",
"(	c #404495",
"_	c #AC8F84",
":	c #FCDCC0",
"<	c #D9BDB5",
"[	c #9594AA",
"}	c #725A76",
"|	c #E8B892",
"1	c #CAA69C",
"2	c #6874BB",
"3	c #E6D5D4",
"4	c #46366E",
"5	c #F3F8FB",
"6	c #7B85C3",
"7	c #B8BBD3",
"8	c #1F1768",
"9	c #CAAAA0",
"0	c #ECD1B9",
"a	c #E0706A",
"b	c #9BA2D1",
"c	c #EFF2F6",
"d	c #EBC09C",
"e	c #D2565A",
"f	c #6C526C",
"g	c #6D68A0",
"h	c #8A89A4",
"i	c #EDEEF3",
"j	c #C4C4D3",
"k	c #D2D6E7",
"l	c #292C85",
"m	c #FDD6B4",
"n	c #8D95CB",
"o	c #908EBC",
"p	c #F6C59B",
"q	c #7373AF",
"r	c #554679",
"s	c #5E548C",
"t	c #EE6A6A",
"u	c #FCD0AB",
"v	c #7D6F89",
"w	c #D26F6C",
"x	c #3A3A8B",
"y	c #656DAF",
"z	c #161B82",
"                    l(((((xlz                   ",
"                  +2n7=kkk=j[yx8                ",
"                /n=k]k=====kkk=h(8              ",
"              l27=jj7j77777^7^^j7q)             ",
"             x277^^^^^^^^b^^b^b##^@8            ",
"            l/^bbbbb^bbbbbnnnooooo[g8           ",
"            (6nnnnbnnnnn6nn6h66@q@q@4.          ",
"           l/6666666666662qqqggggggv+..         ",
"          ll/222222222222yyy////ssssr8.         ",
"          ll+////2662/y////s+s+(+r(rr8.         ",
"          ll(+++2#<d#/++++(+((xxx444)8..        ",
"         zlllx(@|----q((((xxx4l4ll)))...        ",
"         lllz(hduppp-~/lllllll)))888....        ",
"         zzz({pppp---u~q(lzzz.z..88.84f.        ",
"          xv9ppppp---uud1_v}rr(f}v@'{~|         ",
"          {|pppp--p-----u-p||~~||pp---p         ",
"          ||||ppp---uuuuuummm:uuuu-u--d         ",
"          ~|||dpp--uuuuuummmuumuuuuuuu|         ",
"           ~||ppp--uuuuuuum:mmmmmmum-u_         ",
"           |||dp--uuuum:m:mm:mmmmmmmm-          ",
"            ||dpp-0ummmmmm:m:::mmmmmu_          ",
"            ~|dd--uuumm::::::m:::::m0           ",
"             ~|d0p0u0mm::::::::::::0            ",
"              ~dd-u0mm:m::::::::::0             ",
"               9dd0u0m:m:::::::::<              ",
"                 <pu0m0::::::::0#               ",
"                  _9d00m3:::3<_                 ",
"                    #7'www'j[                   ",
"                   #^7{!!!%7^[                  ",
"                 [#^jk,<'<,]=7#@                ",
"                [[7=]kk={=k=kk7#@               ",
"               ho7======{=====k7#q              ",
"               h^j=j===<w<===j==7[              ",
"              h#77jjjj=9w9====jjj^o             ",
"             hh777jj=j={!{==j=j=jj#@            ",
"             @#77j7jj==w!w=====j==7[            ",
"            hh^^77jj==j;;!kk=======^@           ",
"            @#^977j=kk~>;;<]]]3k===j^           ",
"           hh##^7jj=k,{*&>|,,,]]]k==7v          ",
"           @h#^^7j=k,,a***1c,,,,,]]k=#          ",
"           h[#^^<=k],3&*$*'c,i,,,,,]k7          ",
"          hh[#^7jk],cd*$**ticiiii,,]]k@         ",
"          @h##^7=],,c~*$$$&icciii,i,]]#         ",
"          h[##^j=],,it$$$$$m5cciii,,,]j         ",
"         hhh##7j]],i,&&&&&&p55ciii,,,]=         ",
"                                                ",
"                                                ",
"                                                "};
