/* XPM */
static const char *tool2_xpm[] = {
/* columns rows colors chars-per-pixel */
"22 22 3 1",
". c Black",
"X c #FFFFFF",
"  c #C0C0C0",
/* pixels */
"                      ",
"                      ",
"    .............     ",
"   .XXXXXXXXXXXXX.    ",
"  .XXXXXXXXXXXXXXX.   ",
" .XXXXXXXXXXXXXXXXX.  ",
" .XXXXXXXXXXXXXXXXX.  ",
" .XXXXXXXXXXXXXXXXX.  ",
" .XXXXXXXXXXXXXXXXX.  ",
" .XXXXXXXXXXXXXXXXX.  ",
" .XXXXXXXXXXXXXXXXX.  ",
" .XXXXXXXXXXXXXXXXX.  ",
" .XXXXXXXXXXXXXXXXX.  ",
" .XXXXXXXXXXXXXXXXX.  ",
" .XXXXXXXXXXXXXXXXX.  ",
" .XXXXXXXXXXXXXXXXX.  ",
"  .XXXXXXXXXXXXXXX.   ",
"   .XXXXXXXXXXXXX.    ",
"    .............     ",
"                      ",
"                      ",
"                      "
};
