/* XPM */
static char *prev_dbl_btn_xpm[] = {
/* columns rows colors chars-per-pixel */
"16 12 3 1",
"  c black",
". c #c0c0c0",
"X c #e0e0e0",
/* pixels */
"................",
"......X......X..",
".....X .....X ..",
"....X  ....X  ..",
"...X   ...X   ..",
"..X    ..X    ..",
"..     ..     ..",
"...    ...    ..",
"....   ....   ..",
".....  .....  ..",
"...... ...... ..",
"................"
};
